# This file uses centimeters as units for non-parametric coordinates.

mtllib Fence x4.mtl
g default
v 2.000000 0.900000 0.150000
v 2.000000 0.900000 -0.150000
v 2.000000 1.100000 -0.150000
v 2.000000 1.100000 0.150000
v -0.000000 0.900000 0.150000
v 0.000000 0.900000 -0.150000
v 0.000000 1.100000 -0.150000
v -0.000000 1.100000 0.150000
v -2.000000 0.900000 0.150000
v -2.000000 0.900000 -0.150000
v -2.000000 1.100000 -0.150000
v -2.000000 1.100000 0.150000
v 1.900000 0.000000 -0.100000
v 1.900000 0.000000 0.100000
v 1.900000 1.000000 -0.100000
v 1.900000 1.000000 0.100000
v -0.100000 0.000000 -0.100000
v 0.100000 0.000000 -0.100000
v 0.100000 0.000000 0.100000
v -0.100000 0.000000 0.100000
v -0.100000 1.000000 -0.100000
v 0.100000 1.000000 -0.100000
v 0.100000 1.000000 0.100000
v -0.100000 1.000000 0.100000
v -1.900000 0.000000 -0.100000
v -1.900000 0.000000 0.100000
v -1.900000 1.000000 -0.100000
v -1.900000 1.000000 0.100000
v -2.000000 0.000000 -0.100000
v -2.000000 1.000000 -0.100000
v -2.000000 0.000000 0.100000
v -2.000000 1.000000 0.100000
v 2.000000 0.000000 -0.100000
v 2.000000 1.000000 -0.100000
v 2.000000 0.000000 0.100000
v 2.000000 1.000000 0.100000
vt 0.175004 1.000000
vt 0.175000 0.499999
vt 0.250000 0.499999
vt 0.250004 0.999999
vt 0.000004 0.999997
vt 0.000000 0.500004
vt 0.050000 0.500003
vt 0.050004 0.999998
vt 0.125000 0.499999
vt 0.125004 1.000000
vt 0.175004 0.000003
vt 0.250005 0.000001
vt 0.000000 0.000004
vt 0.050000 0.000004
vt 0.125001 0.000004
vt 0.477156 0.250000
vt 0.452156 0.250000
vt 0.452156 0.000000
vt 0.477156 0.000000
vt 0.527156 0.250000
vt 0.527156 0.000000
vt 0.450623 0.250000
vt 0.400623 0.250000
vt 0.400623 0.000000
vt 0.450623 -0.000000
vt 0.300623 0.250000
vt 0.250623 0.250000
vt 0.250623 0.000000
vt 0.300623 0.000000
vt 0.350623 0.250000
vt 0.350623 0.000000
vt 0.577922 0.250000
vt 0.552922 0.250000
vt 0.552922 -0.000000
vt 0.577922 0.000000
vt 0.627922 0.250000
vt 0.627922 0.000000
vt 0.652922 0.250000
vt 0.652922 0.000000
vt 0.552156 0.250000
vt 0.552156 -0.000000
vn 0.000000 -1.000000 -0.000000
vn 0.000000 -1.000000 -0.000000
vn 0.000000 -1.000000 -0.000000
vn 0.000000 -1.000000 -0.000000
vn 0.000000 0.000000 -1.000000
vn 0.000000 0.000000 -1.000000
vn 0.000000 0.000000 -1.000000
vn 0.000000 0.000000 -1.000000
vn 0.000000 1.000000 0.000000
vn 0.000000 1.000000 0.000000
vn 0.000000 1.000000 0.000000
vn 0.000000 1.000000 0.000000
vn 0.000000 0.000000 1.000000
vn 0.000000 0.000000 1.000000
vn 0.000000 0.000000 1.000000
vn 0.000000 0.000000 1.000000
vn 0.000000 -1.000000 0.000000
vn 0.000000 -1.000000 0.000000
vn 0.000000 -1.000000 0.000000
vn 0.000000 -1.000000 0.000000
vn 0.000000 0.000000 -1.000000
vn 0.000000 0.000000 -1.000000
vn 0.000000 0.000000 -1.000000
vn 0.000000 0.000000 -1.000000
vn 0.000000 1.000000 -0.000000
vn 0.000000 1.000000 -0.000000
vn 0.000000 1.000000 -0.000000
vn 0.000000 1.000000 -0.000000
vn 0.000000 0.000000 1.000000
vn 0.000000 0.000000 1.000000
vn 0.000000 0.000000 1.000000
vn 0.000000 0.000000 1.000000
vn 0.000000 0.000000 1.000000
vn 0.000000 0.000000 1.000000
vn 0.000000 0.000000 1.000000
vn 0.000000 0.000000 1.000000
vn -1.000000 0.000000 0.000000
vn -1.000000 0.000000 0.000000
vn -1.000000 0.000000 0.000000
vn -1.000000 0.000000 0.000000
vn 0.000000 0.000000 -1.000000
vn 0.000000 0.000000 -1.000000
vn 0.000000 0.000000 -1.000000
vn 0.000000 0.000000 -1.000000
vn 1.000000 0.000000 0.000000
vn 1.000000 0.000000 0.000000
vn 1.000000 0.000000 0.000000
vn 1.000000 0.000000 0.000000
vn 0.000000 0.000000 1.000000
vn 0.000000 0.000000 1.000000
vn 0.000000 0.000000 1.000000
vn 0.000000 0.000000 1.000000
vn -1.000000 0.000000 0.000000
vn -1.000000 0.000000 0.000000
vn -1.000000 0.000000 0.000000
vn -1.000000 0.000000 0.000000
vn 0.000000 0.000000 -1.000000
vn 0.000000 0.000000 -1.000000
vn 0.000000 0.000000 -1.000000
vn 0.000000 0.000000 -1.000000
vn 1.000000 0.000000 0.000000
vn 1.000000 0.000000 0.000000
vn 1.000000 0.000000 0.000000
vn 1.000000 0.000000 0.000000
vn 0.000000 0.000000 1.000000
vn 0.000000 0.000000 1.000000
vn 0.000000 0.000000 1.000000
vn 0.000000 0.000000 1.000000
vn 0.000000 0.000000 -1.000000
vn 0.000000 0.000000 -1.000000
vn 0.000000 0.000000 -1.000000
vn 0.000000 0.000000 -1.000000
s off
g Fence
usemtl initialShadingGroup
f 1/1/1 5/2/2 6/3/3 2/4/4
f 2/5/5 6/6/6 7/7/7 3/8/8
f 3/8/9 7/7/10 8/9/11 4/10/12
f 4/10/13 8/9/14 5/2/15 1/1/16
f 5/2/17 9/11/18 10/12/19 6/3/20
f 6/6/21 10/13/22 11/14/23 7/7/24
f 7/7/25 11/14/26 12/15/27 8/9/28
f 8/9/29 12/15/30 9/11/31 5/2/32
f 14/16/33 35/17/34 36/18/35 16/19/36
f 13/20/37 14/16/38 16/19/39 15/21/40
f 18/22/41 17/23/42 21/24/43 22/25/44
f 19/26/45 18/27/46 22/28/47 23/29/48
f 20/30/49 19/26/50 23/29/51 24/31/52
f 17/23/53 20/30/54 24/31/55 21/24/56
f 25/32/57 29/33/58 30/34/59 27/35/60
f 26/36/61 25/32/62 27/35/63 28/37/64
f 31/38/65 26/36/66 28/37/67 32/39/68
f 33/40/69 13/20/70 15/21/71 34/41/72
