# This file uses centimeters as units for non-parametric coordinates.

mtllib Fence x4 C.mtl
g default
v 2.150000 0.900000 -2.000000
v 1.850000 0.900000 -2.000000
v 1.850000 1.100000 -2.000000
v 2.150000 1.100000 -2.000000
v 2.150000 0.900000 0.000000
v 1.850000 0.900000 0.000000
v 1.850000 1.100000 0.000000
v 2.150000 1.100000 0.000000
v 2.150000 0.900000 2.150000
v 1.850000 0.900000 1.850000
v 1.850000 1.100000 1.850000
v 2.150000 1.100000 2.150000
v 0.000000 0.900000 2.150000
v 0.000000 0.900000 1.850000
v 0.000000 1.100000 1.850000
v 0.000000 1.100000 2.150000
v -2.000000 0.900000 2.150000
v -2.000000 0.900000 1.850000
v -2.000000 1.100000 1.850000
v -2.000000 1.100000 2.150000
v 2.100000 0.000000 -1.900000
v 1.900000 0.000000 -1.900000
v 2.100000 1.000000 -1.900000
v 1.900000 1.000000 -1.900000
v 1.900000 0.000000 -0.100000
v 2.100000 0.000000 -0.100000
v 2.100000 0.000000 0.100000
v 1.900000 0.000000 0.100000
v 1.900000 1.000000 -0.100000
v 2.100000 1.000000 -0.100000
v 2.100000 1.000000 0.100000
v 1.900000 1.000000 0.100000
v 1.900000 0.000000 1.900000
v 2.100000 0.000000 1.900000
v 2.100000 0.000000 2.100000
v 1.900000 0.000000 2.100000
v 1.900000 1.000000 1.900000
v 2.100000 1.000000 1.900000
v 2.100000 1.000000 2.100000
v 1.900000 1.000000 2.100000
v -0.100000 0.000000 1.900000
v 0.100000 0.000000 1.900000
v 0.100000 0.000000 2.100000
v -0.100000 0.000000 2.100000
v -0.100000 1.000000 1.900000
v 0.100000 1.000000 1.900000
v 0.100000 1.000000 2.100000
v -0.100000 1.000000 2.100000
v -1.900000 0.000000 1.900000
v -1.900000 0.000000 2.100000
v -1.900000 1.000000 1.900000
v -1.900000 1.000000 2.100000
v 2.100000 0.000000 -2.000000
v 2.100000 1.000000 -2.000000
v 1.900000 0.000000 -2.000000
v 1.900000 1.000000 -2.000000
v -2.000000 0.000000 1.900000
v -2.000000 1.000000 1.900000
v -2.000000 0.000000 2.100000
v -2.000000 1.000000 2.100000
vt 0.327123 0.000001
vt 0.327125 0.500002
vt 0.252125 0.500002
vt 0.252123 0.000001
vt 0.502125 0.000000
vt 0.502125 0.500001
vt 0.452125 0.500001
vt 0.452124 0.000000
vt 0.377126 0.500001
vt 0.377123 0.000000
vt 0.327126 1.037503
vt 0.252125 0.962503
vt 0.502125 0.962501
vt 0.452127 0.962501
vt 0.377128 1.037502
vt 0.175016 1.037598
vt 0.175013 0.500057
vt 0.250019 0.500048
vt 0.250022 0.962592
vt 0.000000 0.962592
vt 0.000000 0.500054
vt 0.050005 0.500054
vt 0.050004 0.962592
vt 0.125010 0.500056
vt 0.125010 1.037598
vt 0.174892 0.000019
vt 0.249857 0.000000
vt 0.000000 0.000013
vt 0.050004 0.000013
vt 0.124970 0.000017
vt 0.730215 0.500000
vt 0.705215 0.500000
vt 0.705215 0.250000
vt 0.730215 0.250000
vt 0.780215 0.500000
vt 0.780215 0.250000
vt 0.604247 0.500000
vt 0.554247 0.500000
vt 0.554247 0.250000
vt 0.604247 0.250000
vt 0.654247 0.500000
vt 0.654247 0.250000
vt 0.704247 0.500000
vt 0.704246 0.250000
vt 0.504247 0.500000
vt 0.504247 0.250000
vt 0.755215 0.250000
vt 0.705215 0.250000
vt 0.705215 0.000000
vt 0.755215 0.000000
vt 0.805215 0.250000
vt 0.805215 0.000000
vt 0.855215 0.250000
vt 0.855215 0.000000
vt 0.905214 0.250000
vt 0.905215 0.000000
vt 0.704247 0.250000
vt 0.654247 0.250000
vt 0.654247 0.000000
vt 0.704247 0.000000
vt 0.554247 0.250000
vt 0.504247 0.250000
vt 0.504247 0.000000
vt 0.554247 0.000000
vt 0.604247 0.250000
vt 0.604247 0.000000
vt 0.931183 0.250000
vt 0.906183 0.250000
vt 0.906183 0.000000
vt 0.931183 0.000000
vt 0.981183 0.250000
vt 0.981183 0.000000
vt 0.805215 0.500000
vt 0.805215 0.250000
vt 1.006183 0.250000
vt 1.006183 0.000000
vn 0.000000 -1.000000 0.000000
vn 0.000000 -1.000000 0.000000
vn 0.000000 -1.000000 0.000000
vn 0.000000 -1.000000 0.000000
vn -1.000000 0.000000 0.000000
vn -1.000000 0.000000 0.000000
vn -1.000000 0.000000 0.000000
vn -1.000000 0.000000 0.000000
vn 0.000000 1.000000 0.000000
vn 0.000000 1.000000 0.000000
vn 0.000000 1.000000 0.000000
vn 0.000000 1.000000 0.000000
vn 1.000000 0.000000 0.000000
vn 1.000000 0.000000 0.000000
vn 1.000000 0.000000 0.000000
vn 1.000000 0.000000 0.000000
vn 0.000000 -1.000000 0.000000
vn 0.000000 -1.000000 0.000000
vn 0.000000 -1.000000 0.000000
vn 0.000000 -1.000000 0.000000
vn -1.000000 0.000000 0.000000
vn -1.000000 0.000000 0.000000
vn -1.000000 0.000000 0.000000
vn -1.000000 0.000000 0.000000
vn 0.000000 1.000000 0.000000
vn 0.000000 1.000000 0.000000
vn 0.000000 1.000000 0.000000
vn 0.000000 1.000000 0.000000
vn 1.000000 0.000000 0.000000
vn 1.000000 0.000000 0.000000
vn 1.000000 0.000000 0.000000
vn 1.000000 0.000000 0.000000
vn 0.000000 -1.000000 0.000000
vn 0.000000 -1.000000 0.000000
vn 0.000000 -1.000000 0.000000
vn 0.000000 -1.000000 0.000000
vn 0.000000 0.000000 -1.000000
vn 0.000000 0.000000 -1.000000
vn 0.000000 0.000000 -1.000000
vn 0.000000 0.000000 -1.000000
vn 0.000000 1.000000 -0.000000
vn 0.000000 1.000000 -0.000000
vn 0.000000 1.000000 -0.000000
vn 0.000000 1.000000 -0.000000
vn 0.000000 0.000000 1.000000
vn 0.000000 0.000000 1.000000
vn 0.000000 0.000000 1.000000
vn 0.000000 0.000000 1.000000
vn 0.000000 -1.000000 0.000000
vn 0.000000 -1.000000 0.000000
vn 0.000000 -1.000000 0.000000
vn 0.000000 -1.000000 0.000000
vn 0.000000 0.000000 -1.000000
vn 0.000000 0.000000 -1.000000
vn 0.000000 0.000000 -1.000000
vn 0.000000 0.000000 -1.000000
vn 0.000000 1.000000 0.000000
vn 0.000000 1.000000 0.000000
vn 0.000000 1.000000 0.000000
vn 0.000000 1.000000 0.000000
vn 0.000000 0.000000 1.000000
vn 0.000000 0.000000 1.000000
vn 0.000000 0.000000 1.000000
vn 0.000000 0.000000 1.000000
vn 1.000000 0.000000 0.000000
vn 1.000000 0.000000 0.000000
vn 1.000000 0.000000 0.000000
vn 1.000000 0.000000 0.000000
vn 0.000000 0.000000 1.000000
vn 0.000000 0.000000 1.000000
vn 0.000000 0.000000 1.000000
vn 0.000000 0.000000 1.000000
vn 0.000000 0.000000 -1.000000
vn 0.000000 0.000000 -1.000000
vn 0.000000 0.000000 -1.000000
vn 0.000000 0.000000 -1.000000
vn 1.000000 0.000000 0.000000
vn 1.000000 0.000000 0.000000
vn 1.000000 0.000000 0.000000
vn 1.000000 0.000000 0.000000
vn 0.000000 0.000000 1.000000
vn 0.000000 0.000000 1.000000
vn 0.000000 0.000000 1.000000
vn 0.000000 0.000000 1.000000
vn -1.000000 0.000000 0.000000
vn -1.000000 0.000000 0.000000
vn -1.000000 0.000000 0.000000
vn -1.000000 0.000000 0.000000
vn 0.000000 0.000000 -1.000000
vn 0.000000 0.000000 -1.000000
vn 0.000000 0.000000 -1.000000
vn 0.000000 0.000000 -1.000000
vn 1.000000 0.000000 0.000000
vn 1.000000 0.000000 0.000000
vn 1.000000 0.000000 0.000000
vn 1.000000 0.000000 0.000000
vn 0.000000 0.000000 1.000000
vn 0.000000 0.000000 1.000000
vn 0.000000 0.000000 1.000000
vn 0.000000 0.000000 1.000000
vn -1.000000 0.000000 0.000000
vn -1.000000 0.000000 0.000000
vn -1.000000 0.000000 0.000000
vn -1.000000 0.000000 0.000000
vn 0.000000 0.000000 -1.000000
vn 0.000000 0.000000 -1.000000
vn 0.000000 0.000000 -1.000000
vn 0.000000 0.000000 -1.000000
vn 1.000000 0.000000 0.000000
vn 1.000000 0.000000 0.000000
vn 1.000000 0.000000 0.000000
vn 1.000000 0.000000 0.000000
vn 0.000000 0.000000 1.000000
vn 0.000000 0.000000 1.000000
vn 0.000000 0.000000 1.000000
vn 0.000000 0.000000 1.000000
vn -1.000000 0.000000 0.000000
vn -1.000000 0.000000 0.000000
vn -1.000000 0.000000 0.000000
vn -1.000000 0.000000 0.000000
vn 0.000000 0.000000 -1.000000
vn 0.000000 0.000000 -1.000000
vn 0.000000 0.000000 -1.000000
vn 0.000000 0.000000 -1.000000
vn 1.000000 0.000000 0.000000
vn 1.000000 0.000000 0.000000
vn 1.000000 0.000000 0.000000
vn 1.000000 0.000000 0.000000
vn -1.000000 0.000000 0.000000
vn -1.000000 0.000000 0.000000
vn -1.000000 0.000000 0.000000
vn -1.000000 0.000000 0.000000
vn 0.000000 0.000000 1.000000
vn 0.000000 0.000000 1.000000
vn 0.000000 0.000000 1.000000
vn 0.000000 0.000000 1.000000
s off
g Fence_x4_C1
usemtl initialShadingGroup
f 1/1/1 5/2/2 6/3/3 2/4/4
f 2/5/5 6/6/6 7/7/7 3/8/8
f 3/8/9 7/7/10 8/9/11 4/10/12
f 4/10/13 8/9/14 5/2/15 1/1/16
f 5/2/17 9/11/18 10/12/19 6/3/20
f 6/6/21 10/13/22 11/14/23 7/7/24
f 7/7/25 11/14/26 12/15/27 8/9/28
f 8/9/29 12/15/30 9/11/31 5/2/32
f 9/16/33 13/17/34 14/18/35 10/19/36
f 10/20/37 14/21/38 15/22/39 11/23/40
f 11/23/41 15/22/42 16/24/43 12/25/44
f 12/25/45 16/24/46 13/17/47 9/16/48
f 13/17/49 17/26/50 18/27/51 14/18/52
f 14/21/53 18/28/54 19/29/55 15/22/56
f 15/22/57 19/29/58 20/30/59 16/24/60
f 16/24/61 20/30/62 17/26/63 13/17/64
f 21/31/65 53/32/66 54/33/67 23/34/68
f 22/35/69 21/31/70 23/34/71 24/36/72
f 26/37/73 25/38/74 29/39/75 30/40/76
f 27/41/77 26/37/78 30/40/79 31/42/80
f 28/43/81 27/41/82 31/42/83 32/44/84
f 25/38/85 28/45/86 32/46/87 29/39/88
f 34/47/89 33/48/90 37/49/91 38/50/92
f 35/51/93 34/47/94 38/50/95 39/52/96
f 36/53/97 35/51/98 39/52/99 40/54/100
f 33/55/101 36/53/102 40/54/103 37/56/104
f 42/57/105 41/58/106 45/59/107 46/60/108
f 43/61/109 42/62/110 46/63/111 47/64/112
f 44/65/113 43/61/114 47/64/115 48/66/116
f 41/58/117 44/65/118 48/66/119 45/59/120
f 49/67/121 57/68/122 58/69/123 51/70/124
f 50/71/125 49/67/126 51/70/127 52/72/128
f 55/73/129 22/35/130 24/36/131 56/74/132
f 59/75/133 50/71/134 52/72/135 60/76/136
