# File exported by Houdini 16.5.496 (www.sidefx.com)
# 87 points
# 240 vertices
# 61 primitives
# Bounds: [-2.41602516, -0.300000012, 0] to [2.41602516, 3.79083276, 5.1500001]
g 
v 0.25 3.29083276 5.1500001
v -0.25 3.29083276 5.1500001
v 0.25 3.79083276 5.1500001
v -0.25 3.79083276 5.1500001
v 0.150000006 2.7750001 4.13000011
v 0.150000006 0 4.13000011
v -1.59204078e-17 0 4.13000011
v -0.150000006 0 4.13000011
v -0.150000006 2.7750001 4.13000011
v -1.59204078e-17 3 4.13000011
v 0.909861207 1.63520813 4.1170001
v 1.09013879 1.36479187 4.1170001
v 0.180277571 0 4.1170001
v -1.43283663e-17 0 4.1170001
v -0.124807552 0.0832050294 4.1170001
v -0.909861207 1.63520813 4.1170001
v -1.09013879 1.36479187 4.1170001
v -0.180277571 0 4.1170001
v 0.124807552 0.0832050294 4.1170001
v -2 -0.150000006 4.1500001
v 2 -0.150000006 4.1500001
v -2 0 4.1500001
v -1.89999998 0.150000006 4.1500001
v 1.89999998 0.150000006 4.1500001
v 2 0 4.1500001
v -0.150000006 0 4
v -0.150000006 2.7750001 4
v 0.150000006 2.7750001 4
v 0.150000006 0 4
v 5.71791332e-25 0 4
v 5.71791332e-25 3 4
v 0.909861207 1.63520813 4
v -0.124807552 0.0832050294 4
v 0.180277571 0 4
v 1.09013879 1.36479187 4
v 5.87606859e-25 0 4
v -0.909861207 1.63520813 4
v 0.124807552 0.0832050294 4
v -0.180277571 0 4
v -1.09013879 1.36479187 4
v -1.38324837e-24 0 4
v -2 -0.150000006 4
v 2 -0.150000006 4
v -1.89999998 0.150000006 4
v 1.89999998 0.150000006 4
v -2 0 4
v 2 0 4
v -2 -0.300000012 3.79999995
v 0 2.70000005 3.79999995
v 2 -0.300000012 3.79999995
v -2 -0.300000012 4.19999981
v 0 2.70000005 4.19999981
v 2 -0.300000012 4.19999981
v -2.33282018 -0.0781199485 3.79999995
v 0 3.42111039 3.79999995
v 0 3.42111039 4.19999981
v -2.33282018 -0.0781199485 4.19999981
v 2.33282018 -0.0781199485 3.79999995
v 2.33282018 -0.0781199485 4.19999981
v -2 0 4.6500001
v 0 3 4.6500001
v 2 0 4.6500001
v 0 3.54083276 4.6500001
v -2.24961519 0.166410044 4.6500001
v 2.24961519 0.166410044 4.6500001
v 2.16640997 -0.249615118 4.6500001
v 2.41602516 -0.0832050741 4.6500001
v -2.16640997 -0.249615118 4.6500001
v -2.41602516 -0.0832050741 4.6500001
v 2 0 4
v 0 3 4
v -2 0 4
v 0 0 4
v 0.25 3.29083276 0
v 0.25 3.79083276 0
v -0.25 3.29083276 0
v -0.25 3.79083276 0
v -2 0 0
v 0 3 0
v 2 0 0
v -2.24961519 0.166410044 0
v 0 3.54083276 0
v 2.24961519 0.166410044 0
v 2.16640997 -0.249615118 0
v 2.41602516 -0.0832050741 0
v -2.16640997 -0.249615118 0
v -2.41602516 -0.0832050741 0
vt 0 0 0
vt 0.49972716 0 0
vt 0.49972716 0.0485171936 0
vt 0 0.0485171936 0
vt 0.1328125 0.243164063 0
vt 0.181329697 0.243164063 0
vt 0.181329697 0.29168126 0
vt 0.1328125 0.29168126 0
vt 0.999454319 0.1015625 0
vt 0.999454319 0.150079697 0
vt 0.49972716 0.150079697 0
vt 0.49972716 0.1015625 0
vt 0.37890625 0.770414531 0
vt 0.670009434 0.770414531 0
vt 0.64817673 0.784969687 0
vt 0.37890625 0.784969687 0
vt 0.135742188 0.420817614 0
vt 0.135742188 0.408203125 0
vt 0.150297359 0.408203125 0
vt 0.150297359 0.420817614 0
vt 0.150297359 0.420817614 0
vt 0.150297359 0.408203125 0
vt 0.164852515 0.408203125 0
vt 0.164852515 0.420817614 0
vt 0.60546875 0.263671875 0
vt 0.60546875 0.263671875 0
vt 0.60546875 0.263671875 0
vt 0.60546875 0.263671875 0
vt 0.60546875 0.263671875 0
vt 0.60546875 0.263671875 0
vt 0.60546875 0.263671875 0
vt 0.60546875 0.263671875 0
vt 0.388609678 0.686523438 0
vt 0.37890625 0.71563375 0
vt 0.37890625 0.701078594 0
vt 0.992020369 0.203125 0
vt 0.992020369 0.215092137 0
vt 0.8203125 0.215092137 0
vt 0.8203125 0.203125 0
vt 0.1953125 0.316654652 0
vt 0.1953125 0.3046875 0
vt 0.346307993 0.3046875 0
vt 0.346307993 0.316654652 0
vt 0.158203125 0.33203125 0
vt 0.172011361 0.33203125 0
vt 0.172011361 0.343998402 0
vt 0.158203125 0.343998402 0
vt 0.994140625 0.263671875 0
vt 0.994140625 0.263671875 0
vt 0.994140625 0.263671875 0
vt 0.994140625 0.263671875 0
vt 0.37890625 0.638578594 0
vt 0.547772825 0.624023438 0
vt 0.388609678 0.624023438 0
vt 0.992020369 0.217773438 0
vt 0.8203125 0.217773438 0
vt 0.8203125 0.229740575 0
vt 0.992020369 0.229740575 0
vt 0.1953125 0.33130309 0
vt 0.346307993 0.33130309 0
vt 0.346307993 0.319335938 0
vt 0.1953125 0.319335938 0
vt 0.158203125 0.346679688 0
vt 0.158203125 0.35864684 0
vt 0.172011361 0.35864684 0
vt 0.172011361 0.346679688 0
vt 0.60546875 0.265625 0
vt 0.60546875 0.265625 0
vt 0.60546875 0.265625 0
vt 0.60546875 0.265625 0
vt 0.615172207 0.273250937 0
vt 0.993606269 0.244140625 0
vt 0.993606269 0.258695781 0
vt 0.983902872 0.273250937 0
vt 0.993164063 0.265625 0
vt 0.993164063 0.265625 0
vt 0.993164063 0.265625 0
vt 0.993164063 0.265625 0
vt 0.60546875 0.244140625 0
vt 0.993606269 0.244140625 0
vt 0.615172207 0.273250937 0
vt 0.60546875 0.258695781 0
vt 0.559902191 0.65313375 0
vt 0.547772825 0.624023438 0
vt 0.37890625 0.638578594 0
vt 0.37890625 0.65313375 0
vt 0.559902191 0.71563375 0
vt 0.37890625 0.71563375 0
vt 0.388609678 0.686523438 0
vt 0.547772825 0.686523438 0
vt 0.64817673 0.755859375 0
vt 0.670009434 0.770414531 0
vt 0.37890625 0.770414531 0
vt 0.37890625 0.755859375 0
vt 0.37890625 0.731364489 0
vt 0.37890625 0.71875 0
vt 0.648176849 0.71875 0
vt 0.648176849 0.731364489 0
vt 0.648176789 0.818359375 0
vt 0.648176789 0.830973864 0
vt 0.37890625 0.830973864 0
vt 0.37890625 0.818359375 0
vt 0.607421875 0.266601563 0
vt 0.607421875 0.266601563 0
vt 0.607421875 0.266601563 0
vt 0.607421875 0.266601563 0
vt 0.60546875 0.267578125 0
vt 0.60546875 0.267578125 0
vt 0.60546875 0.267578125 0
vt 0.60546875 0.267578125 0
vt 0.993606389 0.500883281 0
vt 0.60546875 0.500883281 0
vt 0.60546875 0.486328125 0
vt 0.993606389 0.486328125 0
vt 0.974199474 0.521484375 0
vt 0.974199474 0.536039531 0
vt 0.60546875 0.536039531 0
vt 0.60546875 0.521484375 0
vt 0.991210938 0.267578125 0
vt 0.991210938 0.267578125 0
vt 0.991210938 0.267578125 0
vt 0.991210938 0.267578125 0
vt 0.188383296 0.346586406 0
vt 0.173828125 0.346586406 0
vt 0.173828125 0.33203125 0
vt 0.188383296 0.33203125 0
vt 0.188383281 0.3671875 0
vt 0.188383281 0.381742656 0
vt 0.173828125 0.381742656 0
vt 0.173828125 0.3671875 0
vt 0.37890625 0.837890625 0
vt 0.698039591 0.837890625 0
vt 0.698039591 0.880441725 0
vt 0.37890625 0.880441725 0
vt 0.698039591 0.9253636 0
vt 0.37890625 0.9253636 0
vt 0.37890625 0.8828125 0
vt 0.698039591 0.8828125 0
vt 0.611328125 0.439035445 0
vt 0.611328125 0.396484375 0
vt 0.983568609 0.396484375 0
vt 0.983568609 0.439035445 0
vt 0.982592046 0.44140625 0
vt 0.982592046 0.48395732 0
vt 0.610351563 0.48395732 0
vt 0.610351563 0.44140625 0
vt 0.376376867 0.944771588 0
vt 0.340548843 0.959699929 0
vt 0.18359375 0.583007813 0
vt 0.24181439 0.621821582 0
vt 0.24181439 0.621821582 0
vt 0.18359375 0.583007813 0
vt 0.591676831 0.583007813 0
vt 0.591676831 0.621821582 0
vt 0.12890625 0.40552184 0
vt 0.12890625 0.370117188 0
vt 0.17145735 0.370117188 0
vt 0.17145735 0.40552184 0
vt 0.602939427 0.564888775 0
vt 0.567111373 0.579817116 0
vt 0.41015625 0.20312506 0
vt 0.468376875 0.241938815 0
vt 0.468376875 0.241938815 0
vt 0.41015625 0.20312506 0
vt 0.818239391 0.203125 0
vt 0.818239391 0.241938755 0
vt 0.185129225 0.293945313 0
vt 0.185129225 0.329349965 0
vt 0.142578125 0.329349965 0
vt 0.142578125 0.293945313 0
vt 0.29386887 0.476895541 0
vt 0 0.476895541 0
vt 0 0.263640136 0
vt 0.29386887 0.263640136 0
vt 0.885654509 0.263640136 0
vt 0.901429534 0.274156839 0
vt 0.759259284 0.487412304 0
vt 0.759259284 0.453232944 0
vt 0.759259284 0.453232944 0
vt 0.759259284 0.487412304 0
vt 0.617089033 0.274156839 0
vt 0.632864058 0.263640136 0
vt 0.946555793 0.587737739 0
vt 0.930780768 0.587737739 0
vt 0.930780768 0.29386887 0
vt 0.946555793 0.29386887 0
vt 0.885654509 0.263640136 0
vt 0.896171212 0.247865036 0
vt 0.911946297 0.258381754 0
vt 0.901429534 0.274156839 0
vt 0 0.263640136 0
vt 0 0.247865051 0
vt 0.29386887 0.247865051 0
vt 0.29386887 0.263640136 0
vt 0 0.735707581 0
vt 0 0.719932556 0
vt 0.29386887 0.719932556 0
vt 0.29386887 0.735707581 0
vt 0.617089033 0.274156839 0
vt 0.60657227 0.258381754 0
vt 0.622347355 0.247865036 0
vt 0.632864058 0.263640136 0
vt 0.32154578 0 0
vt 0.32154578 0.48231867 0
vt 0 0 0
vt 0.643091559 0 0
vt 0.32154578 0.48231867 0
vt 0.32154578 0 0
vt 0.49972716 0.05078125 0
vt 0.999454319 0.05078125 0
vt 0.999454319 0.0992984399 0
vt 0.49972716 0.0992984399 0
vt 0.49972716 0.15234375 0
vt 0.49972716 0.200860947 0
vt 0 0.200860947 0
vt 0 0.15234375 0
vt 0.29386887 0.735707581 0
vt 0.29386887 0.925300419 0
vt 0 0.925300419 0
vt 0 0.735707581 0
vt 0.29386887 0.701097965 0
vt 0.29386887 0.511505127 0
vt 0.587737739 0.511505127 0
vt 0.587737739 0.701097965 0
vt 0.29386887 0.015775077 0
vt 0.587737739 0.015775077 0
vt 0.587737739 0.229030505 0
vt 0.29386887 0.229030505 0
vt 0.965390384 0.29386887 0
vt 0.981165469 0.29386887 0
vt 0.981165469 0.587737739 0
vt 0.965390384 0.587737739 0
vt 0.29386887 0.511505127 0
vt 0.29386887 0.495730042 0
vt 0.587737739 0.495730042 0
vt 0.587737739 0.511505127 0
vt 0.29386887 0.015775077 0
vt 0.29386887 0 0
vt 0.587737739 0 0
vt 0.587737739 0.015775077 0
vn 1 -0 -0
vn 1 0 0
vn 1 0 0
vn 1 -0 -0
vn -0 -0 1
vn 0 0 1
vn -0 -0 1
vn -0 -0 1
vn 0 -1 -0
vn -0 -1 -0
vn 0 -1 0
vn 0 -1 0
vn 0 0 1
vn -0 -0 1
vn -0 -0 1
vn -0 -0 1
vn -0 -1 -0
vn 0 -1 -0
vn 0 -1 0
vn -0 -1 -0
vn -0 -1 -0
vn 0 -1 0
vn -0 -1 -0
vn -0 -1 0
vn -0.832050204 0.554700375 -1.01896681e-16
vn -0.832050204 0.554700375 -1.01896681e-16
vn -0.957092047 0.289784253 -0
vn -0.957092047 0.289784253 0
vn 0.832050204 0.554700375 1.01896681e-16
vn 0.832050204 0.554700375 1.01896681e-16
vn 0.957092047 0.289784253 -0
vn 0.957092047 0.289784253 0
vn 0 0 1
vn 0 0 1
vn 0 0 1
vn -0.832050323 0.554700255 -0
vn -0.832050323 0.554700255 -0
vn -0.832050323 0.554700255 -0
vn -0.832050264 0.554700196 -0
vn 0.471857935 -0.881674528 -0
vn 0.471857935 -0.881674528 -0
vn 0.832050264 -0.554700196 -0
vn 0.832050264 -0.554700196 -0
vn -0.192212954 -0.981353164 -2.35392756e-17
vn -0.554700196 -0.832050323 0
vn -0.554700196 -0.832050323 0
vn -0.289784163 -0.957092106 -3.54882916e-17
vn 0.471857935 -0.881674528 -0
vn 0.471857935 -0.881674528 -0
vn -0.192212954 -0.981353164 -2.35392756e-17
vn -0.289784163 -0.957092106 -3.54882916e-17
vn 0 0 1
vn 0 0 1
vn 0 0 1
vn 0.832050323 0.554700255 0
vn 0.832050323 0.554700255 -0
vn 0.832050323 0.554700255 -0
vn 0.832050323 0.554700255 0
vn -0.471857935 -0.881674528 -0
vn -0.832050264 -0.554700196 0
vn -0.832050264 -0.554700196 0
vn -0.471857935 -0.881674528 0
vn 0.554700196 -0.832050323 6.79311093e-17
vn 0.289784163 -0.957092106 3.54882883e-17
vn 0.554700196 -0.832050323 -0
vn 0.554700196 -0.832050323 -0
vn -0.832050204 0.554700375 -0
vn -0.832050204 0.554700375 -0
vn -0.832050204 0.554700375 -0
vn -0.832050204 0.554700375 -0
vn -0 -0 1
vn 0 0 1
vn -0 -0 1
vn -0 -0 1
vn 0.957092047 0.289784193 -0
vn 0.957092047 0.289784193 0
vn 0.471857876 0.881674647 0
vn 0.471857876 0.881674647 0
vn -0 -0 1
vn 0 0 1
vn -0 -0 1
vn -0 -0 1
vn -0 -0 1
vn 0 0 1
vn 0 0 1
vn -0 0 1
vn -0 -0 1
vn 0 0 1
vn 0 0 1
vn -0 0 1
vn -0 -0 1
vn -0 -0 1
vn 0 0 1
vn 0 0 1
vn -1 0 -0
vn -1 -0 -0
vn -0.957092047 0.289784253 0
vn -0.957092047 0.289784253 -0
vn 0.957092047 0.289784253 0
vn 0.957092047 0.289784253 -0
vn 1 -0 -0
vn 1 -0 -0
vn 0.832050204 0.554700375 -0
vn 0.832050204 0.554700375 0
vn 0.832050204 0.554700375 0
vn 0.832050204 0.554700375 -0
vn -0.471857935 -0.881674528 0
vn 0.289784163 -0.957092106 3.54882883e-17
vn -0.192212954 -0.981353164 -2.35392756e-17
vn -0.471857935 -0.881674528 -0
vn -0 -1 0
vn -0 -1 -0
vn 0 -1 -0
vn -0 -1 -0
vn -0.471857876 0.881674647 -0
vn -0.471857876 0.881674647 0
vn 0.471857876 0.881674647 0
vn 0.471857876 0.881674647 0
vn -0.471857876 0.881674647 0
vn -0.471857876 0.881674647 -0
vn -0.957092047 0.289784193 -0
vn -0.957092047 0.289784193 0
vn -0.957092047 0.289784193 0
vn -0.957092047 0.289784193 -0
vn -1 0 -0
vn -1 -0 -0
vn 1 -0 -0
vn 0.957092047 0.289784193 0
vn 0.957092047 0.289784193 -0
vn 1 -0 -0
vn 0.832050323 -0.554700196 -0
vn 0.832050323 -0.554700196 -0
vn 0.832050323 -0.554700196 -0
vn 0.832050323 -0.554700196 -0
vn -0.832050323 -0.554700196 0
vn -0.832050323 -0.554700196 -0
vn -0.832050323 -0.554700196 -0
vn -0.832050323 -0.554700196 0
vn -0.832050323 0.554700196 -0
vn -0.832050323 0.554700196 -0
vn -0.832050323 0.554700196 -0
vn -0.832050323 0.554700196 -0
vn 0.832050323 0.554700196 0
vn 0.832050323 0.554700196 0
vn 0.832050323 0.554700196 -0
vn 0.832050323 0.554700196 -0
vn 0 -0 -1
vn -0 -0 -1
vn -0 0 -1
vn -0 -0 -1
vn -0 -0 -1
vn -0 0 -1
vn -0 0 -1
vn 0 -0 -1
vn 0.554700136 -0.832050323 -0
vn 0.554700136 -0.832050323 -0
vn 0.554700136 -0.832050323 -0
vn 0.554700136 -0.832050323 -0
vn 0 -0 1
vn -0 0 1
vn -0 -0 1
vn -0 0 1
vn -0 0 1
vn -0 -0 1
vn -0 -0 1
vn 0 -0 1
vn -0.554700136 -0.832050323 -0
vn -0.554700136 -0.832050323 0
vn -0.554700136 -0.832050323 0
vn -0.554700136 -0.832050323 -0
vn 0.832050323 0.554700196 0
vn 0.832050323 0.554700196 0
vn 0.832050443 0.554700077 0
vn 0.832050443 0.554700077 0
vn 0 -0 1
vn -0 0 1
vn -0 -0 1
vn -0 0 1
vn -0 0 1
vn -0 -0 1
vn -0 -0 1
vn 0 0 1
vn -0.554700017 -0.832050443 -0
vn -0.554700017 -0.832050443 0
vn -0.554700017 -0.832050443 0
vn -0.554700017 -0.832050443 0
vn 0 -0 1
vn 0 -0 1
vn -0 0 1
vn -0 0 1
vn 0.832050443 0.554700077 0
vn 0.832050502 0.554699957 -0
vn 0.832050502 0.554699957 0
vn 0.832050443 0.554700077 0
vn 0.832050443 -0.554700077 -0
vn 0.832050502 -0.554699957 -0
vn 0.832050502 -0.554699957 0
vn 0.832050443 -0.554700077 0
vn -0 -0 1
vn -0 -0 1
vn 0 -0 1
vn 0 0 1
vn 0 0 1
vn 0 0 1
vn 0 0 0.99999994
vn 0 0 0.99999994
vn 0 0 1
vn 0 0 1
vn -1 0 0
vn -1 -0 -0
vn -1 -0 0
vn -1 0 0
vn 0 1 0
vn 0 1 0
vn 0 1 0
vn -0 1 -0
vn 0.832050443 -0.554700077 0
vn 0.832050323 -0.554700196 0
vn 0.832050323 -0.554700196 -0
vn 0.832050443 -0.554700077 -0
vn -0.832050323 -0.554700196 0
vn -0.832050443 -0.554700077 0
vn -0.832050443 -0.554700077 0
vn -0.832050323 -0.554700196 0
vn -0.832050443 0.554700077 0
vn -0.832050443 0.554700077 -0
vn -0.832050323 0.554700196 -0
vn -0.832050323 0.554700196 0
vn 0.554700017 -0.832050443 0
vn 0.554700017 -0.832050443 0
vn 0.554700017 -0.832050443 -0
vn 0.554700017 -0.832050443 -0
vn -0.832050443 -0.554700077 0
vn -0.832050502 -0.554699957 0
vn -0.832050502 -0.554699957 -0
vn -0.832050443 -0.554700077 0
vn -0.832050443 0.554700077 0
vn -0.832050502 0.554699957 0
vn -0.832050502 0.554699957 -0
vn -0.832050443 0.554700077 -0
g woodBits
f 1/1/1 74/2/2 75/3/3 3/4/4
f 2/5/5 1/6/6 3/7/7 4/8/8
f 1/9/9 2/10/10 76/11/11 74/12/12
f 7/13/13 10/14/14 9/15/15 8/16/16
f 29/17/17 6/18/18 7/19/19 30/20/20
f 30/21/21 7/22/22 8/23/23 26/24/24
f 10/25/25 31/26/26 27/27/27 9/28/28
f 31/29/29 10/30/30 5/31/31 28/32/32
f 13/33/33 15/34/34 14/35/35
f 11/36/36 32/37/37 33/38/38 15/39/39
f 13/40/40 34/41/41 35/42/42 12/43/43
f 14/44/44 15/45/45 33/46/46 36/47/47
f 34/48/48 13/49/49 14/50/50 36/51/51
f 14/52/52 17/53/53 18/54/54
f 16/55/55 19/56/56 38/57/57 37/58/58
f 18/59/59 17/60/60 40/61/61 39/62/62
f 14/63/63 41/64/64 38/65/65 19/66/66
f 40/67/67 17/68/68 16/69/69 37/70/70
f 23/71/71 21/72/72 25/73/73 24/74/74
f 25/75/75 47/76/76 45/77/77 24/78/78
f 20/79/79 21/80/80 23/81/81 22/82/82
f 16/83/83 17/84/84 14/85/85 19/86/86
f 11/87/87 15/88/88 13/89/89 12/90/90
f 5/91/91 10/92/92 7/93/93 6/94/94
f 26/95/95 8/96/96 9/97/97 27/98/98
f 28/99/99 5/100/100 6/101/101 29/102/102
f 35/103/103 32/104/104 11/105/105 12/106/106
f 39/107/107 41/108/108 14/109/109 18/110/110
f 42/111/111 43/112/112 21/113/113 20/114/114
f 44/115/115 23/116/116 24/117/117 45/118/118
f 23/119/119 44/120/120 46/121/121 22/122/122
f 22/123/123 46/124/124 42/125/125 20/126/126
f 43/127/127 47/128/128 25/129/129 21/130/130
f 48/131/131 49/132/132 52/133/133 51/134/134
f 49/135/135 50/136/136 53/137/137 52/138/138
f 54/139/139 57/140/140 56/141/141 55/142/142
f 55/143/143 56/144/144 59/145/145 58/146/146
f 48/147/147 54/148/148 55/149/149 49/150/150
f 49/151/151 55/152/152 58/153/153 50/154/154
f 50/155/155 58/156/156 59/157/157 53/158/158
f 53/159/159 59/160/160 56/161/161 52/162/162
f 52/163/163 56/164/164 57/165/165 51/166/166
f 51/167/167 57/168/168 54/169/169 48/170/170
f 76/209/209 2/210/210 4/211/211 77/212/212
f 75/213/213 77/214/214 4/215/215 3/216/216
g roofBits
f 82/171/171 63/172/172 65/173/173 83/174/174
f 62/175/175 65/176/176 63/177/177 61/178/178
f 61/179/179 63/180/180 64/181/181 60/182/182
f 68/183/183 69/184/184 87/185/185 86/186/186
f 62/187/187 66/188/188 67/189/189 65/190/190
f 65/191/191 67/192/192 85/193/193 83/194/194
f 60/195/195 68/196/196 86/197/197 78/198/198
f 64/199/199 69/200/200 68/201/201 60/202/202
f 78/217/217 79/218/218 61/219/219 60/220/220
f 79/221/221 80/222/222 62/223/223 61/224/224
f 81/225/225 64/226/226 63/227/227 82/228/228
f 84/229/229 85/230/230 67/231/231 66/232/232
f 80/233/233 84/234/234 66/235/235 62/236/236
f 81/237/237 87/238/238 69/239/239 64/240/240
g wallBits
f 73/203/203 71/204/204 72/205/205
f 70/206/206 71/207/207 73/208/208
