# File exported by Houdini 16.5.496 (www.sidefx.com)
# 28 points
# 56 vertices
# 14 primitives
# Bounds: [-5.18380928, -0.685364604, -2.00000024] to [5.18380928, 4.66197491, 2.00000024]
g 
v 0.25 4.16197491 -2.00000024
v 0.25 4.66197491 -1.99999976
v -0.25 4.16197491 -1.99999976
v -0.25 4.66197491 -2.00000024
v -4.25 0 -2
v 0 4 -1.99999952
v 4.25 0 -1.99999952
v -4.45560932 0.218459994 -1.99999952
v 0 4.41197491 -2
v 4.45560932 0.218459994 -2
v 4.97819996 -0.685364604 -2
v 5.18380928 -0.46690461 -1.99999952
v -4.97819996 -0.685364604 -1.99999952
v -5.18380928 -0.46690461 -2
v 0.25 4.16197491 1.99999976
v 0.25 4.66197491 1.99999964
v -0.25 4.16197491 2
v 0 4.41197491 1.99999964
v 4.45560932 0.218459994 2.00000024
v -4.97819996 -0.685364604 1.99999988
v -5.18380928 -0.46690461 2.00000024
v 5.18380928 -0.46690461 1.99999988
v -4.25 0 1.99999964
v -0.25 4.66197491 1.99999976
v 0 4 1.99999988
v 4.25 0 1.99999988
v -4.45560932 0.218459994 1.99999988
v 4.97819996 -0.685364604 2.00000024
vt 0.239515275 0.411219984 0
vt 0.239515275 0.226402029 0
vt 0.445384443 0.226402014 0
vt 0.445384443 0.411219984 0
vt 0.632638872 0.072265625 0
vt 0.632638872 0.105916627 0
vt 0.363430858 0.105916627 0
vt 0.363430887 0.072265625 0
vt 0.533646107 0.226402014 0
vt 0.730015218 0.226402029 0
vt 0.730015218 0.411219984 0
vt 0.533646107 0.411219954 0
vt 0.730015218 0.226402029 0
vt 0.92638433 0.226402029 0
vt 0.92638433 0.411219984 0
vt 0.730015218 0.411219984 0
vt 0.0336461104 0.411219954 0
vt 0.0336461104 0.226402014 0
vt 0.239515275 0.226402029 0
vt 0.239515275 0.411219984 0
vt 0.411219984 0.946144164 0
vt 0.411219954 0.956237972 0
vt 0.226402014 0.956237972 0
vt 0.226402014 0.946144164 0
vt 0.92638433 0.226402029 0
vt 0.960030437 0.226402014 0
vt 0.960030437 0.411219984 0
vt 0.92638433 0.411219984 0
vt 0.0336461104 0.411219954 0
vt 0 0.411219984 0
vt 0 0.226402014 0
vt 0.0336461104 0.226402014 0
vt 0.363431036 0 0
vt 0.63263917 0 0
vt 0.63263917 0.0336509869 0
vt 0.363431036 0.0336509869 0
vt 0.632638812 0.108398438 0
vt 0.632638812 0.142049447 0
vt 0.363430828 0.142049447 0
vt 0.363430798 0.108398438 0
vt 0.411219984 0.915080845 0
vt 0.411219984 0.925174713 0
vt 0.226402014 0.925174713 0
vt 0.226402029 0.915080845 0
vt 0.445384443 0.226402014 0
vt 0.47903055 0.226402014 0
vt 0.47903055 0.411219954 0
vt 0.445384443 0.411219984 0
vt 0.533646107 0.411219954 0
vt 0.5 0.411219984 0
vt 0.5 0.226402029 0
vt 0.533646107 0.226402014 0
vt 0.363431036 0.0361328125 0
vt 0.63263917 0.0361328125 0
vt 0.63263917 0.0697837994 0
vt 0.363431007 0.0697837994 0
vn 0.685364783 0.728199959 0
vn 0.685364783 0.728199959 0
vn 0.685364723 0.728199959 0
vn 0.685364723 0.728199959 0
vn 0 1 0
vn 0 1 0
vn 0 1 0
vn 0 1 0
vn 0.685364723 -0.728200078 0
vn 0.685364723 -0.728200078 0
vn 0.685364723 -0.728200078 0
vn 0.685364723 -0.728200078 0
vn -0.685364723 -0.728200078 0
vn -0.685364723 -0.728200078 0
vn -0.685364723 -0.728200078 0
vn -0.685364723 -0.728200078 0
vn -0.685364723 0.728199959 0
vn -0.685364723 0.728199959 0
vn -0.685364783 0.728199959 0
vn -0.685364783 0.728199959 0
vn 0.728200138 -0.685364604 0
vn 0.728200138 -0.685364604 0
vn 0.728200138 -0.685364604 0
vn 0.728200138 -0.685364604 0
vn -0.685364723 -0.728200078 0
vn -0.685364664 -0.728200078 0
vn -0.685364664 -0.728200078 0
vn -0.685364723 -0.728200078 0
vn -0.685364723 0.728199959 0
vn -0.685364664 0.728200078 0
vn -0.685364664 0.728200078 0
vn -0.685364723 0.728199959 0
vn 1 0 0
vn 1 0 0
vn 1 0 0
vn 1 0 0
vn 0 -1 0
vn 0 -1 0
vn 0 -1 0
vn 0 -1 0
vn -0.728200138 -0.685364604 0
vn -0.728200138 -0.685364604 0
vn -0.728200138 -0.685364604 0
vn -0.728200138 -0.685364604 0
vn 0.685364723 0.728199959 0
vn 0.685364664 0.728200078 0
vn 0.685364664 0.728200078 0
vn 0.685364723 0.728199959 0
vn 0.685364723 -0.728200078 0
vn 0.685364664 -0.728200078 0
vn 0.685364664 -0.728200078 0
vn 0.685364723 -0.728200078 0
vn -1 0 0
vn -1 0 0
vn -1 0 0
vn -1 0 0
g roofBits
f 9/1/1 18/2/2 19/3/3 10/4/4
f 5/9/9 6/10/10 25/11/11 23/12/12
f 6/13/13 7/14/14 26/15/15 25/16/16
f 8/17/17 27/18/18 18/19/19 9/20/20
f 11/21/21 12/22/22 22/23/23 28/24/24
f 7/25/25 11/26/26 28/27/27 26/28/28
f 8/29/29 14/30/30 21/31/31 27/32/32
f 20/41/41 21/42/42 14/43/43 13/44/44
f 19/45/45 22/46/46 12/47/47 10/48/48
f 23/49/49 20/50/50 13/51/51 5/52/52
g woodBits
f 2/5/5 4/6/6 24/7/7 16/8/8
f 15/33/33 1/34/34 2/35/35 16/36/36
f 15/37/37 17/38/38 3/39/39 1/40/40
f 3/53/53 17/54/54 24/55/55 4/56/56
