# File exported by Houdini 16.5.496 (www.sidefx.com)
# 83 points
# 240 vertices
# 61 primitives
# Bounds: [-3.00173402, -0.93625015, -2.00000048] to [3.00173402, 4.86191845, 3.4000001]
g 
v 0.25 4.36191845 3.4000001
v -0.25 4.36191845 3.4000001
v 0.25 4.86191845 3.4000001
v -0.25 4.86191845 3.4000001
v -0.150000006 1.39077505e-08 2.33500004
v -0.150000006 3.73333335 2.33500004
v -1.04094973e-17 4 2.33500004
v 0.150000006 3.73333335 2.33500004
v 0.150000006 1.39077505e-08 2.33500004
v -1.04094973e-17 1.49011612e-08 2.33500004
v 1.03894889 2.15297961 2.32200003
v 1.21105099 1.84702039 2.32200003
v 0.172102138 1.37613734e-08 2.32200003
v -8.81745582e-18 1.49011612e-08 2.32200003
v -0.130736336 0.07353919 2.32200003
v -1.03894889 2.15297961 2.32200003
v -1.21105099 1.84702039 2.32200003
v -0.172102138 1.37613734e-08 2.32200003
v 0.130736336 0.07353919 2.32200003
v -0.150000006 3.73333335 2.20499992
v -0.150000006 1.39077505e-08 2.20499992
v 0.150000006 3.73333335 2.20499992
v 0.150000006 1.39077505e-08 2.20499992
v 5.51091133e-18 4 2.20499992
v 5.51091051e-18 1.49011612e-08 2.20499992
v 1.03894889 2.15297961 2.20499992
v -0.130736336 0.07353919 2.20499992
v 0.172102138 1.37613734e-08 2.20499992
v 1.21105099 1.84702039 2.20499992
v -1.1479413e-08 1.49011612e-08 2.20499992
v -1.03894889 2.15297961 2.20499992
v 0.130736336 0.07353919 2.20499992
v -0.172102138 1.37613734e-08 2.20499992
v -1.21105099 1.84702039 2.20499992
v -1.14794121e-08 1.49011612e-08 2.20499992
v -2.25 -0.300000012 2.05000019
v 0 3.70000005 2.05000019
v 2.25 -0.300000012 2.05000019
v -2.25 -0.300000012 2.44999981
v 0 3.70000005 2.44999981
v 2.25 -0.300000012 2.44999981
v -2.59863019 -0.1038955 2.05000019
v 0 4.51589155 2.05000019
v 0 4.51589155 2.44999981
v -2.59863019 -0.1038955 2.44999981
v 2.59863019 -0.1038955 2.05000019
v 2.59863019 -0.1038955 2.44999981
v 2.60789084 -0.93625015 2.05000019
v 2.60789084 -0.93625015 2.44999981
v 2.95652103 -0.740145624 2.44999981
v 2.95652103 -0.740145624 2.05000019
v -2.60789084 -0.93625015 2.44999981
v -2.60789084 -0.93625015 2.05000019
v -2.95652103 -0.740145624 2.05000019
v -2.95652103 -0.740145624 2.44999981
v -2.25 0 2.9000001
v 0 4 2.9000001
v 2.25 0 2.9000001
v 0 4.61191845 2.9000001
v -2.5114727 0.14707838 2.9000001
v 2.5114727 0.14707838 2.9000001
v 2.74026132 -0.871575654 2.9000001
v 3.00173402 -0.724497259 2.9000001
v -2.74026132 -0.871575654 2.9000001
v -3.00173402 -0.724497259 2.9000001
v 2.25 0 2.25
v 0 4 2.25
v -2.25 0 2.25
v 0 1.49011612e-08 2.25
v 0.25 4.36191845 -2.00000024
v 0.25 4.86191845 -1.99999976
v -0.25 4.36191845 -1.99999976
v -0.25 4.86191845 -2.00000024
v -2.25 0 -2.00000048
v 0 4 -2
v 2.25 0 -2
v -2.5114727 0.14707838 -2
v 0 4.61191845 -2.00000048
v 2.5114727 0.14707838 -2.00000048
v 2.74026132 -0.871575654 -2.00000048
v 3.00173402 -0.724497259 -2
v -2.74026132 -0.871575654 -2
v -3.00173402 -0.724497259 -2.00000048
vt 0 0 0
vt 0.363883078 0 0
vt 0.363883048 0.0336928368 0
vt 0 0.0336928368 0
vt 0.174804688 0.258789063 0
vt 0.208497539 0.258789063 0
vt 0.208497539 0.292481929 0
vt 0.174804688 0.292481929 0
vt 0.997308493 0.108398438 0
vt 0.997308493 0.142091289 0
vt 0.633425653 0.142091289 0
vt 0.633425653 0.108398438 0
vt 0.505870938 0.659521937 0
vt 0.236328125 0.659521937 0
vt 0.236328125 0.649414063 0
vt 0.487901419 0.649414063 0
vt 0.487901568 0.714814842 0
vt 0.236328125 0.714814842 0
vt 0.236328125 0.706054688 0
vt 0.487901568 0.706054688 0
vt 0.505859375 0.663085938 0
vt 0.505859375 0.663085938 0
vt 0.505859375 0.663085938 0
vt 0.505859375 0.663085938 0
vt 0.505859375 0.663085938 0
vt 0.505859375 0.663085938 0
vt 0.505859375 0.663085938 0
vt 0.505859375 0.663085938 0
vt 0.242013797 0.568359375 0
vt 0.236328125 0.588575125 0
vt 0.236328125 0.57846725 0
vt 0.388849527 0.61328125 0
vt 0.388849527 0.621591866 0
vt 0.236328125 0.621591866 0
vt 0.236328125 0.61328125 0
vt 0.174804688 0.397959054 0
vt 0.174804688 0.389648438 0
vt 0.310278684 0.389648438 0
vt 0.310278684 0.397959054 0
vt 0.22265625 0.260742188 0
vt 0.232245415 0.260742188 0
vt 0.232245415 0.269052804 0
vt 0.22265625 0.269052804 0
vt 0.236328125 0.533545375 0
vt 0.384815872 0.5234375 0
vt 0.242013797 0.5234375 0
vt 0.327326089 0.41796875 0
vt 0.174804688 0.41796875 0
vt 0.174804688 0.426279366 0
vt 0.327326089 0.426279366 0
vt 0.174804688 0.408701241 0
vt 0.310278684 0.408701241 0
vt 0.310278684 0.400390625 0
vt 0.174804688 0.400390625 0
vt 0.2109375 0.2421875 0
vt 0.2109375 0.250498116 0
vt 0.220526665 0.250498116 0
vt 0.220526665 0.2421875 0
vt 0.50390625 0.6640625 0
vt 0.50390625 0.6640625 0
vt 0.50390625 0.6640625 0
vt 0.50390625 0.6640625 0
vt 0.501953125 0.665039063 0
vt 0.501953125 0.665039063 0
vt 0.501953125 0.665039063 0
vt 0.501953125 0.665039063 0
vt 0.397099674 0.54365319 0
vt 0.384815872 0.5234375 0
vt 0.236328125 0.533545375 0
vt 0.236328125 0.54365325 0
vt 0.397099674 0.588575065 0
vt 0.236328125 0.588575125 0
vt 0.242013797 0.568359375 0
vt 0.384815872 0.568359375 0
vt 0.236328125 0.669629753 0
vt 0.236328125 0.659521937 0
vt 0.505870938 0.659521937 0
vt 0.487901419 0.669629753 0
vt 0.487901628 0.638642967 0
vt 0.236328125 0.638642967 0
vt 0.236328125 0.629882813 0
vt 0.487901628 0.629882813 0
vt 0.505859375 0.665039063 0
vt 0.505859375 0.665039063 0
vt 0.505859375 0.665039063 0
vt 0.505859375 0.665039063 0
vt 0.505859375 0.665039063 0
vt 0.505859375 0.665039063 0
vt 0.505859375 0.665039063 0
vt 0.505859375 0.665039063 0
vt 0.5 0.666015625 0
vt 0.5 0.666015625 0
vt 0.5 0.666015625 0
vt 0.5 0.666015625 0
vt 0.50390625 0.666015625 0
vt 0.50390625 0.666015625 0
vt 0.50390625 0.666015625 0
vt 0.50390625 0.666015625 0
vt 0.691432178 0.5234375 0
vt 0.980151176 0.5234375 0
vt 0.980151176 0.552309394 0
vt 0.691432178 0.552309394 0
vt 0.980151176 0.583559394 0
vt 0.691432178 0.583559394 0
vt 0.691432178 0.5546875 0
vt 0.980151176 0.5546875 0
vt 0.275416553 0.893129706 0
vt 0.275416553 0.864257813 0
vt 0.608871639 0.864257813 0
vt 0.608871639 0.893129706 0
vt 0.990707576 0.875 0
vt 0.990707576 0.903871894 0
vt 0.657252491 0.903871894 0
vt 0.657252491 0.875 0
vt 0.617693067 0.785387814 0
vt 0.594657958 0.799384832 0
vt 0.409179688 0.494140744 0
vt 0.457098424 0.521094978 0
vt 0.457098424 0.521094978 0
vt 0.409179688 0.494140744 0
vt 0.76635772 0.494140625 0
vt 0.76635772 0.521094978 0
vt 0.607035995 0.200567394 0
vt 0.630071163 0.186570361 0
vt 0.815549374 0.491814584 0
vt 0.767630637 0.464860231 0
vt 0.767630637 0.464860231 0
vt 0.815549374 0.491814584 0
vt 0.458371282 0.491814554 0
vt 0.458371282 0.46486026 0
vt 0.174804688 0.320085913 0
vt 0.174804688 0.294921875 0
vt 0.203676566 0.294921875 0
vt 0.203676566 0.320085913 0
vt 0.203676566 0.322265625 0
vt 0.203676566 0.347429663 0
vt 0.174804688 0.347429663 0
vt 0.174804688 0.322265625 0
vt 0.691432178 0.583559394 0
vt 0.645507813 0.583559394 0
vt 0.645507813 0.5546875 0
vt 0.691432178 0.5546875 0
vt 0.607035995 0.200567394 0
vt 0.58149147 0.158528268 0
vt 0.60452652 0.14453125 0
vt 0.630071163 0.186570361 0
vt 0.657252491 0.903871894 0
vt 0.611328125 0.903871894 0
vt 0.611328125 0.875 0
vt 0.657252491 0.875 0
vt 0.76635772 0.494140625 0
vt 0.815549314 0.494140625 0
vt 0.815549314 0.521094918 0
vt 0.76635772 0.521094978 0
vt 0.691432178 0.552309394 0
vt 0.645507813 0.552309394 0
vt 0.645507813 0.5234375 0
vt 0.691432178 0.5234375 0
vt 0.617693067 0.785387814 0
vt 0.64323765 0.82742691 0
vt 0.620202541 0.841423929 0
vt 0.594657958 0.799384832 0
vt 0.275416553 0.893129706 0
vt 0.229492188 0.893129706 0
vt 0.229492188 0.864257813 0
vt 0.275416553 0.864257813 0
vt 0.458371282 0.491814554 0
vt 0.409179688 0.491814584 0
vt 0.409179688 0.46486026 0
vt 0.458371282 0.46486026 0
vt 0.213958696 0.484878004 0
vt 0 0.484878004 0
vt 0 0.289920628 0
vt 0.213958696 0.289920628 0
vt 0.850743115 0.289920628 0
vt 0.862160325 0.29634282 0
vt 0.752496779 0.491300195 0
vt 0.752496779 0.464580774 0
vt 0.752496779 0.464580774 0
vt 0.752496779 0.491300195 0
vt 0.642833233 0.29634282 0
vt 0.654250503 0.289920628 0
vt 0.913833261 0.602577507 0
vt 0.90241605 0.602577507 0
vt 0.90241605 0.388618797 0
vt 0.913833261 0.388618827 0
vt 0.850743115 0.289920628 0
vt 0.872150421 0.251863211 0
vt 0.883567631 0.258285403 0
vt 0.862160325 0.29634282 0
vt 0 0.289920628 0
vt 0 0.251863211 0
vt 0.213958681 0.251863211 0
vt 0.213958696 0.289920628 0
vt 0 0.806491435 0
vt 0 0.768434048 0
vt 0.213958681 0.768434048 0
vt 0.213958696 0.806491435 0
vt 0.642833233 0.29634282 0
vt 0.621425986 0.258285403 0
vt 0.632843196 0.251863211 0
vt 0.654250503 0.289920628 0
vt 0.272087842 1.80196658e-09 0
vt 0.272087842 0.48371172 0
vt 0 0 0
vt 0.544175684 0 0
vt 0.272087842 0.48371172 0
vt 0.272087842 1.80196658e-09 0
vt 0.63342607 0.0361328125 0
vt 0.997309089 0.0361328125 0
vt 0.997309089 0.0698256493 0
vt 0.633426011 0.0698256493 0
vt 0.363882869 0.072265625 0
vt 0.363882899 0.105958477 0
vt 0 0.105958477 0
vt 0 0.072265625 0
vt 0.213958696 0.806491435 0
vt 0.213958681 0.981151581 0
vt 0 0.981151581 0
vt 0 0.806491435 0
vt 0.388618827 0.716443956 0
vt 0.388618827 0.54178381 0
vt 0.602577507 0.54178381 0
vt 0.602577507 0.716443956 0
vt 0.388618827 0.0380573831 0
vt 0.602577507 0.0380573831 0
vt 0.602577507 0.233014792 0
vt 0.388618797 0.233014792 0
vt 0.932681739 0.388618797 0
vt 0.944098949 0.388618827 0
vt 0.944098949 0.602577507 0
vt 0.932681739 0.602577507 0
vt 0.388618827 0.54178381 0
vt 0.388618797 0.503726423 0
vt 0.602577507 0.503726423 0
vt 0.602577507 0.54178381 0
vt 0.388618827 0.0380573831 0
vt 0.388618797 0 0
vt 0.602577507 0 0
vt 0.602577507 0.0380573831 0
vn 1 -0 -0
vn 1 0 0
vn 1 0 0
vn 1 -0 -0
vn -0 -0 1
vn 0 0 1
vn -0 -0 1
vn -0 -0 1
vn 0 -1 -0
vn -0 -1 -0
vn 0 -1 0
vn 0 -1 0
vn -0 -0 1
vn -0 0 1
vn 0 0 1
vn -0 -0 1
vn 0.967361271 0.253401369 -0
vn 1 -0 -0
vn 1 -0 -0
vn 0.967361271 0.253401369 0
vn -0.871575534 0.490261286 -1.06737123e-16
vn -0.871575534 0.490261286 -1.06737123e-16
vn -0.967361271 0.253401369 -0
vn -0.967361271 0.253401369 0
vn 0.871575534 0.490261286 1.06737123e-16
vn 0.871575534 0.490261286 1.06737123e-16
vn 0.967361271 0.253401369 -0
vn 0.967361271 0.253401369 0
vn 0 0 1
vn 0 0 1
vn 0 0 1
vn -0.871575534 0.490261257 -0
vn -0.871575534 0.490261257 -0
vn -0.871575534 0.490261257 -0
vn -0.871575534 0.490261257 -0
vn 0.871575594 -0.490261257 -0
vn 0.871575594 -0.490261257 -0
vn 1 6.53050094e-08 -0
vn 1 6.53050094e-08 -0
vn 1.01373132e-08 -0.99999994 3.60149713e-23
vn -0.490261137 -0.871575594 0
vn -0.490261227 -0.871575594 0
vn -0.253401309 -0.967361271 2.48623593e-08
vn 0 0 1
vn 0 0 1
vn 0 0 1
vn 0.871575534 0.490261257 0
vn 0.871575534 0.490261257 -0
vn 0.871575534 0.490261257 -0
vn 0.871575534 0.490261257 0
vn -0.871575594 -0.490261257 -0
vn -1 6.53050094e-08 0
vn -1 6.53050094e-08 0
vn -0.871575594 -0.490261257 -0
vn 1.01373132e-08 -0.99999994 3.60149713e-23
vn 0.25340122 -0.967361271 -2.48623468e-08
vn 0.490261108 -0.871575654 -0
vn 0.490261137 -0.871575594 -0
vn -1 6.53050094e-08 0
vn -0.871575534 0.490261316 -0
vn -0.871575534 0.490261316 -0
vn -1 6.53050094e-08 0
vn 0.25340122 -0.967361271 -2.48623468e-08
vn 1.01373132e-08 -0.99999994 3.60149713e-23
vn 6.62274147e-09 -1 -0
vn 6.62274147e-09 -1 -0
vn -0 -0 1
vn 0 0 1
vn 0 0 1
vn -0 0 1
vn -0 -0 1
vn 0 0 1
vn 0 0 1
vn -0 0 1
vn 0 -0 1
vn -0 0 1
vn -0 -0 1
vn -0 -0 1
vn -0.967361271 0.253401369 -0
vn -1 0 -0
vn -1 -0 -0
vn -0.967361271 0.253401369 0
vn 0 -1 0
vn 0 -1 0
vn 6.62273791e-09 -1 -0
vn 6.62273791e-09 -1 -0
vn 0 -1 0
vn -6.62273791e-09 -1 -0
vn -6.62273791e-09 -1 -0
vn 0 -1 0
vn 1 6.53050094e-08 -0
vn 1 6.53050094e-08 -0
vn 0.871575534 0.490261316 0
vn 0.871575534 0.490261316 0
vn -0.253401309 -0.967361271 2.48623593e-08
vn -6.62274058e-09 -1 -0
vn -6.62274147e-09 -1 -0
vn 1.01373132e-08 -0.99999994 3.60149713e-23
vn 0.871575534 -0.490261346 -0
vn 0.871575534 -0.490261257 -0
vn 0.871575534 -0.490261257 -0
vn 0.871575534 -0.490261346 -0
vn -0.871575534 -0.490261257 0
vn -0.871575534 -0.490261346 0
vn -0.871575534 -0.490261346 0
vn -0.871575534 -0.490261257 0
vn -0.871575534 0.490261286 -0
vn -0.871575534 0.490261286 -0
vn -0.871575594 0.490261257 -0
vn -0.871575594 0.490261257 -0
vn 0.871575594 0.490261257 0
vn 0.871575594 0.490261257 0
vn 0.871575534 0.490261286 0
vn 0.871575534 0.490261286 0
vn 0 0 -1
vn -0 -0 -1
vn -0 0 -1
vn -0 -0 -1
vn -0 -0 -1
vn -0 0 -1
vn -0 0 -1
vn 0 -0 -1
vn 0 -0 1
vn -0 0 1
vn -0 -0 1
vn -0 0 1
vn -0 0 1
vn -0 -0 1
vn -0 -0 1
vn 0 0 1
vn 0.490261376 -0.871575415 -0
vn 0.490261376 -0.871575415 -0
vn 0.490261376 -0.871575415 -0
vn 0.490261376 -0.871575415 -0
vn -0.490261376 -0.871575415 -0
vn -0.490261376 -0.871575415 0
vn -0.490261376 -0.871575415 0
vn -0.490261376 -0.871575415 -0
vn -0.871575534 -0.490261346 0
vn -0.871575415 -0.490261376 -0
vn -0.871575415 -0.490261376 -0
vn -0.871575534 -0.490261346 0
vn 0 -0 1
vn 0 -0 1
vn -0 0 1
vn -0 0 1
vn 0.871575534 0.490261286 0
vn 0.871575415 0.490261376 -0
vn 0.871575415 0.490261376 -0
vn 0.871575534 0.490261286 0
vn -0 0 -1
vn -0 0 -1
vn 0 -0 -1
vn 0 -0 -1
vn 0.871575534 -0.490261346 -0
vn 0.871575415 -0.490261376 -0
vn 0.871575415 -0.490261376 -0
vn 0.871575534 -0.490261346 -0
vn 0 0 -1
vn 0 -0 -1
vn -0 -0 -1
vn -0 -0 -1
vn -0.871575534 0.490261286 -0
vn -0.871575415 0.490261376 -0
vn -0.871575415 0.490261376 -0
vn -0.871575534 0.490261286 -0
vn -0 -0 1
vn -0 -0 1
vn 0 -0 1
vn 0 0 1
vn 0.871575534 0.490261376 0
vn 0.871575534 0.490261376 0
vn 0.871575534 0.490261346 0
vn 0.871575534 0.490261346 0
vn 0 -0 1
vn -0 0 1
vn -0 -0 1
vn -0 0 1
vn -0 0 1
vn -0 -0 1
vn -0 -0 1
vn 0 0 1
vn -0.490261257 -0.871575534 -0
vn -0.490261257 -0.871575534 0
vn -0.490261257 -0.871575534 0
vn -0.490261257 -0.871575534 0
vn 0 -0 1
vn 0 -0 1
vn -0 0 1
vn -0 0 1
vn 0.871575534 0.490261346 0
vn 0.871575534 0.490261257 -0
vn 0.871575534 0.490261257 0
vn 0.871575534 0.490261346 0
vn 0.871575534 -0.490261257 -0
vn 0.871575534 -0.490261257 -0
vn 0.871575534 -0.490261257 0
vn 0.871575534 -0.490261257 0
vn -0 -0 1
vn -0 -0 1
vn 0 -0 1
vn 0 0 1
vn 0 0 1
vn 0 0 1
vn 0 0 1
vn 0 0 1
vn 0 0 1
vn 0 0 1
vn -1 0 0
vn -1 -0 -0
vn -1 -0 0
vn -1 0 0
vn 0 1 0
vn 0 1 0
vn 0 1 0
vn -0 1 -0
vn 0.871575534 -0.490261257 0
vn 0.871575534 -0.490261257 0
vn 0.871575534 -0.490261257 -0
vn 0.871575534 -0.490261257 -0
vn -0.871575534 -0.490261257 0
vn -0.871575534 -0.490261257 0
vn -0.871575534 -0.490261257 0
vn -0.871575534 -0.490261257 0
vn -0.871575534 0.490261346 0
vn -0.871575534 0.490261346 -0
vn -0.871575534 0.490261376 -0
vn -0.871575534 0.490261376 0
vn 0.490261257 -0.871575534 0
vn 0.490261257 -0.871575534 0
vn 0.490261257 -0.871575534 -0
vn 0.490261257 -0.871575534 -0
vn -0.871575534 -0.490261257 0
vn -0.871575534 -0.490261257 0
vn -0.871575534 -0.490261257 -0
vn -0.871575534 -0.490261257 0
vn -0.871575534 0.490261346 0
vn -0.871575534 0.490261257 0
vn -0.871575534 0.490261257 -0
vn -0.871575534 0.490261346 -0
g woodBits
f 1/1/1 70/2/2 71/3/3 3/4/4
f 2/5/5 1/6/6 3/7/7 4/8/8
f 1/9/9 2/10/10 72/11/11 70/12/12
f 7/13/13 10/14/14 9/15/15 8/16/16
f 8/17/17 9/18/18 23/19/19 22/20/20
f 7/21/21 24/22/22 20/23/23 6/24/24
f 24/25/25 7/26/26 8/27/27 22/28/28
f 13/29/29 15/30/30 14/31/31
f 11/32/32 26/33/33 27/34/34 15/35/35
f 13/36/36 28/37/37 29/38/38 12/39/39
f 14/40/40 15/41/41 27/42/42 30/43/43
f 14/44/44 17/45/45 18/46/46
f 16/47/47 19/48/48 32/49/49 31/50/50
f 18/51/51 17/52/52 34/53/53 33/54/54
f 14/55/55 35/56/56 32/57/57 19/58/58
f 17/59/59 16/60/60 31/61/61 34/62/62
f 35/63/63 14/64/64 18/65/65 33/66/66
f 16/67/67 17/68/68 14/69/69 19/70/70
f 11/71/71 15/72/72 13/73/73 12/74/74
f 5/75/75 10/76/76 7/77/77 6/78/78
f 20/79/79 21/80/80 5/81/81 6/82/82
f 25/83/83 10/84/84 5/85/85 21/86/86
f 25/87/87 23/88/88 9/89/89 10/90/90
f 12/91/91 29/92/92 26/93/93 11/94/94
f 30/95/95 28/96/96 13/97/97 14/98/98
f 36/99/99 37/100/100 40/101/101 39/102/102
f 37/103/103 38/104/104 41/105/105 40/106/106
f 42/107/107 45/108/108 44/109/109 43/110/110
f 43/111/111 44/112/112 47/113/113 46/114/114
f 36/115/115 42/116/116 43/117/117 37/118/118
f 37/119/119 43/120/120 46/121/121 38/122/122
f 41/123/123 47/124/124 44/125/125 40/126/126
f 40/127/127 44/128/128 45/129/129 39/130/130
f 48/131/131 51/132/132 50/133/133 49/134/134
f 52/135/135 55/136/136 54/137/137 53/138/138
f 38/139/139 48/140/140 49/141/141 41/142/142
f 41/143/143 49/144/144 50/145/145 47/146/146
f 47/147/147 50/148/148 51/149/149 46/150/150
f 46/151/151 51/152/152 48/153/153 38/154/154
f 39/155/155 52/156/156 53/157/157 36/158/158
f 36/159/159 53/160/160 54/161/161 42/162/162
f 42/163/163 54/164/164 55/165/165 45/166/166
f 45/167/167 55/168/168 52/169/169 39/170/170
f 72/209/209 2/210/210 4/211/211 73/212/212
f 71/213/213 73/214/214 4/215/215 3/216/216
g roofBits
f 78/171/171 59/172/172 61/173/173 79/174/174
f 58/175/175 61/176/176 59/177/177 57/178/178
f 57/179/179 59/180/180 60/181/181 56/182/182
f 64/183/183 65/184/184 83/185/185 82/186/186
f 58/187/187 62/188/188 63/189/189 61/190/190
f 61/191/191 63/192/192 81/193/193 79/194/194
f 56/195/195 64/196/196 82/197/197 74/198/198
f 60/199/199 65/200/200 64/201/201 56/202/202
f 74/217/217 75/218/218 57/219/219 56/220/220
f 75/221/221 76/222/222 58/223/223 57/224/224
f 77/225/225 60/226/226 59/227/227 78/228/228
f 80/229/229 81/230/230 63/231/231 62/232/232
f 76/233/233 80/234/234 62/235/235 58/236/236
f 77/237/237 83/238/238 65/239/239 60/240/240
g wallBits
f 69/203/203 67/204/204 68/205/205
f 66/206/206 67/207/207 69/208/208
