# This file uses centimeters as units for non-parametric coordinates.

mtllib 4x Door Wide.mtl
g default
v -2.000000 4.000000 -0.029692
v -1.500000 3.000000 -0.029692
v -1.500000 0.000000 -0.029692
v -2.000000 0.000000 -0.029692
v 2.000000 4.000000 -0.029692
v 2.000000 0.000000 -0.029692
v 1.500000 0.000000 -0.029692
v 1.500000 3.000000 -0.029692
v 2.000000 4.000000 0.000000
v 1.500000 3.000000 0.000000
v 1.500000 0.000000 0.000000
v 2.000000 0.000000 0.000000
v -2.000000 4.000000 -0.000000
v -2.000000 0.000000 -0.000000
v -1.500000 0.000000 -0.000000
v -1.500000 3.000000 -0.000000
vt 1.000000 1.000000
vt 0.875000 0.750000
vt 0.875000 0.000000
vt 1.000000 0.000000
vt 0.000000 1.000000
vt 0.125000 0.750000
vt 0.000000 0.000000
vt 0.125000 0.000000
vt 1.000000 2.000000
vt 0.875000 1.750000
vt 0.875000 1.000000
vt 1.000000 1.000000
vt 0.000000 2.000000
vt 0.125000 1.750000
vt 0.000000 1.000000
vt 0.125000 1.000000
vn 0.000000 0.000000 -1.000000
vn 0.000000 0.000000 -1.000000
vn 0.000000 0.000000 -1.000000
vn 0.000000 0.000000 -1.000000
vn -0.000000 0.000000 -1.000000
vn 0.000000 0.000000 -1.000000
vn 0.000000 0.000000 -1.000000
vn 0.000000 0.000000 -1.000000
vn -0.000000 0.000000 -1.000000
vn 0.000000 0.000000 -1.000000
vn 0.000000 0.000000 -1.000000
vn 0.000000 0.000000 -1.000000
vn -0.000000 0.000000 1.000000
vn -0.000000 0.000000 1.000000
vn -0.000000 0.000000 1.000000
vn -0.000000 0.000000 1.000000
vn -0.000000 0.000000 1.000000
vn -0.000000 0.000000 1.000000
vn -0.000000 0.000000 1.000000
vn -0.000000 0.000000 1.000000
vn -0.000000 0.000000 1.000000
vn -0.000000 0.000000 1.000000
vn -0.000000 0.000000 1.000000
vn -0.000000 0.000000 1.000000
s off
g wall
usemtl initialShadingGroup
f 1/1/1 2/2/2 3/3/3 4/4/4
f 5/5/5 6/7/6 7/8/7 8/6/8
f 5/5/9 8/6/10 2/2/11 1/1/12
f 9/9/13 10/10/14 11/11/15 12/12/16
f 13/13/17 14/15/18 15/16/19 16/14/20
f 13/13/21 16/14/22 10/10/23 9/9/24
g default
v 1.400000 0.000000 -0.100000
v 1.600000 0.000000 -0.100000
v 1.600000 0.000000 0.100000
v 1.400000 0.000000 0.100000
v 1.400000 2.900000 -0.100000
v 1.600000 2.900000 -0.100000
v 1.600000 2.900000 0.100000
v 1.400000 2.900000 0.100000
v 1.600000 3.100000 -0.100000
v 1.600000 3.100000 0.100000
v 1.400000 3.100000 0.100000
v 1.400000 3.100000 -0.100000
v -1.600000 0.000000 -0.100000
v -1.400000 0.000000 -0.100000
v -1.400000 0.000000 0.100000
v -1.600000 0.000000 0.100000
v -1.600000 2.900000 -0.100000
v -1.400000 2.900000 -0.100000
v -1.400000 2.900000 0.100000
v -1.600000 2.900000 0.100000
v -1.400000 3.100000 -0.100000
v -1.400000 3.100000 0.100000
v -1.600000 3.100000 0.100000
v -1.600000 3.100000 -0.100000
v -2.100000 0.000000 -0.100000
v -1.900000 0.000000 -0.100000
v -1.900000 0.000000 0.100000
v -2.100000 0.000000 0.100000
v -2.100000 4.000000 -0.100000
v -1.900000 4.000000 -0.100000
v -1.900000 4.000000 0.100000
v -2.100000 4.000000 0.100000
vt 0.454485 0.725002
vt 0.404485 0.725002
vt 0.404475 0.000003
vt 0.352236 0.000002
vt 0.402238 0.050000
vt 0.352238 0.050002
vt 0.554485 0.725000
vt 0.504485 0.725001
vt 0.302239 0.100004
vt 0.554475 0.000000
vt 0.706713 0.725000
vt 0.656713 0.725000
vt 0.252265 0.800006
vt 0.706716 0.000000
vt 0.806713 0.725001
vt 0.756713 0.725001
vt 0.302267 0.850004
vt 0.402269 0.900000
vt 0.352267 0.850002
vt 0.402267 0.850000
vt 0.150000 0.050000
vt 0.200000 0.050000
vt 0.200000 1.050000
vt 0.150000 1.050000
vt 0.050000 0.050000
vt 0.100000 0.050000
vt 0.100000 1.050000
vt 0.050000 1.050000
vt 0.504485 0.775001
vt 0.454486 0.775002
vt 0.402240 0.100000
vt 0.352239 0.100002
vt 0.402265 0.800000
vt 0.352265 0.800002
vt 0.756713 0.775001
vt 0.706713 0.775000
vt 0.302265 0.800004
vt 0.252239 0.100006
vt 0.150000 0.000000
vt 0.200000 0.000000
vt 0.200000 1.100000
vt 0.150000 1.100000
vt 0.604485 0.725000
vt 0.252237 0.050006
vt 0.202239 0.100007
vt 0.202238 0.050007
vt 0.202265 0.800008
vt 0.606716 0.000000
vt 0.202267 0.850008
vt 0.606713 0.725000
vt 0.000000 0.050000
vt 0.000000 1.050000
vt 0.756716 0.000001
vt 0.352269 0.900002
vt 0.806716 0.000001
vt 0.252267 0.850006
vt 0.656716 0.000000
vt 0.454475 0.000002
vt 0.302238 0.050004
vt 0.504475 0.000001
vt 0.604475 0.000000
vt 0.402236 0.000000
vn 0.000000 0.000000 -1.000000
vn 0.000000 0.000000 -1.000000
vn 0.000000 0.000000 -1.000000
vn -0.000000 0.000000 -1.000000
vn 1.000000 0.000000 0.000000
vn 1.000000 0.000000 0.000000
vn 1.000000 0.000000 0.000000
vn 1.000000 0.000000 0.000000
vn 0.000000 0.000000 1.000000
vn 0.000000 0.000000 1.000000
vn 0.000000 0.000000 1.000000
vn 0.000000 0.000000 1.000000
vn -1.000000 0.000000 -0.000000
vn -1.000000 0.000000 0.000000
vn -1.000000 0.000000 0.000000
vn -1.000000 0.000000 0.000000
vn 0.000000 -1.000000 0.000000
vn 0.000000 -1.000000 0.000000
vn 0.000000 -1.000000 0.000000
vn 0.000000 -1.000000 0.000000
vn -0.000000 1.000000 -0.000000
vn -0.000000 1.000000 -0.000000
vn 0.000000 1.000000 0.000000
vn -0.000000 1.000000 -0.000000
vn 1.000000 0.000000 0.000000
vn 1.000000 0.000000 0.000000
vn 1.000000 0.000000 0.000000
vn 1.000000 0.000000 0.000000
vn 0.000000 0.000000 1.000000
vn 0.000000 0.000000 1.000000
vn 0.000000 0.000000 1.000000
vn 0.000000 0.000000 1.000000
vn 0.000000 0.000000 -1.000000
vn -0.000000 0.000000 -1.000000
vn -0.000000 0.000000 -1.000000
vn -0.000000 0.000000 -1.000000
vn 0.000000 0.000000 -1.000000
vn 0.000000 0.000000 -1.000000
vn 0.000000 0.000000 -1.000000
vn 0.000000 0.000000 -1.000000
vn 1.000000 0.000000 0.000000
vn 1.000000 0.000000 0.000000
vn 1.000000 0.000000 0.000000
vn 1.000000 0.000000 0.000000
vn 0.000000 0.000000 1.000000
vn 0.000000 0.000000 1.000000
vn 0.000000 0.000000 1.000000
vn 0.000000 0.000000 1.000000
vn -1.000000 0.000000 -0.000000
vn -1.000000 0.000000 0.000000
vn -1.000000 0.000000 0.000000
vn -1.000000 0.000000 -0.000000
vn 0.000000 -1.000000 0.000000
vn 0.000000 -1.000000 0.000000
vn 0.000000 -1.000000 0.000000
vn 0.000000 -1.000000 0.000000
vn -0.000000 1.000000 -0.000000
vn -0.000000 1.000000 -0.000000
vn 0.000000 1.000000 0.000000
vn 0.000000 1.000000 0.000000
vn 0.000000 0.000000 1.000000
vn 0.000000 0.000000 1.000000
vn 0.000000 0.000000 1.000000
vn 0.000000 0.000000 1.000000
vn -1.000000 0.000000 0.000000
vn -1.000000 0.000000 0.000000
vn -1.000000 0.000000 0.000000
vn -1.000000 0.000000 -0.000000
vn 0.000000 0.000000 -1.000000
vn 0.000000 0.000000 -1.000000
vn -0.000000 0.000000 -1.000000
vn 0.000000 0.000000 -1.000000
vn 0.000000 -1.000000 0.000000
vn 0.000000 -1.000000 0.000000
vn 0.000000 -1.000000 0.000000
vn 0.000000 -1.000000 0.000000
vn 0.000000 0.000000 -1.000000
vn 0.000000 0.000000 -1.000000
vn -0.000000 0.000000 -1.000000
vn -0.000000 0.000000 -1.000000
vn -0.000000 1.000000 -0.000000
vn -0.000000 1.000000 -0.000000
vn 0.000000 1.000000 0.000000
vn 0.000000 1.000000 0.000000
vn 0.000000 0.000000 1.000000
vn 0.000000 0.000000 1.000000
vn 0.000000 0.000000 1.000000
vn 0.000000 0.000000 1.000000
vn 0.000000 0.000000 -1.000000
vn 0.000000 0.000000 -1.000000
vn 0.000000 0.000000 -1.000000
vn -0.000000 0.000000 -1.000000
vn 1.000000 0.000000 0.000000
vn 1.000000 0.000000 0.000000
vn 1.000000 0.000000 0.000000
vn 1.000000 0.000000 0.000000
vn 0.000000 0.000000 1.000000
vn 0.000000 0.000000 1.000000
vn 0.000000 0.000000 1.000000
vn 0.000000 0.000000 1.000000
vn -1.000000 0.000000 -0.000000
vn -1.000000 0.000000 0.000000
vn -1.000000 0.000000 0.000000
vn -1.000000 0.000000 0.000000
vn 0.000000 -1.000000 0.000000
vn 0.000000 -1.000000 0.000000
vn 0.000000 -1.000000 0.000000
vn 0.000000 -1.000000 0.000000
vn -0.000000 1.000000 -0.000000
vn -0.000000 1.000000 -0.000000
vn 0.000000 1.000000 0.000000
vn -0.000000 1.000000 -0.000000
s off
g wood
usemtl initialShadingGroup
f 18/59/25 17/23/26 21/26/27 22/77/28
f 19/17/29 18/18/30 22/19/31 23/74/32
f 20/24/33 19/17/34 23/74/35 24/76/36
f 17/23/37 20/24/38 24/76/39 21/26/40
f 19/17/41 20/24/42 17/45/43 18/46/44
f 25/21/45 28/47/46 27/48/47 26/22/48
f 22/78/49 25/21/50 26/22/51 23/20/52
f 23/75/53 26/22/54 27/48/55 24/25/56
f 21/54/57 28/61/58 25/62/59 22/60/60
f 30/28/61 29/66/62 33/64/63 34/73/64
f 31/27/65 30/28/66 34/73/67 35/30/68
f 32/32/69 31/27/70 35/30/71 36/69/72
f 29/31/73 32/32/74 36/69/75 33/71/76
f 31/27/77 32/32/78 29/51/79 30/52/80
f 37/49/81 40/36/82 39/35/83 38/50/84
f 35/53/85 38/50/86 39/35/87 36/33/88
f 36/70/89 39/35/90 40/36/91 33/34/92
f 33/72/93 40/65/94 37/63/95 34/29/96
f 24/25/97 35/53/98 34/29/99 21/54/100
f 21/54/101 34/29/102 37/63/103 28/61/104
f 28/47/105 37/49/106 38/50/107 27/48/108
f 27/48/109 38/50/110 35/53/111 24/25/112
f 42/67/113 41/41/114 45/44/115 46/68/116
f 43/37/117 42/38/118 46/39/119 47/40/120
f 44/42/121 43/37/122 47/40/123 48/43/124
f 41/41/125 44/42/126 48/43/127 45/44/128
f 43/37/129 44/55/130 41/56/131 42/38/132
f 46/39/133 45/57/134 48/58/135 47/40/136
