# File exported by Houdini 16.5.496 (www.sidefx.com)
# 48 points
# 136 vertices
# 34 primitives
# Bounds: [-2.0999999, 0, -0.100000001] to [2, 4, 0.100000001]
g 
v 1.39999998 0 -0.100000001
v 1.60000002 0 -0.100000001
v 1.60000002 0 0.100000001
v 1.39999998 0 0.100000001
v 1.39999998 2.9000001 -0.100000001
v 1.60000002 2.9000001 -0.100000001
v 1.60000002 2.9000001 0.100000001
v 1.39999998 2.9000001 0.100000001
v 1.60000002 3.10000014 -0.100000001
v 1.60000002 3.10000014 0.100000001
v 1.39999998 3.10000014 0.100000001
v 1.39999998 3.10000014 -0.100000001
v -1.60000002 0 -0.100000001
v -1.39999998 0 -0.100000001
v -1.39999998 0 0.100000001
v -1.60000002 0 0.100000001
v -1.60000002 2.9000001 -0.100000001
v -1.39999998 2.9000001 -0.100000001
v -1.39999998 2.9000001 0.100000001
v -1.60000002 2.9000001 0.100000001
v -1.39999998 3.10000014 -0.100000001
v -1.39999998 3.10000014 0.100000001
v -1.60000002 3.10000014 0.100000001
v -1.60000002 3.10000014 -0.100000001
v -2.0999999 0 -0.100000001
v -1.89999998 0 -0.100000001
v -1.89999998 0 0.100000001
v -2.0999999 0 0.100000001
v -2.0999999 4 -0.100000001
v -1.89999998 4 -0.100000001
v -1.89999998 4 0.100000001
v -2.0999999 4 0.100000001
v 2 4 0
v -2 4 0
v -2 0 0
v -1.5 0 0
v -1.5 3 0
v 1.5 3 0
v 1.5 0 0
v 2 0 0
v -2 4 -2.44929371e-16
v 2 4 2.44929371e-16
v 2 0 2.44929371e-16
v 1.5 0 1.83697028e-16
v 1.5 3 1.83697028e-16
v -1.5 3 -1.83697028e-16
v -1.5 0 -1.83697028e-16
v -2 0 -2.44929371e-16
vn -0 -0 -1
vn 0 -0 -1
vn 0 -0 -1
vn -0 0 -1
vn 1 -0 -0
vn 1 -0 -0
vn 1 0 0
vn 1 -0 -0
vn -0 -0 1
vn 0 0 1
vn 0 0 1
vn 0 0 1
vn -1 0 -0
vn -1 -0 -0
vn -1 -0 0
vn -1 -0 -0
vn 0 -1 -0
vn -0 -1 -0
vn -0 -1 0
vn -0 -1 -0
vn -0 1 -0
vn -0 1 -0
vn 0 1 0
vn -0 1 -0
vn 1 0 0
vn 1 0 0
vn 1 -0 -0
vn 1 -0 -0
vn 0 0 1
vn -0 -0 1
vn -0 -0 1
vn 0 0 1
vn 0 -0 -1
vn -0 0 -1
vn -0 0 -1
vn -0 0 -1
vn -0 -0 -1
vn 0 -0 -1
vn 0 -0 -1
vn 0 0 -1
vn 1 -0 -0
vn 1 -0 -0
vn 1 0 0
vn 1 -0 -0
vn -0 -0 1
vn 0 0 1
vn 0 0 1
vn -0 -0 1
vn -1 0 -0
vn -1 -0 -0
vn -1 -0 0
vn -1 0 -0
vn 0 -1 -0
vn -0 -1 -0
vn -0 -1 0
vn -0 -1 -0
vn -0 1 -0
vn -0 1 -0
vn 0 1 0
vn 0 1 0
vn 0 0 1
vn -0 -0 1
vn -0 -0 1
vn -0 -0 1
vn -1 -0 0
vn -1 -0 0
vn -1 -0 -0
vn -1 0 -0
vn 0 -0 -1
vn -0 -0 -1
vn -0 0 -1
vn 0 0 -1
vn 0 -1 -0
vn -0 -1 -0
vn -0 -1 0
vn -0 -1 -0
vn 0 -0 -1
vn 0 0 -1
vn -0 0 -1
vn -0 0 -1
vn -0 1 -0
vn -0 1 -0
vn 0 1 0
vn 0 1 0
vn -0 -0 1
vn -0 -0 1
vn 0 0 1
vn 0 0 1
vn -0 -0 -1
vn 0 -0 -1
vn -0 -0 -1
vn -0 0 -1
vn 1 -0 -0
vn 1 -0 -0
vn 1 0 0
vn 1 -0 -0
vn -0 -0 1
vn 0 0 1
vn -0 -0 1
vn -0 -0 1
vn -1 0 -0
vn -1 -0 -0
vn -1 -0 0
vn -1 -0 -0
vn 0 -1 -0
vn -0 -1 -0
vn -0 -1 0
vn -0 -1 -0
vn -0 1 -0
vn -0 1 -0
vn 0 1 0
vn -0 1 -0
vn -0 -0 -1
vn 0 0 -1
vn -0 -0 -1
vn 0 -0 -1
vn -0 0 -1
vn -0 -0 -1
vn 0 -0 -1
vn -0 -0 -1
vn -0 0 -1
vn -0 -0 -1
vn 0 0 -1
vn -0 -0 -1
vn -1.22464698e-16 -0 1
vn -1.22464685e-16 -0 1
vn -1.22464685e-16 -0 1
vn -1.22464685e-16 -0 1
vn -1.22464698e-16 -0 1
vn -1.22464685e-16 -0 1
vn -1.22464685e-16 -0 1
vn -1.22464685e-16 -0 1
vn -1.22464698e-16 -0 1
vn -1.22464685e-16 -0 1
vn -1.22464685e-16 -0 1
vn -1.22464698e-16 -0 1
g wood
f 2//1 1//2 5//3 6//4
f 3//5 2//6 6//7 7//8
f 4//9 3//10 7//11 8//12
f 1//13 4//14 8//15 5//16
f 3//17 4//18 1//19 2//20
f 9//21 12//22 11//23 10//24
f 6//25 9//26 10//27 7//28
f 7//29 10//30 11//31 8//32
f 5//33 12//34 9//35 6//36
f 14//37 13//38 17//39 18//40
f 15//41 14//42 18//43 19//44
f 16//45 15//46 19//47 20//48
f 13//49 16//50 20//51 17//52
f 15//53 16//54 13//55 14//56
f 21//57 24//58 23//59 22//60
f 19//61 22//62 23//63 20//64
f 20//65 23//66 24//67 17//68
f 17//69 24//70 21//71 18//72
f 8//73 19//74 18//75 5//76
f 5//77 18//78 21//79 12//80
f 12//81 21//82 22//83 11//84
f 11//85 22//86 19//87 8//88
f 26//89 25//90 29//91 30//92
f 27//93 26//94 30//95 31//96
f 28//97 27//98 31//99 32//100
f 25//101 28//102 32//103 29//104
f 27//105 28//106 25//107 26//108
f 30//109 29//110 32//111 31//112
g wall
f 34//113 37//114 36//115 35//116
f 33//117 40//118 39//119 38//120
f 33//121 38//122 37//123 34//124
f 42//125 45//126 44//127 43//128
f 41//129 48//130 47//131 46//132
f 41//133 46//134 45//135 42//136
