# File exported by Houdini 16.5.496 (www.sidefx.com)
# 24 points
# 48 vertices
# 12 primitives
# Bounds: [-2.0999999, 0, -0.100000001] to [2.07260251, 4, 0.100000001]
g 
v -2.0999999 0 -0.100000001
v -1.89999998 0 -0.100000001
v -1.89999998 0 0.100000001
v -2.0999999 0 0.100000001
v -2.0999999 4 -0.100000001
v -1.89999998 4 -0.100000001
v -1.89999998 4 0.100000001
v -2.0999999 4 0.100000001
v 2 0 2.44929371e-16
v -2 0 -2.44929371e-16
v 2 4 2.44929371e-16
v -2 4 -2.44929371e-16
v -2 0 0
v 2 0 0
v -2 4 0
v 2 4 0
v 1.94984269 0.0586825609 -0.0900000036
v 2.07260251 0.190326333 -0.0900000036
v 2.07260251 0.190326333 0.0900000036
v 1.94984269 0.0586825609 0.0900000036
v -2.07260251 3.80967379 -0.0900000036
v -1.94984269 3.94131756 -0.0900000036
v -1.94984269 3.94131756 0.0900000036
v -2.07260251 3.80967379 0.0900000036
vn -0 -0 -1
vn 0 -0 -1
vn -0 -0 -1
vn -0 0 -1
vn 1 -0 -0
vn 1 -0 -0
vn 1 0 0
vn 1 -0 -0
vn -0 -0 1
vn 0 0 1
vn -0 -0 1
vn -0 -0 1
vn -1 0 -0
vn -1 -0 -0
vn -1 -0 0
vn -1 -0 -0
vn 0 -1 -0
vn -0 -1 -0
vn -0 -1 0
vn -0 -1 -0
vn -0 1 -0
vn -0 1 -0
vn 0 1 0
vn -0 1 -0
vn -1.22464685e-16 -0 1
vn -1.22464685e-16 -0 1
vn -1.22464685e-16 -0 1
vn -1.22464685e-16 -0 1
vn 0 -0 -1
vn -0 -0 -1
vn -0 0 -1
vn -0 -0 -1
vn -0 0 -1
vn 0 -0 -1
vn -0 -0 -1
vn -0 -0 -1
vn 0.681998432 0.731353641 -0
vn 0.681998432 0.731353641 -0
vn 0.681998432 0.731353641 0
vn 0.681998432 0.731353641 0
vn 0 -0 1
vn -0 0 1
vn -0 -0 1
vn -0 -0 1
vn -0.681998432 -0.731353641 -0
vn -0.681998432 -0.731353641 -0
vn -0.681998432 -0.731353641 0
vn -0.681998432 -0.731353641 0
g wood
f 2//1 1//2 5//3 6//4
f 3//5 2//6 6//7 7//8
f 4//9 3//10 7//11 8//12
f 1//13 4//14 8//15 5//16
f 3//17 4//18 1//19 2//20
f 6//21 5//22 8//23 7//24
f 18//33 17//34 21//35 22//36
f 19//37 18//38 22//39 23//40
f 20//41 19//42 23//43 24//44
f 17//45 20//46 24//47 21//48
g wall
f 9//25 11//26 12//27 10//28
f 13//29 15//30 16//31 14//32
