# File exported by Houdini 16.5.496 (www.sidefx.com)
# 16 points
# 32 vertices
# 8 primitives
# Bounds: [-2.0999999, 0, -0.100000001] to [2, 4, 0.100000001]
g 
v -2.0999999 0 -0.100000001
v -1.89999998 0 -0.100000001
v -1.89999998 0 0.100000001
v -2.0999999 0 0.100000001
v -2.0999999 4 -0.100000001
v -1.89999998 4 -0.100000001
v -1.89999998 4 0.100000001
v -2.0999999 4 0.100000001
v 2 0 2.44929371e-16
v -2 0 -2.44929371e-16
v 2 4 2.44929371e-16
v -2 4 -2.44929371e-16
v -2 0 0
v 2 0 0
v -2 4 0
v 2 4 0
vn -0 -0 -1
vn 0 -0 -1
vn -0 -0 -1
vn -0 0 -1
vn 1 -0 -0
vn 1 -0 -0
vn 1 0 0
vn 1 -0 -0
vn -0 -0 1
vn 0 0 1
vn -0 -0 1
vn -0 -0 1
vn -1 0 -0
vn -1 -0 -0
vn -1 -0 0
vn -1 -0 -0
vn 0 -1 -0
vn -0 -1 -0
vn -0 -1 0
vn -0 -1 -0
vn -0 1 -0
vn -0 1 -0
vn 0 1 0
vn -0 1 -0
vn -1.22464685e-16 -0 1
vn -1.22464685e-16 -0 1
vn -1.22464685e-16 -0 1
vn -1.22464685e-16 -0 1
vn 0 -0 -1
vn -0 -0 -1
vn -0 0 -1
vn -0 -0 -1
g wood
f 2//1 1//2 5//3 6//4
f 3//5 2//6 6//7 7//8
f 4//9 3//10 7//11 8//12
f 1//13 4//14 8//15 5//16
f 3//17 4//18 1//19 2//20
f 6//21 5//22 8//23 7//24
g wall
f 9//25 11//26 12//27 10//28
f 13//29 15//30 16//31 14//32
