# This file uses centimeters as units for non-parametric coordinates.

mtllib 4x Wall Bar.mtl
g default
v -2.100000 0.000000 -0.100000
v -1.900000 0.000000 -0.100000
v -1.900000 0.000000 0.100000
v -2.100000 0.000000 0.100000
v -2.100000 4.000000 -0.100000
v -1.900000 4.000000 -0.100000
v -1.900000 4.000000 0.100000
v -2.100000 4.000000 0.100000
v 1.949843 0.058683 -0.090000
v 2.072603 0.190326 -0.090000
v 2.072603 0.190326 0.090000
v 1.949843 0.058683 0.090000
v -2.072603 3.809674 -0.090000
v -1.949843 3.941318 -0.090000
v -1.949843 3.941318 0.090000
v -2.072603 3.809674 0.090000
vt 0.332159 -0.002720
vt 0.382159 -0.002720
vt 0.382159 0.997280
vt 0.332159 0.997280
vt 0.232159 -0.002720
vt 0.282159 -0.002720
vt 0.282159 0.997280
vt 0.232159 0.997283
vt 0.182159 -0.052720
vt 0.232159 -0.052720
vt 0.182159 -0.002720
vt 0.182159 0.997276
vt 0.232144 1.047287
vt 0.182144 1.047272
vt 0.135000 0.000028
vt 0.180000 0.000000
vt 0.180861 1.375000
vt 0.135861 1.375028
vt 0.045000 0.000085
vt 0.090000 0.000056
vt 0.090861 1.375056
vt 0.045861 1.375084
vt 0.000000 0.000113
vt 0.000861 1.375112
vn 0.000000 0.000000 -1.000000
vn 0.000000 0.000000 -1.000000
vn 0.000000 0.000000 -1.000000
vn -0.000000 0.000000 -1.000000
vn 1.000000 0.000000 0.000000
vn 1.000000 0.000000 0.000000
vn 1.000000 0.000000 0.000000
vn 1.000000 0.000000 0.000000
vn 0.000000 0.000000 1.000000
vn 0.000000 0.000000 1.000000
vn 0.000000 0.000000 1.000000
vn 0.000000 0.000000 1.000000
vn -1.000000 0.000000 -0.000000
vn -1.000000 0.000000 0.000000
vn -1.000000 0.000000 0.000000
vn -1.000000 0.000000 0.000000
vn 0.000000 -1.000000 0.000000
vn 0.000000 -1.000000 0.000000
vn 0.000000 -1.000000 0.000000
vn 0.000000 -1.000000 0.000000
vn -0.000000 1.000000 -0.000000
vn -0.000000 1.000000 -0.000000
vn 0.000000 1.000000 0.000000
vn -0.000000 1.000000 -0.000000
vn -0.000000 0.000000 -1.000000
vn 0.000000 0.000000 -1.000000
vn 0.000000 0.000000 -1.000000
vn 0.000000 0.000000 -1.000000
vn 0.681998 0.731354 0.000000
vn 0.681998 0.731354 0.000000
vn 0.681998 0.731354 0.000000
vn 0.681998 0.731354 0.000000
vn 0.000000 -0.000000 1.000000
vn 0.000000 0.000000 1.000000
vn 0.000000 0.000000 1.000000
vn 0.000000 0.000000 1.000000
vn -0.681998 -0.731354 0.000000
vn -0.681998 -0.731354 0.000000
vn -0.681998 -0.731354 0.000000
vn -0.681998 -0.731354 0.000000
s off
g wood
usemtl initialShadingGroup
f 2/11/1 1/5/2 5/8/3 6/12/4
f 3/1/5 2/2/6 6/3/7 7/4/8
f 4/6/9 3/1/10 7/4/11 8/7/12
f 1/5/13 4/6/14 8/7/15 5/8/16
f 3/9/17 4/10/18 1/5/19 2/11/20
f 6/12/21 5/8/22 8/13/23 7/14/24
f 10/15/25 9/16/26 13/17/27 14/18/28
f 11/20/29 10/15/30 14/18/31 15/21/32
f 12/19/33 11/20/34 15/21/35 16/22/36
f 9/23/37 12/19/38 16/22/39 13/24/40
g default
v 2.000000 0.000000 0.000000
v 2.000000 4.000000 0.000000
v -2.000000 4.000000 -0.000000
v -2.000000 0.000000 -0.000000
v -2.000000 0.000000 -0.014763
v -2.000000 4.000000 -0.014763
v 2.000000 4.000000 -0.014763
v 2.000000 0.000000 -0.014763
vt 2.000564 0.000000
vt 2.000564 1.000000
vt 1.000564 1.000000
vt 1.000564 0.000000
vt 1.000000 0.000000
vt 1.000000 1.000000
vt 0.000000 1.000000
vt 0.000000 0.000000
vn -0.000000 0.000000 1.000000
vn -0.000000 0.000000 1.000000
vn -0.000000 0.000000 1.000000
vn -0.000000 0.000000 1.000000
vn 0.000000 0.000000 -1.000000
vn 0.000000 0.000000 -1.000000
vn -0.000000 0.000000 -1.000000
vn 0.000000 0.000000 -1.000000
s off
g wall
usemtl initialShadingGroup
f 17/25/41 18/26/42 19/27/43 20/28/44
f 21/29/45 22/30/46 23/31/47 24/32/48
