# This file uses centimeters as units for non-parametric coordinates.

mtllib 4x Wall Window.mtl
g default
v -2.100000 0.000000 -0.100000
v -1.900000 0.000000 -0.100000
v -1.900000 0.000000 0.100000
v -2.100000 0.000000 0.100000
v -2.100000 4.000000 -0.100000
v -1.900000 4.000000 -0.100000
v -1.900000 4.000000 0.100000
v -2.100000 4.000000 0.100000
v -0.500000 1.950000 0.034722
v 0.500000 1.950000 0.034722
v 0.500000 1.950000 0.104722
v -0.500000 1.950000 0.104722
v -0.500000 2.050000 0.034722
v 0.500000 2.050000 0.034722
v 0.500000 2.050000 0.104722
v -0.500000 2.050000 0.104722
v -0.450000 1.050000 0.019722
v -0.550000 0.950000 0.019722
v -0.550000 0.950000 0.119722
v -0.450000 1.050000 0.119722
v 0.450000 1.050000 0.019722
v 0.550000 0.950000 0.019722
v 0.550000 0.950000 0.119722
v 0.450000 1.050000 0.119722
v 0.450000 2.950000 0.019722
v 0.550000 3.050000 0.019722
v 0.550000 3.050000 0.119722
v 0.450000 2.950000 0.119722
v -0.450000 2.950000 0.019722
v -0.550000 3.050000 0.019722
v -0.550000 3.050000 0.119722
v -0.450000 2.950000 0.119722
vt 0.160953 0.001992
vt 0.210754 0.001992
vt 0.210754 0.998008
vt 0.160953 0.998008
vt 0.061351 0.001992
vt 0.111152 0.001992
vt 0.111152 0.998008
vt 0.061351 0.998008
vt 0.372012 0.000000
vt 0.372012 0.522908
vt 0.347111 0.522908
vt 0.347111 0.000000
vt 0.322211 0.024900
vt 0.322211 0.498008
vt 0.297311 0.498008
vt 0.297310 0.024900
vt 0.221202 0.522908
vt 0.221202 0.000000
vt 0.246102 0.000000
vt 0.246103 0.522908
vt 0.271003 0.498008
vt 0.271003 0.024900
vt 0.295903 0.024900
vt 0.295903 0.498008
vt 0.111152 -0.047809
vt 0.160953 -0.047809
vt 0.160952 1.047809
vt 0.111152 1.047809
vt 0.543066 0.000000
vt 0.543066 0.249004
vt 0.525636 0.249004
vt 0.525636 0.000000
vt 0.585397 0.000000
vt 0.585397 0.249004
vt 0.567967 0.249004
vt 0.567967 0.000000
vt 0.449528 0.273904
vt 0.449527 0.000000
vt 0.474428 0.000000
vt 0.474428 0.273904
vt 0.499328 0.249004
vt 0.499328 0.024900
vt 0.524229 0.024900
vt 0.524229 0.249004
vt 0.448120 0.000000
vt 0.448121 0.273905
vt 0.423220 0.273904
vt 0.423220 0.000000
vt 0.398319 0.024900
vt 0.398320 0.249004
vt 0.373419 0.249004
vt 0.373419 0.024900
vt 0.011551 0.001992
vt 0.011551 0.998008
vn 0.000000 0.000000 -1.000000
vn 0.000000 0.000000 -1.000000
vn 0.000000 0.000000 -1.000000
vn -0.000000 0.000000 -1.000000
vn 1.000000 0.000000 0.000000
vn 1.000000 0.000000 0.000000
vn 1.000000 0.000000 0.000000
vn 1.000000 0.000000 0.000000
vn 0.000000 0.000000 1.000000
vn 0.000000 0.000000 1.000000
vn 0.000000 0.000000 1.000000
vn 0.000000 0.000000 1.000000
vn -1.000000 0.000000 -0.000000
vn -1.000000 0.000000 0.000000
vn -1.000000 0.000000 0.000000
vn -1.000000 0.000000 0.000000
vn 0.000000 -1.000000 0.000000
vn 0.000000 -1.000000 0.000000
vn 0.000000 -1.000000 0.000000
vn 0.000000 -1.000000 0.000000
vn -0.000000 1.000000 -0.000000
vn -0.000000 1.000000 -0.000000
vn 0.000000 1.000000 0.000000
vn -0.000000 1.000000 -0.000000
vn 0.000000 0.000000 1.000000
vn 0.000000 0.000000 1.000000
vn 0.000000 0.000000 1.000000
vn 0.000000 0.000000 1.000000
vn 0.000000 -1.000000 0.000000
vn 0.000000 -1.000000 0.000000
vn 0.000000 -1.000000 0.000000
vn 0.000000 -1.000000 0.000000
vn -0.000000 1.000000 -0.000000
vn -0.000000 1.000000 -0.000000
vn 0.000000 1.000000 0.000000
vn -0.000000 1.000000 -0.000000
vn 0.000000 -1.000000 0.000000
vn 0.000000 -1.000000 0.000000
vn 0.000000 -1.000000 0.000000
vn 0.000000 -1.000000 0.000000
vn 0.000000 -0.000000 1.000000
vn 0.000000 0.000000 1.000000
vn 0.000000 0.000000 1.000000
vn 0.000000 0.000000 1.000000
vn 0.000000 1.000000 0.000000
vn -0.000000 1.000000 -0.000000
vn -0.000000 1.000000 -0.000000
vn -0.000000 1.000000 -0.000000
vn 1.000000 0.000000 0.000000
vn 1.000000 0.000000 0.000000
vn 1.000000 0.000000 0.000000
vn 1.000000 0.000000 0.000000
vn 0.000000 0.000000 1.000000
vn 0.000000 0.000000 1.000000
vn 0.000000 -0.000000 1.000000
vn 0.000000 0.000000 1.000000
vn -1.000000 0.000000 0.000000
vn -1.000000 0.000000 0.000000
vn -1.000000 -0.000000 0.000000
vn -1.000000 -0.000000 0.000000
vn -0.000000 1.000000 -0.000000
vn -0.000000 1.000000 -0.000000
vn 0.000000 1.000000 0.000000
vn -0.000000 1.000000 -0.000000
vn 0.000000 0.000000 1.000000
vn 0.000000 0.000000 1.000000
vn 0.000000 0.000000 1.000000
vn 0.000000 -0.000000 1.000000
vn 0.000000 -1.000000 0.000000
vn 0.000000 -1.000000 0.000000
vn 0.000000 -1.000000 0.000000
vn 0.000000 -1.000000 0.000000
vn -1.000000 0.000000 -0.000000
vn -1.000000 0.000000 -0.000000
vn -1.000000 0.000000 -0.000000
vn -1.000000 0.000000 -0.000000
vn 0.000000 0.000000 1.000000
vn 0.000000 -0.000000 1.000000
vn 0.000000 0.000000 1.000000
vn 0.000000 0.000000 1.000000
vn 1.000000 0.000000 -0.000000
vn 1.000000 0.000000 0.000000
vn 1.000000 0.000000 0.000000
vn 1.000000 0.000000 -0.000000
s off
g wood
usemtl initialShadingGroup
f 2/53/1 1/5/2 5/8/3 6/54/4
f 3/1/5 2/2/6 6/3/7 7/4/8
f 4/6/9 3/1/10 7/4/11 8/7/12
f 1/5/13 4/6/14 8/7/15 5/8/16
f 3/1/17 4/6/18 1/25/19 2/26/20
f 6/27/21 5/28/22 8/7/23 7/4/24
f 12/30/25 11/29/26 15/36/27 16/35/28
f 11/29/29 12/30/30 9/31/31 10/32/32
f 14/33/33 13/34/34 16/35/35 15/36/36
f 18/37/37 22/38/38 23/39/39 19/40/40
f 19/40/41 23/39/42 24/42/43 20/41/44
f 20/41/45 24/42/46 21/43/47 17/44/48
f 22/9/49 26/10/50 27/11/51 23/12/52
f 23/12/53 27/11/54 28/14/55 24/13/56
f 24/13/57 28/14/58 25/15/59 21/16/60
f 26/45/61 30/46/62 31/47/63 27/48/64
f 27/48/65 31/47/66 32/50/67 28/49/68
f 28/49/69 32/50/70 29/51/71 25/52/72
f 30/17/73 18/18/74 19/19/75 31/20/76
f 31/20/77 19/19/78 20/22/79 32/21/80
f 32/21/81 20/22/82 17/23/83 29/24/84
g default
v 2.000000 0.000000 0.032363
v 2.000000 4.000000 0.032363
v -2.000000 4.000000 0.032363
v -2.000000 0.000000 0.032363
v -2.000000 0.000000 0.000000
v -2.000000 4.000000 0.000000
v 2.000000 4.000000 0.000000
v 2.000000 0.000000 0.000000
vt 2.000564 0.000000
vt 2.000564 1.000000
vt 1.000564 1.000000
vt 1.000564 0.000000
vt 1.000000 0.000000
vt 1.000000 1.000000
vt 0.000000 1.000000
vt 0.000000 0.000000
vn 0.000000 0.000000 1.000000
vn 0.000000 0.000000 1.000000
vn 0.000000 0.000000 1.000000
vn 0.000000 0.000000 1.000000
vn 0.000000 0.000000 -1.000000
vn 0.000000 0.000000 -1.000000
vn -0.000000 0.000000 -1.000000
vn 0.000000 0.000000 -1.000000
s off
g wall
usemtl initialShadingGroup
f 33/55/85 34/56/86 35/57/87 36/58/88
f 37/59/89 38/60/90 39/61/91 40/62/92
g default
v 0.500000 1.000000 0.040000
v 0.500000 3.000000 0.040000
v -0.500000 3.000000 0.040000
v -0.500000 1.000000 0.040000
vt 0.371170 0.242341
vt 0.371170 0.742341
vt 0.121170 0.742341
vt 0.121170 0.242341
vn 0.000000 0.000000 1.000000
vn 0.000000 0.000000 1.000000
vn 0.000000 0.000000 1.000000
vn 0.000000 0.000000 1.000000
s off
g window
usemtl initialShadingGroup
f 41/63/93 42/64/94 43/65/95 44/66/96
