# This file uses centimeters as units for non-parametric coordinates.

mtllib Rope Bundle Taper.mtl
g default
v 0.173346 0.007005 -0.071802
v 0.179945 0.000000 -0.074535
v 0.132673 0.007005 -0.132673
v 0.137724 0.000000 -0.137724
v 0.071802 0.007005 -0.173346
v 0.074536 0.000000 -0.179945
v 0.000000 0.007005 -0.187629
v 0.000000 0.000000 -0.194771
v -0.071802 0.007005 -0.173346
v -0.074535 0.000000 -0.179945
v -0.132673 0.007005 -0.132673
v -0.137724 0.000000 -0.137724
v -0.173346 0.007005 -0.071802
v -0.179945 0.000000 -0.074536
v -0.187629 0.007005 -0.000000
v -0.194771 0.000000 -0.000000
v -0.173346 0.007005 0.071802
v -0.179945 0.000000 0.074535
v -0.132673 0.007005 0.132673
v -0.137724 0.000000 0.137724
v -0.071802 0.007005 0.173346
v -0.074536 0.000000 0.179945
v -0.000000 0.007005 0.187629
v -0.000000 0.000000 0.194771
v 0.071802 0.007005 0.173346
v 0.074536 0.000000 0.179945
v 0.132673 0.007005 0.132673
v 0.137724 0.000000 0.137724
v 0.173346 0.007005 0.071802
v 0.179945 0.000000 0.074536
v 0.187629 0.007005 0.000000
v 0.194771 0.000000 0.000000
v 0.133674 0.185666 -0.055370
v 0.138763 0.192671 -0.057477
v 0.102310 0.185666 -0.102310
v 0.106204 0.192671 -0.106204
v 0.055370 0.185666 -0.133674
v 0.057477 0.192671 -0.138763
v 0.000000 0.185666 -0.144688
v 0.000000 0.192671 -0.150196
v -0.055370 0.185666 -0.133674
v -0.057477 0.192671 -0.138763
v -0.102310 0.185666 -0.102310
v -0.106204 0.192671 -0.106204
v -0.133674 0.185666 -0.055370
v -0.138763 0.192671 -0.057477
v -0.144688 0.185666 -0.000000
v -0.150196 0.192671 -0.000000
v -0.133674 0.185666 0.055370
v -0.138763 0.192671 0.057477
v -0.102310 0.185666 0.102310
v -0.106204 0.192671 0.106204
v -0.055370 0.185666 0.133674
v -0.057477 0.192671 0.138763
v -0.000000 0.185666 0.144688
v -0.000000 0.192671 0.150196
v 0.055370 0.185666 0.133674
v 0.057477 0.192671 0.138763
v 0.102310 0.185666 0.102310
v 0.106204 0.192671 0.106204
v 0.133674 0.185666 0.055370
v 0.138763 0.192671 0.057477
v 0.144688 0.185666 0.000000
v 0.150196 0.192671 0.000000
v 0.193145 0.000000 -0.080003
v 0.199743 0.007005 -0.082736
v 0.152877 0.007005 -0.152877
v 0.147827 0.000000 -0.147826
v 0.113995 0.192671 -0.113995
v 0.117890 0.185666 -0.117889
v 0.154030 0.185666 -0.063801
v 0.148942 0.192671 -0.061694
v 0.082736 0.007005 -0.199743
v 0.080003 0.000000 -0.193145
v 0.061694 0.192671 -0.148942
v 0.063801 0.185666 -0.154030
v 0.000000 0.007005 -0.216200
v 0.000000 0.000000 -0.209058
v 0.000000 0.192671 -0.161213
v 0.000000 0.185666 -0.166721
v -0.082736 0.007005 -0.199743
v -0.080003 0.000000 -0.193145
v -0.061694 0.192671 -0.148942
v -0.063801 0.185666 -0.154030
v -0.152877 0.007005 -0.152877
v -0.147826 0.000000 -0.147827
v -0.113995 0.192671 -0.113995
v -0.117889 0.185666 -0.117890
v -0.199743 0.007005 -0.082736
v -0.193145 0.000000 -0.080003
v -0.148942 0.192671 -0.061694
v -0.154030 0.185666 -0.063801
v -0.216200 0.007005 -0.000000
v -0.209058 0.000000 -0.000000
v -0.161213 0.192671 -0.000000
v -0.166721 0.185666 -0.000000
v -0.199743 0.007005 0.082736
v -0.193145 0.000000 0.080003
v -0.148942 0.192671 0.061694
v -0.154030 0.185666 0.063801
v -0.152877 0.007005 0.152877
v -0.147826 0.000000 0.147826
v -0.113995 0.192671 0.113995
v -0.117890 0.185666 0.117889
v -0.082736 0.007005 0.199743
v -0.080003 0.000000 0.193145
v -0.061694 0.192671 0.148942
v -0.063801 0.185666 0.154030
v -0.000000 0.007005 0.216200
v -0.000000 0.000000 0.209058
v -0.000000 0.192671 0.161213
v -0.000000 0.185666 0.166721
v 0.082736 0.007005 0.199743
v 0.080003 0.000000 0.193145
v 0.061694 0.192671 0.148942
v 0.063801 0.185666 0.154030
v 0.152877 0.007005 0.152877
v 0.147826 0.000000 0.147826
v 0.113995 0.192671 0.113995
v 0.117889 0.185666 0.117889
v 0.199743 0.007005 0.082736
v 0.193145 0.000000 0.080003
v 0.148942 0.192671 0.061694
v 0.154030 0.185666 0.063801
v 0.216200 0.007005 0.000000
v 0.209058 0.000000 0.000000
v 0.161213 0.192671 0.000000
v 0.166721 0.185666 0.000000
vt 0.594595 0.346267
vt 0.541494 0.346273
vt 0.488393 0.346279
vt 0.435293 0.346285
vt 0.382192 0.346292
vt 0.329092 0.346298
vt 0.275991 0.346304
vt 0.222890 0.346310
vt 0.169790 0.346317
vt 0.116689 0.346323
vt 0.063589 0.346329
vt 0.010489 0.351416
vt 0.010488 0.346335
vt 0.860098 0.346235
vt 0.806997 0.346242
vt 0.753896 0.346248
vt 0.700796 0.346254
vt 0.647695 0.346260
vt 0.594611 0.486016
vt 0.647712 0.486010
vt 0.541511 0.486022
vt 0.488410 0.486029
vt 0.435309 0.486035
vt 0.382209 0.486041
vt 0.329108 0.486048
vt 0.276008 0.486054
vt 0.222907 0.486060
vt 0.169806 0.486066
vt 0.116706 0.486073
vt 0.063605 0.486079
vt 0.010505 0.486085
vt 0.860114 0.480904
vt 0.860114 0.485985
vt 0.807013 0.485991
vt 0.753913 0.485998
vt 0.700812 0.486004
vt 0.315411 0.201992
vt 0.256245 0.202008
vt 0.317432 0.201991
vt 0.376597 0.201976
vt 0.378619 0.201975
vt 0.437784 0.201959
vt 0.378656 0.341725
vt 0.437821 0.341709
vt 0.376635 0.341725
vt 0.317469 0.341741
vt 0.315448 0.341742
vt 0.256283 0.341758
vt 0.439805 0.201959
vt 0.498971 0.201943
vt 0.439843 0.341708
vt 0.499008 0.341692
vt 0.500992 0.201942
vt 0.560157 0.201926
vt 0.501029 0.341692
vt 0.560195 0.341676
vt 0.562179 0.201926
vt 0.621344 0.201910
vt 0.562216 0.341675
vt 0.621381 0.341660
vt 0.623365 0.201909
vt 0.682530 0.201894
vt 0.623403 0.341659
vt 0.682568 0.341643
vt 0.684552 0.201893
vt 0.743717 0.201877
vt 0.684589 0.341643
vt 0.743755 0.341627
vt 0.745739 0.201876
vt 0.804904 0.201861
vt 0.745776 0.341626
vt 0.804941 0.341610
vt 0.806925 0.201860
vt 0.866091 0.201844
vt 0.806963 0.341610
vt 0.866128 0.341594
vt 0.868112 0.201844
vt 0.927277 0.201828
vt 0.868149 0.341593
vt 0.927315 0.341578
vt 0.929299 0.201827
vt 0.988464 0.201811
vt 0.929336 0.341577
vt 0.989511 0.336480
vt 0.988501 0.341561
vt 0.010490 0.207155
vt 0.011499 0.202073
vt 0.070664 0.202058
vt 0.011536 0.341823
vt 0.070702 0.341807
vt 0.072685 0.202057
vt 0.131851 0.202041
vt 0.072723 0.341807
vt 0.131888 0.341791
vt 0.133872 0.202041
vt 0.193037 0.202025
vt 0.133909 0.341790
vt 0.193075 0.341775
vt 0.195059 0.202024
vt 0.254224 0.202008
vt 0.195096 0.341774
vt 0.254261 0.341758
vt 0.377609 0.207056
vt 0.316457 0.336660
vt 0.438796 0.207040
vt 0.377644 0.336644
vt 0.499983 0.207023
vt 0.438831 0.336628
vt 0.561169 0.207007
vt 0.500017 0.336611
vt 0.622356 0.206991
vt 0.561204 0.336595
vt 0.683542 0.206974
vt 0.622391 0.336578
vt 0.744729 0.206958
vt 0.683577 0.336562
vt 0.805916 0.206941
vt 0.744764 0.336546
vt 0.867103 0.206925
vt 0.805951 0.336529
vt 0.928289 0.206909
vt 0.867137 0.336513
vt 0.989476 0.206892
vt 0.928324 0.336496
vt 0.071676 0.207138
vt 0.010524 0.336743
vt 0.132863 0.207122
vt 0.071711 0.336726
vt 0.194049 0.207105
vt 0.132897 0.336710
vt 0.255236 0.207089
vt 0.194084 0.336693
vt 0.316423 0.207073
vt 0.255271 0.336677
vt 0.594595 0.351347
vt 0.541510 0.480941
vt 0.541495 0.351354
vt 0.488409 0.480948
vt 0.488394 0.351360
vt 0.435309 0.480954
vt 0.435293 0.351366
vt 0.382208 0.480960
vt 0.382193 0.351373
vt 0.329108 0.480967
vt 0.329092 0.351379
vt 0.276007 0.480973
vt 0.275992 0.351385
vt 0.222906 0.480979
vt 0.222891 0.351391
vt 0.169806 0.480986
vt 0.169790 0.351398
vt 0.116705 0.480992
vt 0.116690 0.351404
vt 0.063605 0.480998
vt 0.063589 0.351410
vt 0.010504 0.481004
vt 0.860098 0.351316
vt 0.807013 0.480910
vt 0.806998 0.351322
vt 0.753912 0.480917
vt 0.753897 0.351329
vt 0.700812 0.480923
vt 0.700796 0.351335
vt 0.647711 0.480929
vt 0.647696 0.351341
vt 0.594610 0.480935
vt 0.191852 0.505827
vt 0.248536 0.518305
vt 0.558441 0.526884
vt 0.606035 0.560104
vt 0.136731 0.505827
vt 0.193874 0.495663
vt 0.597418 0.565861
vt 0.628676 0.614766
vt 0.085804 0.526922
vt 0.134709 0.495663
vt 0.618512 0.616787
vt 0.628676 0.673931
vt 0.046827 0.565899
vt 0.080047 0.518305
vt 0.618512 0.671909
vt 0.606034 0.728593
vt 0.025733 0.616825
vt 0.038211 0.560141
vt 0.597418 0.722835
vt 0.564198 0.770429
vt 0.025733 0.671947
vt 0.015569 0.614803
vt 0.558441 0.761812
vt 0.509537 0.793070
vt 0.046827 0.722872
vt 0.015569 0.673968
vt 0.507515 0.782906
vt 0.450371 0.793070
vt 0.085804 0.761850
vt 0.038211 0.728630
vt 0.452393 0.782906
vt 0.395710 0.770429
vt 0.136730 0.782944
vt 0.080047 0.770466
vt 0.401467 0.761812
vt 0.353873 0.728592
vt 0.191852 0.782944
vt 0.134708 0.793108
vt 0.362490 0.722835
vt 0.331232 0.673931
vt 0.242778 0.761850
vt 0.193874 0.793108
vt 0.341396 0.671909
vt 0.331232 0.614765
vt 0.281755 0.722873
vt 0.248535 0.770466
vt 0.341396 0.616787
vt 0.353873 0.560104
vt 0.302850 0.671947
vt 0.290372 0.728630
vt 0.362490 0.565861
vt 0.395710 0.518268
vt 0.302850 0.616825
vt 0.313013 0.673969
vt 0.401467 0.526884
vt 0.450372 0.495626
vt 0.281755 0.565899
vt 0.313014 0.614803
vt 0.452393 0.505790
vt 0.509537 0.495626
vt 0.242778 0.526922
vt 0.290372 0.560141
vt 0.507515 0.505790
vt 0.564198 0.518268
vn -0.890152 -0.267733 0.368713
vn -0.242311 -0.964993 0.100368
vn -0.262276 -0.964993 -0.000000
vn -0.963493 -0.267733 -0.000000
vn -0.681293 -0.267733 0.681292
vn -0.185457 -0.964993 0.185457
vn -0.368713 -0.267733 0.890151
vn -0.100369 -0.964993 0.242311
vn -0.000001 -0.267733 0.963493
vn -0.000000 -0.964993 0.262275
vn 0.368712 -0.267733 0.890152
vn 0.100368 -0.964993 0.242311
vn 0.681292 -0.267733 0.681293
vn 0.185456 -0.964993 0.185457
vn 0.890151 -0.267733 0.368713
vn 0.242311 -0.964993 0.100369
vn 0.963493 -0.267733 0.000000
vn 0.262275 -0.964993 0.000000
vn 0.890152 -0.267733 -0.368713
vn 0.242311 -0.964993 -0.100368
vn 0.681293 -0.267733 -0.681292
vn 0.185457 -0.964993 -0.185457
vn 0.368713 -0.267733 -0.890152
vn 0.100368 -0.964993 -0.242311
vn 0.000000 -0.267733 -0.963493
vn 0.000000 -0.964993 -0.262275
vn -0.368713 -0.267733 -0.890152
vn -0.100368 -0.964993 -0.242311
vn -0.681292 -0.267733 -0.681293
vn -0.185457 -0.964993 -0.185457
vn -0.890152 -0.267733 -0.368713
vn -0.242311 -0.964993 -0.100368
vn -0.905186 -0.200147 0.374940
vn -0.309696 0.942143 0.128278
vn -0.237031 0.942143 0.237031
vn -0.692800 -0.200147 0.692799
vn -0.979766 -0.200146 -0.000000
vn -0.335212 0.942143 -0.000002
vn -0.128280 0.942143 0.309695
vn -0.374941 -0.200147 0.905186
vn 0.000002 0.942143 0.335212
vn -0.000000 -0.200147 0.979766
vn 0.128282 0.942143 0.309695
vn 0.374940 -0.200146 0.905186
vn 0.237031 0.942143 0.237031
vn 0.692799 -0.200146 0.692800
vn 0.309696 0.942143 0.128280
vn 0.905186 -0.200146 0.374941
vn 0.335212 0.942143 0.000000
vn 0.979766 -0.200146 0.000000
vn 0.309695 0.942143 -0.128280
vn 0.905186 -0.200146 -0.374940
vn 0.237031 0.942143 -0.237030
vn 0.692799 -0.200146 -0.692799
vn 0.128280 0.942143 -0.309695
vn 0.374940 -0.200146 -0.905186
vn 0.000000 0.942143 -0.335211
vn 0.000000 -0.200146 -0.979766
vn -0.128280 0.942143 -0.309695
vn -0.374940 -0.200146 -0.905186
vn -0.237031 0.942143 -0.237031
vn -0.692799 -0.200146 -0.692799
vn -0.309696 0.942143 -0.128280
vn -0.905186 -0.200146 -0.374940
vn 0.334357 -0.932215 -0.138495
vn 0.901183 0.220297 -0.373282
vn 0.975433 0.220297 0.000000
vn 0.361905 -0.932215 0.000000
vn 0.255906 -0.932215 -0.255906
vn 0.689736 0.220297 -0.689735
vn 0.138495 -0.932215 -0.334357
vn 0.373282 0.220297 -0.901182
vn 0.316263 0.894403 -0.316263
vn 0.678802 0.280101 -0.678801
vn 0.367365 0.280101 -0.886897
vn 0.171160 0.894402 -0.413217
vn 0.413217 0.894402 -0.171161
vn 0.886897 0.280101 -0.367365
vn 0.447263 0.894403 -0.000002
vn 0.959971 0.280101 0.000000
vn 0.000000 -0.932215 -0.361905
vn 0.000001 0.220297 -0.975433
vn 0.000001 0.280101 -0.959971
vn 0.000002 0.894402 -0.447263
vn -0.138495 -0.932215 -0.334357
vn -0.373281 0.220297 -0.901183
vn -0.367364 0.280101 -0.886898
vn -0.171158 0.894403 -0.413218
vn -0.255906 -0.932215 -0.255906
vn -0.689735 0.220297 -0.689735
vn -0.678802 0.280100 -0.678802
vn -0.316263 0.894402 -0.316263
vn -0.334357 -0.932215 -0.138495
vn -0.901182 0.220297 -0.373282
vn -0.886897 0.280100 -0.367365
vn -0.413217 0.894402 -0.171160
vn -0.361906 -0.932215 -0.000000
vn -0.975433 0.220297 -0.000000
vn -0.959971 0.280100 -0.000000
vn -0.447263 0.894402 -0.000000
vn -0.334357 -0.932215 0.138495
vn -0.901183 0.220297 0.373282
vn -0.886897 0.280100 0.367365
vn -0.413217 0.894402 0.171160
vn -0.255906 -0.932215 0.255906
vn -0.689735 0.220297 0.689735
vn -0.678802 0.280100 0.678802
vn -0.316263 0.894402 0.316263
vn -0.138495 -0.932215 0.334357
vn -0.373282 0.220297 0.901182
vn -0.367365 0.280100 0.886897
vn -0.171160 0.894402 0.413218
vn -0.000000 -0.932215 0.361905
vn -0.000000 0.220297 0.975433
vn -0.000000 0.280100 0.959971
vn -0.000000 0.894403 0.447263
vn 0.138495 -0.932215 0.334357
vn 0.373282 0.220297 0.901182
vn 0.367365 0.280100 0.886897
vn 0.171160 0.894403 0.413217
vn 0.255906 -0.932215 0.255906
vn 0.689735 0.220297 0.689735
vn 0.678802 0.280100 0.678802
vn 0.316263 0.894402 0.316263
vn 0.334357 -0.932215 0.138495
vn 0.901182 0.220297 0.373282
vn 0.886897 0.280100 0.367365
vn 0.413217 0.894402 0.171160
s 1
g pCylinder5
usemtl initialShadingGroup
f 1/135/1 2/1/2 32/18/3 31/165/4
f 2/1/2 1/135/1 3/137/5 4/2/6
f 4/2/6 3/137/5 5/139/7 6/3/8
f 6/3/8 5/139/7 7/141/9 8/4/10
f 8/4/10 7/141/9 9/143/11 10/5/12
f 10/5/12 9/143/11 11/145/13 12/6/14
f 12/6/14 11/145/13 13/147/15 14/7/16
f 14/7/16 13/147/15 15/149/17 16/8/18
f 16/8/18 15/149/17 17/151/19 18/9/20
f 18/9/20 17/151/19 19/153/21 20/10/22
f 20/10/22 19/153/21 21/155/23 22/11/24
f 22/11/24 21/155/23 23/12/25 24/13/26
f 24/14/26 23/157/25 25/159/27 26/15/28
f 26/15/28 25/159/27 27/161/29 28/16/30
f 28/16/30 27/161/29 29/163/31 30/17/32
f 30/17/32 29/163/31 31/165/4 32/18/3
f 33/166/33 34/19/34 36/21/35 35/136/36
f 34/19/34 33/166/33 63/164/37 64/20/38
f 35/136/36 36/21/35 38/22/39 37/138/40
f 37/138/40 38/22/39 40/23/41 39/140/42
f 39/140/42 40/23/41 42/24/43 41/142/44
f 41/142/44 42/24/43 44/25/45 43/144/46
f 43/144/46 44/25/45 46/26/47 45/146/48
f 45/146/48 46/26/47 48/27/49 47/148/50
f 47/148/50 48/27/49 50/28/51 49/150/52
f 49/150/52 50/28/51 52/29/53 51/152/54
f 51/152/54 52/29/53 54/30/55 53/154/56
f 53/154/56 54/30/55 56/31/57 55/156/58
f 55/32/58 56/33/57 58/34/59 57/158/60
f 57/158/60 58/34/59 60/35/61 59/160/62
f 59/160/62 60/35/61 62/36/63 61/162/64
f 61/162/64 62/36/63 64/20/38 63/164/37
f 65/37/65 66/133/66 125/131/67 126/38/68
f 66/133/66 65/39/65 68/40/69 67/103/70
f 67/103/70 68/41/69 74/42/71 73/105/72
f 69/43/73 70/106/74 76/108/75 75/44/76
f 70/106/74 69/45/73 72/46/77 71/104/78
f 71/104/78 72/47/77 127/48/79 128/134/80
f 73/105/72 74/49/71 78/50/81 77/107/82
f 75/51/76 76/108/75 80/110/83 79/52/84
f 77/107/82 78/53/81 82/54/85 81/109/86
f 79/55/84 80/110/83 84/112/87 83/56/88
f 81/109/86 82/57/85 86/58/89 85/111/90
f 83/59/88 84/112/87 88/114/91 87/60/92
f 85/111/90 86/61/89 90/62/93 89/113/94
f 87/63/92 88/114/91 92/116/95 91/64/96
f 89/113/94 90/65/93 94/66/97 93/115/98
f 91/67/96 92/116/95 96/118/99 95/68/100
f 93/115/98 94/69/97 98/70/101 97/117/102
f 95/71/100 96/118/99 100/120/103 99/72/104
f 97/117/102 98/73/101 102/74/105 101/119/106
f 99/75/104 100/120/103 104/122/107 103/76/108
f 101/119/106 102/77/105 106/78/109 105/121/110
f 103/79/108 104/122/107 108/124/111 107/80/112
f 105/121/110 106/81/109 110/82/113 109/123/114
f 107/83/112 108/124/111 112/84/115 111/85/116
f 109/86/114 110/87/113 114/88/117 113/125/118
f 111/89/116 112/126/115 116/128/119 115/90/120
f 113/125/118 114/91/117 118/92/121 117/127/122
f 115/93/120 116/128/119 120/130/123 119/94/124
f 117/127/122 118/95/121 122/96/125 121/129/126
f 119/97/124 120/130/123 124/132/127 123/98/128
f 121/129/126 122/99/125 126/100/68 125/131/67
f 123/101/128 124/132/127 128/134/80 127/102/79
f 66/133/66 67/103/70 70/106/74 71/104/78
f 67/103/70 73/105/72 76/108/75 70/106/74
f 73/105/72 77/107/82 80/110/83 76/108/75
f 77/107/82 81/109/86 84/112/87 80/110/83
f 81/109/86 85/111/90 88/114/91 84/112/87
f 85/111/90 89/113/94 92/116/95 88/114/91
f 89/113/94 93/115/98 96/118/99 92/116/95
f 93/115/98 97/117/102 100/120/103 96/118/99
f 97/117/102 101/119/106 104/122/107 100/120/103
f 101/119/106 105/121/110 108/124/111 104/122/107
f 105/121/110 109/123/114 112/84/115 108/124/111
f 109/86/114 113/125/118 116/128/119 112/126/115
f 113/125/118 117/127/122 120/130/123 116/128/119
f 117/127/122 121/129/126 124/132/127 120/130/123
f 121/129/126 125/131/67 128/134/80 124/132/127
f 125/131/67 66/133/66 71/104/78 128/134/80
f 1/135/1 33/166/33 35/136/36 3/137/5
f 3/137/5 35/136/36 37/138/40 5/139/7
f 5/139/7 37/138/40 39/140/42 7/141/9
f 7/141/9 39/140/42 41/142/44 9/143/11
f 9/143/11 41/142/44 43/144/46 11/145/13
f 11/145/13 43/144/46 45/146/48 13/147/15
f 13/147/15 45/146/48 47/148/50 15/149/17
f 15/149/17 47/148/50 49/150/52 17/151/19
f 17/151/19 49/150/52 51/152/54 19/153/21
f 19/153/21 51/152/54 53/154/56 21/155/23
f 21/155/23 53/154/56 55/156/58 23/12/25
f 23/157/25 55/32/58 57/158/60 25/159/27
f 25/159/27 57/158/60 59/160/62 27/161/29
f 27/161/29 59/160/62 61/162/64 29/163/31
f 29/163/31 61/162/64 63/164/37 31/165/4
f 31/165/4 63/164/37 33/166/33 1/135/1
f 2/227/2 4/167/6 68/172/69 65/168/65
f 36/173/35 34/169/34 72/230/77 69/170/73
f 4/167/6 6/171/8 74/176/71 68/172/69
f 38/177/39 36/173/35 69/170/73 75/174/76
f 6/171/8 8/175/10 78/180/81 74/176/71
f 40/181/41 38/177/39 75/174/76 79/178/84
f 8/175/10 10/179/12 82/184/85 78/180/81
f 42/185/43 40/181/41 79/178/84 83/182/88
f 10/179/12 12/183/14 86/188/89 82/184/85
f 44/189/45 42/185/43 83/182/88 87/186/92
f 12/183/14 14/187/16 90/192/93 86/188/89
f 46/193/47 44/189/45 87/186/92 91/190/96
f 14/187/16 16/191/18 94/196/97 90/192/93
f 48/197/49 46/193/47 91/190/96 95/194/100
f 16/191/18 18/195/20 98/200/101 94/196/97
f 50/201/51 48/197/49 95/194/100 99/198/104
f 18/195/20 20/199/22 102/204/105 98/200/101
f 52/205/53 50/201/51 99/198/104 103/202/108
f 20/199/22 22/203/24 106/208/109 102/204/105
f 54/209/55 52/205/53 103/202/108 107/206/112
f 22/203/24 24/207/26 110/212/113 106/208/109
f 56/213/57 54/209/55 107/206/112 111/210/116
f 24/207/26 26/211/28 114/216/117 110/212/113
f 58/217/59 56/213/57 111/210/116 115/214/120
f 26/211/28 28/215/30 118/220/121 114/216/117
f 60/221/61 58/217/59 115/214/120 119/218/124
f 28/215/30 30/219/32 122/224/125 118/220/121
f 62/225/63 60/221/61 119/218/124 123/222/128
f 30/219/32 32/223/3 126/228/68 122/224/125
f 64/229/38 62/225/63 123/222/128 127/226/79
f 32/223/3 2/227/2 65/168/65 126/228/68
f 34/169/34 64/229/38 127/226/79 72/230/77
