# File exported by Houdini 16.5.496 (www.sidefx.com)
# 28 points
# 56 vertices
# 14 primitives
# Bounds: [-9.02859116, -0.447212964, -1.99999988] to [9.02859116, 4.58541012, 2.00000024]
g 
v 0.25 4.08541012 -1.99999976
v 0.25 4.58541012 -1.9999994
v -0.25 4.08541012 -1.9999994
v -0.25 4.58541012 -1.99999976
v -8 0 -1.99999988
v 0 4 -1.99999952
v 8 0 -1.99999952
v -8.13416386 0.26832816 -1.99999952
v 0 4.33541012 -1.99999988
v 8.13416386 0.26832816 -1.99999988
v 8.8944273 -0.447212964 -1.99999988
v 9.02859116 -0.178884804 -1.99999952
v -8.8944273 -0.447212964 -1.99999952
v -9.02859116 -0.178884804 -1.99999988
v 0.25 4.08541012 2.00000024
v 0.25 4.58541012 2.00000024
v -0.25 4.08541012 2
v 0 4.33541012 2
v 8.13416386 0.26832816 2.00000024
v -8.8944273 -0.447212964 2.00000024
v -9.02859116 -0.178884804 2.00000024
v 9.02859116 -0.178884804 2
v -8 0 2
v -0.25 4.58541012 2.00000024
v 0 4 2.00000024
v 8 0 2.00000024
v -8.13416386 0.26832816 2.00000024
v 8.8944273 -0.447212964 2.00000024
vt 0.242125958 0.231973022 0
vt 0.242125958 0.12470226 0
vt 0.460265428 0.124702252 0
vt 0.460265428 0.231973022 0
vt 0.557394743 0 0
vt 0.557394803 0.026723247 0
vt 0.343608826 0.026723247 0
vt 0.343608797 0 0
vt 0.0239864737 0.497125596 0
vt 0.238527998 0.497125596 0
vt 0.238527998 0.604396343 0
vt 0.0239864737 0.604396343 0
vt 0.238527998 0.497125596 0
vt 0.453069538 0.497125596 0
vt 0.453069538 0.604396343 0
vt 0.238527998 0.604396343 0
vt 0.0239864737 0.231973022 0
vt 0.0239864737 0.12470226 0
vt 0.242125958 0.12470226 0
vt 0.242125958 0.231973022 0
vt 0.231973022 0.767790675 0
vt 0.231973022 0.774986565 0
vt 0.124702267 0.774986565 0
vt 0.124702252 0.767790675 0
vt 0.453069538 0.497125596 0
vt 0.477055997 0.497125596 0
vt 0.477055997 0.604396343 0
vt 0.453069538 0.604396343 0
vt 0.0239864737 0.231973022 0
vt 0 0.231973022 0
vt 0 0.124702252 0
vt 0.0239864737 0.12470226 0
vt 0.275249273 0.479492188 0
vt 0.48903513 0.479492188 0
vt 0.4890351 0.506215453 0
vt 0.275249273 0.506215453 0
vt 0.489035368 0.450195313 0
vt 0.489035368 0.476918548 0
vt 0.275249451 0.476918548 0
vt 0.275249422 0.450195313 0
vt 0.231973037 0.744846642 0
vt 0.231973037 0.752042592 0
vt 0.124702267 0.752042592 0
vt 0.124702282 0.744846642 0
vt 0.460265428 0.124702252 0
vt 0.484251916 0.124702267 0
vt 0.484251916 0.231973022 0
vt 0.460265428 0.231973022 0
vt 0.0239864737 0.604396343 0
vt 0 0.604396343 0
vt 0 0.497125596 0
vt 0.0239864737 0.497125596 0
vt 0.275249332 0.508789063 0
vt 0.489035159 0.508789063 0
vt 0.489035159 0.535512328 0
vt 0.275249302 0.535512328 0
vn 0 1 0
vn 0 1 0
vn 0.447213352 0.894427359 0
vn 0.447213352 0.894427359 0
vn 0 1 0
vn 0 1 0
vn 0 1 0
vn 0 1 0
vn 0.447213352 -0.894427359 0
vn 0 -1 0
vn 0 -1 0
vn 0.447213352 -0.894427359 0
vn 0 -1 0
vn -0.447213352 -0.894427359 0
vn -0.447213352 -0.894427359 0
vn 0 -1 0
vn -0.447213352 0.894427359 0
vn -0.447213352 0.894427359 0
vn 0 1 0
vn 0 1 0
vn 0.894427538 -0.447213024 0
vn 0.894427538 -0.447213024 0
vn 0.894427538 -0.447213024 0
vn 0.894427538 -0.447213024 0
vn -0.447213352 -0.894427359 0
vn -0.447213084 -0.894427538 0
vn -0.447213084 -0.894427538 0
vn -0.447213352 -0.894427359 0
vn -0.447213352 0.894427359 0
vn -0.447213084 0.894427538 0
vn -0.447213084 0.894427538 0
vn -0.447213352 0.894427359 0
vn 1 0 0
vn 1 0 0
vn 1 0 0
vn 1 0 0
vn 0 -1 0
vn 0 -1 0
vn 0 -1 0
vn 0 -1 0
vn -0.894427538 -0.447213024 0
vn -0.894427538 -0.447213024 0
vn -0.894427538 -0.447213024 0
vn -0.894427538 -0.447213024 0
vn 0.447213352 0.894427359 0
vn 0.447213084 0.894427538 0
vn 0.447213084 0.894427538 0
vn 0.447213352 0.894427359 0
vn 0.447213352 -0.894427359 0
vn 0.447213084 -0.894427538 0
vn 0.447213084 -0.894427538 0
vn 0.447213352 -0.894427359 0
vn -1 0 0
vn -1 0 0
vn -1 0 0
vn -1 0 0
g roofBits
f 9/1/1 18/2/2 19/3/3 10/4/4
f 5/9/9 6/10/10 25/11/11 23/12/12
f 6/13/13 7/14/14 26/15/15 25/16/16
f 8/17/17 27/18/18 18/19/19 9/20/20
f 11/21/21 12/22/22 22/23/23 28/24/24
f 7/25/25 11/26/26 28/27/27 26/28/28
f 8/29/29 14/30/30 21/31/31 27/32/32
f 20/41/41 21/42/42 14/43/43 13/44/44
f 19/45/45 22/46/46 12/47/47 10/48/48
f 23/49/49 20/50/50 13/51/51 5/52/52
g woodBits
f 2/5/5 4/6/6 24/7/7 16/8/8
f 15/33/33 1/34/34 2/35/35 16/36/36
f 15/37/37 17/38/38 3/39/39 1/40/40
f 3/53/53 17/54/54 24/55/55 4/56/56
