# File exported by Houdini 16.5.496 (www.sidefx.com)
# 83 points
# 240 vertices
# 61 primitives
# Bounds: [-4.91923904, -0.816187859, -2.00000048] to [4.91923904, 4.67426395, 3.1500001]
g 
v 0.25 4.17426395 3.1500001
v -0.25 4.17426395 3.1500001
v 0.25 4.67426395 3.1500001
v -0.25 4.67426395 3.1500001
v -0.150000006 1.43423673e-08 2.08500004
v -0.150000006 3.8499999 2.08500004
v -1.04094973e-17 4 2.08500004
v 0.150000006 3.8499999 2.08500004
v 0.150000006 1.43423673e-08 2.08500004
v -1.04094973e-17 1.49011612e-08 2.08500004
v 1.89393401 2.10606599 2.07200003
v 2.10606599 1.89393401 2.07200003
v 0.212132052 1.4110908e-08 2.07200003
v -8.81745582e-18 1.49011612e-08 2.07200003
v -0.106066018 0.106066018 2.07200003
v -1.89393401 2.10606599 2.07200003
v -2.10606599 1.89393401 2.07200003
v -0.212132052 1.4110908e-08 2.07200003
v 0.106066018 0.106066018 2.07200003
v -0.150000006 3.8499999 1.95499992
v -0.150000006 1.43423673e-08 1.95499992
v 0.150000006 3.8499999 1.95499992
v 0.150000006 1.43423673e-08 1.95499992
v 5.51091133e-18 4 1.95499992
v 5.51091051e-18 1.49011612e-08 1.95499992
v 1.89393401 2.10606599 1.95499992
v -0.106066018 0.106066018 1.95499992
v 0.212132052 1.4110908e-08 1.95499992
v 2.10606599 1.89393401 1.95499992
v -6.45716991e-09 1.49011612e-08 1.95499992
v -1.89393401 2.10606599 1.95499992
v 0.106066018 0.106066018 1.95499992
v -0.212132052 1.4110908e-08 1.95499992
v -2.10606599 1.89393401 1.95499992
v -6.45716902e-09 1.49011612e-08 1.95499992
v -4 -0.300000012 1.80000019
v 0 3.70000005 1.80000019
v 4 -0.300000012 1.80000019
v -4 -0.300000012 2.19999981
v 0 3.70000005 2.19999981
v 4 -0.300000012 2.19999981
v -4.28284264 -0.0171572864 1.80000019
v 0 4.26568508 1.80000019
v 0 4.26568508 2.19999981
v -4.28284264 -0.0171572864 2.19999981
v 4.28284264 -0.0171572864 1.80000019
v 4.28284264 -0.0171572864 2.19999981
v 4.51618814 -0.816187859 1.80000019
v 4.51618814 -0.816187859 2.19999981
v 4.79903078 -0.533345103 2.19999981
v 4.79903078 -0.533345103 1.80000019
v -4.51618814 -0.816187859 2.19999981
v -4.51618814 -0.816187859 1.80000019
v -4.79903078 -0.533345103 1.80000019
v -4.79903078 -0.533345103 2.19999981
v -4 0 2.6500001
v 0 4 2.6500001
v 4 0 2.6500001
v 0 4.42426395 2.6500001
v -4.21213198 0.212132037 2.6500001
v 4.21213198 0.212132037 2.6500001
v 4.70710707 -0.70710665 2.6500001
v 4.91923904 -0.494974613 2.6500001
v -4.70710707 -0.70710665 2.6500001
v -4.91923904 -0.494974613 2.6500001
v 4 0 2
v 0 4 2
v -4 0 2
v 0 1.49011612e-08 2
v 0.25 4.17426395 -2.00000048
v 0.25 4.67426395 -2.00000024
v -0.25 4.17426395 -2.00000024
v -0.25 4.67426395 -2.00000048
v -4 0 -2.00000048
v 0 4 -2
v 4 0 -2
v -4.21213198 0.212132037 -2
v 0 4.42426395 -2.00000048
v 4.21213198 0.212132037 -2.00000048
v 4.70710707 -0.70710665 -2.00000048
v 4.91923904 -0.494974613 -2
v -4.70710707 -0.70710665 -2
v -4.91923904 -0.494974613 -2.00000048
vt 0 0.068359375 0
vt 0.326248974 0.068359375 0
vt 0.326248944 0.100034058 0
vt 0 0.100034058 0
vt 0.389648438 0.170898438 0
vt 0.421323121 0.170898438 0
vt 0.421323121 0.202573106 0
vt 0.389648438 0.202573106 0
vt 0.905895472 0.0341796875 0
vt 0.905895472 0.0658543631 0
vt 0.579646409 0.0658543631 0
vt 0.579646349 0.0341796875 0
vt 0.279764533 0.404033661 0
vt 0.0263671875 0.404033661 0
vt 0.0263671875 0.39453125 0
vt 0.270262122 0.39453125 0
vt 0.270262241 0.4672198 0
vt 0.0263671875 0.4672198 0
vt 0.0263671875 0.458984375 0
vt 0.270262241 0.458984375 0
vt 0.272460938 0.39453125 0
vt 0.272460938 0.39453125 0
vt 0.272460938 0.39453125 0
vt 0.272460938 0.39453125 0
vt 0.0358695872 0.48046878 0
vt 0.0263671875 0.499473572 0
vt 0.0263671875 0.489971161 0
vt 0.196351424 0.5234375 0
vt 0.196351424 0.531250298 0
vt 0.0263671875 0.531250298 0
vt 0.0263671875 0.5234375 0
vt 0.458007813 0.155273736 0
vt 0.458007813 0.147460938 0
vt 0.618977249 0.147460938 0
vt 0.618977249 0.155273736 0
vt 0.3515625 0.13671875 0
vt 0.360577285 0.13671875 0
vt 0.360577285 0.144531548 0
vt 0.3515625 0.144531548 0
vt 0.274414063 0.39453125 0
vt 0.274414063 0.39453125 0
vt 0.274414063 0.39453125 0
vt 0.274414063 0.39453125 0
vt 0.0263671875 0.511455536 0
vt 0.205546156 0.501953125 0
vt 0.0358695872 0.501953125 0
vt 0.368226409 0.5234375 0
vt 0.198242188 0.5234375 0
vt 0.198242188 0.531250298 0
vt 0.368226409 0.531250298 0
vt 0.62109375 0.155273736 0
vt 0.782063186 0.155273736 0
vt 0.782063186 0.147460938 0
vt 0.62109375 0.147460938 0
vt 0.3515625 0.147460938 0
vt 0.3515625 0.155273736 0
vt 0.360577285 0.155273736 0
vt 0.360577285 0.147460938 0
vt 0.276367188 0.39453125 0
vt 0.276367188 0.39453125 0
vt 0.276367188 0.39453125 0
vt 0.276367188 0.39453125 0
vt 0.205546156 0.520957947 0
vt 0.205546156 0.501953125 0
vt 0.0263671875 0.511455536 0
vt 0.0263671875 0.520957947 0
vt 0.20554617 0.499473542 0
vt 0.0263671875 0.499473572 0
vt 0.0358695872 0.48046878 0
vt 0.20554617 0.48046875 0
vt 0.0263671875 0.413536042 0
vt 0.0263671875 0.404033661 0
vt 0.279764533 0.404033661 0
vt 0.270262122 0.413536042 0
vt 0.270262301 0.445735425 0
vt 0.0263671875 0.445735425 0
vt 0.0263671875 0.4375 0
vt 0.270262301 0.4375 0
vt 0.272460938 0.39453125 0
vt 0.272460938 0.39453125 0
vt 0.272460938 0.39453125 0
vt 0.272460938 0.39453125 0
vt 0.278320313 0.39453125 0
vt 0.278320313 0.39453125 0
vt 0.278320313 0.39453125 0
vt 0.278320313 0.39453125 0
vt 0.278320313 0.39453125 0
vt 0.278320313 0.39453125 0
vt 0.278320313 0.39453125 0
vt 0.278320313 0.39453125 0
vt 0.280273438 0.39453125 0
vt 0.280273438 0.39453125 0
vt 0.280273438 0.39453125 0
vt 0.280273438 0.39453125 0
vt 0.274414063 0.396484375 0
vt 0.274414063 0.396484375 0
vt 0.274414063 0.396484375 0
vt 0.274414063 0.396484375 0
vt 0.0263671875 0.330078125 0
vt 0.327709168 0.330078125 0
vt 0.327709168 0.360212296 0
vt 0.0263671875 0.360212296 0
vt 0.327709168 0.392438859 0
vt 0.0263671875 0.392438859 0
vt 0.0263671875 0.362304688 0
vt 0.327709168 0.362304688 0
vt 0.0263671875 0.263532639 0
vt 0.0263671875 0.233398438 0
vt 0.349016964 0.233398438 0
vt 0.349016964 0.263532639 0
vt 0.349016994 0.168945313 0
vt 0.349016994 0.199079499 0
vt 0.0263671875 0.199079499 0
vt 0.0263671875 0.168945313 0
vt 0.477885664 0.59467572 0
vt 0.477885664 0.569335997 0
vt 0.861583412 0.569335938 0
vt 0.836243689 0.59467566 0
vt 0.836243689 0.59467566 0
vt 0.861583412 0.569335938 0
vt 0.861583412 0.953033745 0
vt 0.836243689 0.953033686 0
vt 0.815338433 0.541321754 0
vt 0.815338433 0.566661477 0
vt 0.431640685 0.566661537 0
vt 0.456980407 0.541321814 0
vt 0.456980407 0.541321814 0
vt 0.431640685 0.566661537 0
vt 0.431640655 0.182963789 0
vt 0.456980377 0.182963774 0
vt 0.419782639 0.251953125 0
vt 0.419782639 0.273261189 0
vt 0.389648438 0.273261189 0
vt 0.389648438 0.251953125 0
vt 0.419782639 0.275390625 0
vt 0.419782639 0.296698689 0
vt 0.389648438 0.296698689 0
vt 0.389648438 0.275390625 0
vt 0.330078125 0.297851563 0
vt 0.368965417 0.297851563 0
vt 0.368965417 0.327985734 0
vt 0.330078125 0.327985734 0
vt 0.815338433 0.541321754 0
vt 0.861583531 0.541321754 0
vt 0.861583531 0.566661537 0
vt 0.815338433 0.566661477 0
vt 0.282226563 0.426757813 0
vt 0.321113855 0.426757813 0
vt 0.321113855 0.456891984 0
vt 0.282226563 0.456891984 0
vt 0.861583412 0.953033745 0
vt 0.861583471 0.999278724 0
vt 0.836243749 0.999278724 0
vt 0.836243689 0.953033686 0
vt 0.368965417 0.392438859 0
vt 0.330078125 0.392438859 0
vt 0.330078125 0.362304688 0
vt 0.368965417 0.362304688 0
vt 0.477885664 0.59467572 0
vt 0.431640655 0.59467566 0
vt 0.431640625 0.569335938 0
vt 0.477885664 0.569335997 0
vt 0.36212948 0.456891984 0
vt 0.323242188 0.456891984 0
vt 0.323242188 0.426757813 0
vt 0.36212948 0.426757813 0
vt 0.431640655 0.182963789 0
vt 0.431640625 0.13671875 0
vt 0.456980377 0.13671875 0
vt 0.456980377 0.182963774 0
vt 0.139771864 0.266617775 0
vt 0 0.266617775 0
vt 0 0.14000757 0
vt 0.139771864 0.14000757 0
vt 0.68127352 0.0212545376 0
vt 0.687649846 0.027630901 0
vt 0.561039686 0.1542411 0
vt 0.561039686 0.141488388 0
vt 0.561039686 0.141488388 0
vt 0.561039686 0.1542411 0
vt 0.434429467 0.027630901 0
vt 0.440805823 0.0212545376 0
vt 0.399777561 0.54727751 0
vt 0.399777561 0.553653955 0
vt 0.260005683 0.553653955 0
vt 0.260005713 0.54727751 0
vt 0.68127352 0.0212545376 0
vt 0.702528119 0 0
vt 0.708904445 0.00637636287 0
vt 0.687649846 0.027630901 0
vt 0 0.586825013 0
vt 0.0212545507 0.586825013 0
vt 0.0212545507 0.726596832 0
vt 0 0.726596892 0
vt 0.0559064634 0.986602545 0
vt 0.0346519127 0.986602545 0
vt 0.0346519127 0.846830726 0
vt 0.0559064634 0.846830666 0
vt 0.434429467 0.027630901 0
vt 0.413174927 0.00637636287 0
vt 0.419551253 0 0
vt 0.440805823 0.0212545376 0
vt 0.478515655 1.78260973e-09 0
vt 0.478515655 0.478515655 0
vt 0 0 0
vt 0.95703131 0 0
vt 0.478515655 0.478515655 0
vt 0.478515655 1.78260973e-09 0
vt 0.57964617 0.102539063 0
vt 0.905895114 0.102539063 0
vt 0.905895114 0.134213746 0
vt 0.579646111 0.134213746 0
vt 0.326249123 0 0
vt 0.326249152 0.0316746719 0
vt 0 0.0316746719 0
vt 0 0 0
vt 0.139771864 0.41364637 0
vt 0.139771864 0.533880234 0
vt 0 0.533880234 0
vt 0 0.41364637 0
vt 0.260005713 0.400249004 0
vt 0.260005713 0.280015141 0
vt 0.399777561 0.280015141 0
vt 0.399777561 0.400249004 0
vt 0.260005713 0 0
vt 0.399777561 0 0
vt 0.399777561 0.126610205 0
vt 0.260005683 0.126610205 0
vt 0.139771864 0.567051291 0
vt 0.139771864 0.573427677 0
vt 0 0.573427677 0
vt 0 0.567051291 0
vt 0.0693038255 0.846830726 0
vt 0.0905583799 0.846830666 0
vt 0.0905583799 0.986602545 0
vt 0.0693038255 0.986602545 0
vt 0.74355638 0.139771864 0
vt 0.722301841 0.139771864 0
vt 0.722301841 0 0
vt 0.74355638 0 0
vn 1 -0 -0
vn 1 0 0
vn 1 0 0
vn 1 -0 -0
vn -0 -0 1
vn 0 0 1
vn -0 -0 1
vn -0 -0 1
vn 0 -1 -0
vn -0 -1 -0
vn 0 -1 0
vn 0 -1 0
vn -0 -0 1
vn -0 0 1
vn 0 0 1
vn -0 -0 1
vn 0.923879504 0.382683277 -0
vn 1 -0 -0
vn 1 -0 -0
vn 0.923879504 0.382683277 0
vn -0.707107067 0.70710659 -8.65955597e-17
vn -0.707107067 0.70710659 -8.65955597e-17
vn -0.923879504 0.382683277 -0
vn -0.923879504 0.382683277 0
vn 0 0 1
vn 0 0 1
vn 0 0 1
vn -0.707106829 0.707106829 -0
vn -0.707106829 0.707106829 -0
vn -0.707106829 0.707106829 -0
vn -0.707106829 0.707106829 -0
vn 0.382683426 -0.923879445 -0
vn 0.382683426 -0.923879445 -0
vn 0.707106829 -0.707106769 -0
vn 0.707106829 -0.707106769 -0
vn -0.252724737 -0.967538238 1.39477345e-08
vn -0.707106769 -0.707106829 0
vn -0.707106769 -0.707106829 0
vn -0.382683426 -0.923879504 2.11200817e-08
vn 0.707106829 0.707106829 0
vn 0.707106829 0.707106829 0
vn 0.707106829 0.707106829 -0
vn 0.707106829 0.707106829 -0
vn 0 0 1
vn 0 0 1
vn 0 0 1
vn 0.707106829 0.707106829 0
vn 0.707106829 0.707106829 -0
vn 0.707106829 0.707106829 -0
vn 0.707106829 0.707106829 0
vn -0.382683426 -0.923879445 -0
vn -0.707106829 -0.707106829 0
vn -0.707106829 -0.707106769 0
vn -0.382683426 -0.923879445 -0
vn 0.707106769 -0.707106888 -3.90248154e-08
vn 0.382683337 -0.923879504 -2.11200764e-08
vn 0.70710665 -0.707106888 -0
vn 0.707106769 -0.707106888 -0
vn 0.382683337 -0.923879504 -2.11200764e-08
vn -0.252724737 -0.967538238 1.39477345e-08
vn -0.382683426 -0.923879445 -0
vn -0.382683426 -0.923879445 -0
vn -0 -0 1
vn 0 0 1
vn 0 0 1
vn -0 0 1
vn -0 -0 1
vn 0 0 1
vn 0 0 1
vn -0 0 1
vn 0 -0 1
vn -0 0 1
vn -0 -0 1
vn -0 -0 1
vn -0.923879504 0.382683277 -0
vn -1 0 -0
vn -1 -0 -0
vn -0.923879504 0.382683277 0
vn 0.923879504 0.382683277 -0
vn 0.923879504 0.382683277 0
vn 0.707107067 0.70710659 8.65955597e-17
vn 0.707107067 0.70710659 8.65955597e-17
vn 0 -1 0
vn 0 -1 0
vn 3.72529252e-09 -1 -0
vn 3.72529252e-09 -1 -0
vn 0 -1 0
vn -3.72529252e-09 -1 -0
vn -3.72529252e-09 -1 -0
vn 0 -1 0
vn -0.382683426 -0.923879504 2.11200817e-08
vn 0.382683426 -0.923879445 -0
vn 0.382683426 -0.923879445 -0
vn -0.252724737 -0.967538238 1.39477345e-08
vn -0.707106829 0.707106829 -0
vn -0.707106829 0.707106829 -0
vn -0.707106829 0.707106829 -0
vn -0.707106829 0.707106829 -0
vn 0.70710665 -0.707106888 -0
vn 0.707106829 -0.707106829 -0
vn 0.707106829 -0.707106829 -0
vn 0.70710665 -0.707106888 -0
vn -0.707106829 -0.707106829 0
vn -0.70710665 -0.707106888 0
vn -0.70710665 -0.707106888 0
vn -0.707106829 -0.707106829 0
vn -0.70710665 0.707106948 -0
vn -0.70710665 0.707106948 -0
vn -0.707106829 0.707106829 -0
vn -0.707106829 0.707106829 -0
vn 0.707106829 0.707106829 0
vn 0.707106829 0.707106829 0
vn 0.70710665 0.707106948 0
vn 0.70710665 0.707106948 0
vn 0 0 -1
vn -0 -0 -1
vn -0 0 -1
vn -0 -0 -1
vn -0 -0 -1
vn -0 0 -1
vn -0 0 -1
vn 0 -0 -1
vn 0 -0 1
vn -0 0 1
vn -0 -0 1
vn -0 0 1
vn -0 0 1
vn -0 -0 1
vn -0 -0 1
vn 0 0 1
vn 0.707106888 -0.70710665 -0
vn 0.707106888 -0.70710665 -0
vn 0.707106888 -0.70710665 -0
vn 0.707106888 -0.70710665 -0
vn -0.707106888 -0.70710665 -0
vn -0.707106888 -0.70710665 0
vn -0.707106888 -0.70710665 0
vn -0.707106888 -0.70710665 -0
vn -0.70710665 -0.707106888 0
vn -0.70710659 -0.707107008 -0
vn -0.70710659 -0.707107008 -0
vn -0.70710665 -0.707106888 0
vn 0 -0 1
vn 0 -0 1
vn -0 0 1
vn -0 0 1
vn 0.70710665 0.707106948 0
vn 0.70710659 0.707107067 -0
vn 0.70710659 0.707107067 -0
vn 0.70710665 0.707106948 0
vn -0 0 -1
vn -0 0 -1
vn 0 -0 -1
vn 0 -0 -1
vn 0.70710665 -0.707106888 -0
vn 0.70710659 -0.707107008 -0
vn 0.70710659 -0.707107008 -0
vn 0.70710665 -0.707106888 -0
vn 0 0 -1
vn 0 -0 -1
vn -0 -0 -1
vn -0 -0 -1
vn -0.70710665 0.707106948 -0
vn -0.70710659 0.707107067 -0
vn -0.70710659 0.707107067 -0
vn -0.70710665 0.707106948 -0
vn -0 -0 1
vn -0 -0 1
vn 0 -0 1
vn 0 0 1
vn 0.707106829 0.707106829 0
vn 0.707106829 0.707106829 0
vn 0.70710665 0.707106888 0
vn 0.70710665 0.707106888 0
vn 0 -0 1
vn -0 0 1
vn -0 -0 1
vn -0 0 1
vn -0 0 1
vn -0 -0 1
vn -0 -0 1
vn 0 0 1
vn -0.707106888 -0.70710665 -0
vn -0.707106888 -0.70710665 0
vn -0.707106888 -0.70710665 0
vn -0.707106888 -0.70710665 0
vn 0 -0 1
vn 0 -0 0.99999994
vn -0 0 1
vn -0 0 1
vn 0.70710665 0.707106888 0
vn 0.70710659 0.707107008 -0
vn 0.70710659 0.707107008 0
vn 0.70710665 0.707106888 0
vn 0.70710665 -0.707106888 -0
vn 0.70710659 -0.707107008 -0
vn 0.70710659 -0.707107008 0
vn 0.70710665 -0.707106888 0
vn -0 -0 1
vn -0 -0 1
vn 0 -0 0.99999994
vn 0 0 1
vn 0 0 1
vn 0 0 1
vn 0 0 1
vn 0 0 1
vn 0 0 1
vn 0 0 1
vn -1 0 0
vn -1 -0 -0
vn -1 -0 0
vn -1 0 0
vn 0 1 0
vn 0 1 0
vn 0 1 0
vn -0 1 -0
vn 0.70710665 -0.707106888 0
vn 0.707106829 -0.707106829 0
vn 0.707106829 -0.707106829 -0
vn 0.70710665 -0.707106888 -0
vn -0.707106829 -0.707106829 0
vn -0.70710665 -0.707106888 0
vn -0.70710665 -0.707106888 0
vn -0.707106829 -0.707106829 0
vn -0.70710665 0.707106888 0
vn -0.70710665 0.707106888 -0
vn -0.707106829 0.707106829 -0
vn -0.707106829 0.707106829 0
vn 0.707106888 -0.70710665 0
vn 0.707106888 -0.70710665 0
vn 0.707106888 -0.70710665 -0
vn 0.707106888 -0.70710665 -0
vn -0.70710665 -0.707106888 0
vn -0.70710659 -0.707107008 0
vn -0.70710659 -0.707107008 -0
vn -0.70710665 -0.707106888 0
vn -0.70710665 0.707106888 0
vn -0.70710659 0.707107008 0
vn -0.70710659 0.707107008 -0
vn -0.70710665 0.707106888 -0
g woodBits
f 1/1/1 70/2/2 71/3/3 3/4/4
f 2/5/5 1/6/6 3/7/7 4/8/8
f 1/9/9 2/10/10 72/11/11 70/12/12
f 7/13/13 10/14/14 9/15/15 8/16/16
f 8/17/17 9/18/18 23/19/19 22/20/20
f 7/21/21 24/22/22 20/23/23 6/24/24
f 13/25/25 15/26/26 14/27/27
f 11/28/28 26/29/29 27/30/30 15/31/31
f 13/32/32 28/33/33 29/34/34 12/35/35
f 14/36/36 15/37/37 27/38/38 30/39/39
f 26/40/40 11/41/41 12/42/42 29/43/43
f 14/44/44 17/45/45 18/46/46
f 16/47/47 19/48/48 32/49/49 31/50/50
f 18/51/51 17/52/52 34/53/53 33/54/54
f 14/55/55 35/56/56 32/57/57 19/58/58
f 35/59/59 14/60/60 18/61/61 33/62/62
f 16/63/63 17/64/64 14/65/65 19/66/66
f 11/67/67 15/68/68 13/69/69 12/70/70
f 5/71/71 10/72/72 7/73/73 6/74/74
f 20/75/75 21/76/76 5/77/77 6/78/78
f 8/79/79 22/80/80 24/81/81 7/82/82
f 25/83/83 10/84/84 5/85/85 21/86/86
f 25/87/87 23/88/88 9/89/89 10/90/90
f 30/91/91 28/92/92 13/93/93 14/94/94
f 31/95/95 34/96/96 17/97/97 16/98/98
f 36/99/99 37/100/100 40/101/101 39/102/102
f 37/103/103 38/104/104 41/105/105 40/106/106
f 42/107/107 45/108/108 44/109/109 43/110/110
f 43/111/111 44/112/112 47/113/113 46/114/114
f 36/115/115 42/116/116 43/117/117 37/118/118
f 37/119/119 43/120/120 46/121/121 38/122/122
f 41/123/123 47/124/124 44/125/125 40/126/126
f 40/127/127 44/128/128 45/129/129 39/130/130
f 48/131/131 51/132/132 50/133/133 49/134/134
f 52/135/135 55/136/136 54/137/137 53/138/138
f 38/139/139 48/140/140 49/141/141 41/142/142
f 41/143/143 49/144/144 50/145/145 47/146/146
f 47/147/147 50/148/148 51/149/149 46/150/150
f 46/151/151 51/152/152 48/153/153 38/154/154
f 39/155/155 52/156/156 53/157/157 36/158/158
f 36/159/159 53/160/160 54/161/161 42/162/162
f 42/163/163 54/164/164 55/165/165 45/166/166
f 45/167/167 55/168/168 52/169/169 39/170/170
f 72/209/209 2/210/210 4/211/211 73/212/212
f 71/213/213 73/214/214 4/215/215 3/216/216
g roofBits
f 78/171/171 59/172/172 61/173/173 79/174/174
f 58/175/175 61/176/176 59/177/177 57/178/178
f 57/179/179 59/180/180 60/181/181 56/182/182
f 64/183/183 65/184/184 83/185/185 82/186/186
f 58/187/187 62/188/188 63/189/189 61/190/190
f 61/191/191 63/192/192 81/193/193 79/194/194
f 56/195/195 64/196/196 82/197/197 74/198/198
f 60/199/199 65/200/200 64/201/201 56/202/202
f 74/217/217 75/218/218 57/219/219 56/220/220
f 75/221/221 76/222/222 58/223/223 57/224/224
f 77/225/225 60/226/226 59/227/227 78/228/228
f 80/229/229 81/230/230 63/231/231 62/232/232
f 76/233/233 80/234/234 62/235/235 58/236/236
f 77/237/237 83/238/238 65/239/239 60/240/240
g wallBits
f 69/203/203 67/204/204 68/205/205
f 66/206/206 67/207/207 69/208/208
