# File exported by Houdini 16.5.496 (www.sidefx.com)
# 28 points
# 56 vertices
# 14 primitives
# Bounds: [-2.71554184, -0.89442724, -1.99999988] to [2.71554184, 4.92082024, 2.00000024]
g 
v 0.25 4.42082024 -1.99999976
v 0.25 4.92082024 -1.9999994
v -0.25 4.42082024 -1.9999994
v -0.25 4.92082024 -1.99999976
v -2 0 -1.99999988
v 0 4 -1.99999952
v 2 0 -1.99999952
v -2.26832819 0.13416408 -1.99999952
v 0 4.67082024 -1.99999988
v 2.26832819 0.13416408 -1.99999988
v 2.44721365 -0.89442724 -1.99999988
v 2.71554184 -0.760263145 -1.99999952
v -2.44721365 -0.89442724 -1.99999952
v -2.71554184 -0.760263145 -1.99999988
v 0.25 4.42082024 2.00000024
v 0.25 4.92082024 2.00000024
v -0.25 4.42082024 2
v 0 4.67082024 2
v 2.26832819 0.13416408 2.00000024
v -2.44721365 -0.89442724 2.00000024
v -2.71554184 -0.760263145 2.00000024
v 2.71554184 -0.760263145 2
v -2 0 2
v -0.25 4.92082024 2.00000024
v 0 4 2.00000024
v 2 0 2.00000024
v -2.26832819 0.13416408 2.00000024
v 2.44721365 -0.89442724 2.00000024
vt 0.37362057 0.487482965 0
vt 0.200848058 0.487482965 0
vt 0.200848043 0.291530579 0
vt 0.37362057 0.291530579 0
vt 0.637830317 0 0
vt 0.637830377 0.0348541178 0
vt 0.358997434 0.0348541178 0
vt 0.358997405 0 0
vt 0.37362057 0.808915436 0
vt 0.37362054 0.981687903 0
vt 0.200848043 0.981687903 0
vt 0.200848058 0.808915436 0
vt 0.200848073 0.717200637 0
vt 0.200848073 0.544428051 0
vt 0.37362057 0.544428051 0
vt 0.37362057 0.717200637 0
vt 0.200848073 0.0386331119 0
vt 0.37362057 0.0386331119 0
vt 0.37362057 0.234585479 0
vt 0.200848058 0.234585479 0
vt 0.875580013 0.200848058 0
vt 0.887169898 0.200848073 0
vt 0.887169898 0.37362057 0
vt 0.875580013 0.37362057 0
vt 0.200848073 0.544428051 0
vt 0.200848058 0.505794942 0
vt 0.37362057 0.505794942 0
vt 0.37362057 0.544428051 0
vt 0.200848073 0.0386331119 0
vt 0.200848058 0 0
vt 0.37362057 0 0
vt 0.37362057 0.0386331119 0
vt 0.358997226 0.07421875 0
vt 0.637830019 0.07421875 0
vt 0.637830019 0.109072886 0
vt 0.358997226 0.109072886 0
vt 0.637830317 0.037109375 0
vt 0.637830317 0.0719634965 0
vt 0.358997434 0.0719634965 0
vt 0.358997405 0.037109375 0
vt 0.857268035 0.37362057 0
vt 0.845678091 0.37362057 0
vt 0.845678091 0.200848058 0
vt 0.857268035 0.200848073 0
vt 0.200848043 0.291530579 0
vt 0.200848058 0.252897471 0
vt 0.37362054 0.252897471 0
vt 0.37362057 0.291530579 0
vt 0.200848058 0.808915436 0
vt 0.200848043 0.770282328 0
vt 0.37362054 0.770282328 0
vt 0.37362057 0.808915436 0
vt 0.358997285 0.111328125 0
vt 0.637830079 0.111328125 0
vt 0.637830079 0.146182254 0
vt 0.358997256 0.146182254 0
vn 0.89442718 0.44721359 0
vn 0.89442718 0.44721359 0
vn 0.89442718 0.44721365 0
vn 0.89442718 0.44721365 0
vn 0 1 0
vn 0 1 0
vn 0 1 0
vn 0 1 0
vn 0.89442718 -0.44721365 0
vn 0.89442718 -0.44721359 0
vn 0.89442718 -0.44721359 0
vn 0.89442718 -0.44721365 0
vn -0.89442718 -0.44721359 0
vn -0.89442718 -0.44721365 0
vn -0.89442718 -0.44721365 0
vn -0.89442718 -0.44721359 0
vn -0.89442718 0.44721365 0
vn -0.89442718 0.44721365 0
vn -0.89442718 0.44721359 0
vn -0.89442718 0.44721359 0
vn 0.44721359 -0.89442718 0
vn 0.44721359 -0.89442718 0
vn 0.44721359 -0.89442718 0
vn 0.44721359 -0.89442718 0
vn -0.89442718 -0.44721365 0
vn -0.89442718 -0.44721365 0
vn -0.89442718 -0.44721365 0
vn -0.89442718 -0.44721365 0
vn -0.89442718 0.44721365 0
vn -0.89442718 0.44721365 0
vn -0.89442718 0.44721365 0
vn -0.89442718 0.44721365 0
vn 1 0 0
vn 1 0 0
vn 1 0 0
vn 1 0 0
vn 0 -1 0
vn 0 -1 0
vn 0 -1 0
vn 0 -1 0
vn -0.44721359 -0.89442718 0
vn -0.44721359 -0.89442718 0
vn -0.44721359 -0.89442718 0
vn -0.44721359 -0.89442718 0
vn 0.89442718 0.44721365 0
vn 0.89442718 0.44721365 0
vn 0.89442718 0.44721365 0
vn 0.89442718 0.44721365 0
vn 0.89442718 -0.44721365 0
vn 0.89442718 -0.44721365 0
vn 0.89442718 -0.44721365 0
vn 0.89442718 -0.44721365 0
vn -1 0 0
vn -1 0 0
vn -1 0 0
vn -1 0 0
g roofBits
f 9/1/1 18/2/2 19/3/3 10/4/4
f 5/9/9 6/10/10 25/11/11 23/12/12
f 6/13/13 7/14/14 26/15/15 25/16/16
f 8/17/17 27/18/18 18/19/19 9/20/20
f 11/21/21 12/22/22 22/23/23 28/24/24
f 7/25/25 11/26/26 28/27/27 26/28/28
f 8/29/29 14/30/30 21/31/31 27/32/32
f 20/41/41 21/42/42 14/43/43 13/44/44
f 19/45/45 22/46/46 12/47/47 10/48/48
f 23/49/49 20/50/50 13/51/51 5/52/52
g woodBits
f 2/5/5 4/6/6 24/7/7 16/8/8
f 15/33/33 1/34/34 2/35/35 16/36/36
f 15/37/37 17/38/38 3/39/39 1/40/40
f 3/53/53 17/54/54 24/55/55 4/56/56
