# File exported by Houdini 16.5.496 (www.sidefx.com)
# 83 points
# 240 vertices
# 61 primitives
# Bounds: [-9.02859116, -0.626465976, -2.00000048] to [9.02859116, 4.58541012, 3.1500001]
g 
v 0.25 4.08541012 3.1500001
v -0.25 4.08541012 3.1500001
v 0.25 4.58541012 3.1500001
v -0.25 4.58541012 3.1500001
v -0.150000006 1.46217642e-08 2.08500004
v -0.150000006 3.92499995 2.08500004
v -1.04094973e-17 4 2.08500004
v 0.150000006 3.92499995 2.08500004
v 0.150000006 1.46217642e-08 2.08500004
v -1.04094973e-17 1.49011612e-08 2.08500004
v -0.06708204 0.13416408 2.07200003
v 3.51062679 1.92301846 2.07200003
v 3.64479065 1.65469027 2.07200003
v 0.335410237 1.42764112e-08 2.07200003
v -8.81745582e-18 1.49011612e-08 2.07200003
v 0.06708204 0.13416408 2.07200003
v -3.51062679 1.92301846 2.07200003
v -3.64479065 1.65469027 2.07200003
v -0.335410237 1.42764112e-08 2.07200003
v -0.150000006 3.92499995 1.95499992
v -0.150000006 1.46217642e-08 1.95499992
v 0.150000006 3.92499995 1.95499992
v 0.150000006 1.46217642e-08 1.95499992
v 5.51091133e-18 4 1.95499992
v 5.51091051e-18 1.49011612e-08 1.95499992
v -0.06708204 0.13416408 1.95499992
v 3.51062679 1.92301846 1.95499992
v 3.64479065 1.65469027 1.95499992
v 0.335410237 1.42764112e-08 1.95499992
v -3.22858495e-09 1.49011612e-08 1.95499992
v 0.06708204 0.13416408 1.95499992
v -3.51062679 1.92301846 1.95499992
v -3.64479065 1.65469027 1.95499992
v -0.335410237 1.42764112e-08 1.95499992
v -3.22858451e-09 1.49011612e-08 1.95499992
v -8 -0.300000012 1.80000019
v 0 3.70000005 1.80000019
v 8 -0.300000012 1.80000019
v -8 -0.300000012 2.19999981
v 0 3.70000005 2.19999981
v 8 -0.300000012 2.19999981
v -8.17888546 0.0577708781 1.80000019
v 0 4.14721346 1.80000019
v 0 4.14721346 2.19999981
v -8.17888546 0.0577708781 2.19999981
v 8.17888546 0.0577708781 1.80000019
v 8.17888546 0.0577708781 2.19999981
v 8.65293217 -0.626465976 1.80000019
v 8.65293217 -0.626465976 2.19999981
v 8.83181763 -0.268695086 2.19999981
v 8.83181763 -0.268695086 1.80000019
v -8.65293217 -0.626465976 2.19999981
v -8.65293217 -0.626465976 1.80000019
v -8.83181763 -0.268695086 1.80000019
v -8.83181763 -0.268695086 2.19999981
v -8 0 2.6500001
v 0 4 2.6500001
v 8 0 2.6500001
v 0 4.33541012 2.6500001
v -8.13416386 0.26832816 2.6500001
v 8.13416386 0.26832816 2.6500001
v 8.8944273 -0.447212964 2.6500001
v 9.02859116 -0.178884804 2.6500001
v -8.8944273 -0.447212964 2.6500001
v -9.02859116 -0.178884804 2.6500001
v 8 0 2
v 0 4 2
v -8 0 2
v 0 1.49011612e-08 2
v 0.25 4.08541012 -2.00000048
v 0.25 4.58541012 -2.00000024
v -0.25 4.08541012 -2.00000024
v -0.25 4.58541012 -2.00000048
v -8 0 -2.00000048
v 0 4 -2
v 8 0 -2
v -8.13416386 0.26832816 -2
v 0 4.33541012 -2.00000048
v 8.13416386 0.26832816 -2.00000048
v 8.8944273 -0.447212964 -2.00000048
v 9.02859116 -0.178884804 -2
v -8.8944273 -0.447212964 -2
v -9.02859116 -0.178884804 -2.00000048
vt 0 0.479492188 0
vt 0.275249332 0.479492188 0
vt 0.275249302 0.506215453 0
vt 0 0.506215453 0
vt 0.752929688 0.029296875 0
vt 0.779652953 0.029296875 0
vt 0.779652953 0.056020122 0
vt 0.752929688 0.056020122 0
vt 0.76428479 0.450195313 0
vt 0.76428479 0.476918548 0
vt 0.489035368 0.476918548 0
vt 0.489035338 0.450195313 0
vt 0.319254696 0.0373138487 0
vt 0.10546875 0.0373138487 0
vt 0.10546875 0.029296875 0
vt 0.315246224 0.029296875 0
vt 0.528136969 0.0919089839 0
vt 0.318359375 0.0919089839 0
vt 0.318359375 0.0849609375 0
vt 0.528136969 0.0849609375 0
vt 0.533203125 0.0849609375 0
vt 0.533203125 0.0849609375 0
vt 0.533203125 0.0849609375 0
vt 0.533203125 0.0849609375 0
vt 0.533203125 0.0849609375 0
vt 0.533203125 0.0849609375 0
vt 0.533203125 0.0849609375 0
vt 0.533203125 0.0849609375 0
vt 0.534098446 0.0478515625 0
vt 0.3203125 0.0558685437 0
vt 0.336346447 0.04785157 0
vt 0.0425548926 0.00659149513 0
vt 0.02734375 0.00659149513 0
vt 0.02734375 0 0
vt 0.0425548926 0 0
vt 0.123046875 0.0544430576 0
vt 0.123046875 0.0478515625 0
vt 0.310651004 0.0478515625 0
vt 0.310651004 0.0544430576 0
vt 0.90625 0 0
vt 0.913855553 0 0
vt 0.913855553 0.00659149559 0
vt 0.90625 0.00659149559 0
vt 0.553143322 0.0292968806 0
vt 0.750895321 0.0453308225 0
vt 0.750895321 0.029296875 0
vt 0.532226563 0.102294624 0
vt 0.719830692 0.102294624 0
vt 0.719830692 0.095703125 0
vt 0.532226563 0.095703125 0
vt 0.888671875 0.0087890625 0
vt 0.888671875 0.0153805586 0
vt 0.896277428 0.0153805586 0
vt 0.896277428 0.0087890625 0
vt 0.317382813 0.029296875 0
vt 0.317382813 0.029296875 0
vt 0.317382813 0.029296875 0
vt 0.317382813 0.029296875 0
vt 0.537109375 0.0453308299 0
vt 0.750895321 0.0453308225 0
vt 0.553143322 0.0292968806 0
vt 0.537109375 0.0373138562 0
vt 0.3203125 0.0638855174 0
vt 0.3203125 0.0558685437 0
vt 0.534098446 0.0478515625 0
vt 0.534098446 0.06388551 0
vt 0.10546875 0.0453308225 0
vt 0.10546875 0.0373138487 0
vt 0.319254696 0.0373138487 0
vt 0.315246224 0.0453308225 0
vt 0.744933844 0.0733542964 0
vt 0.53515625 0.0733542964 0
vt 0.53515625 0.06640625 0
vt 0.744933844 0.06640625 0
vt 0.319335938 0.029296875 0
vt 0.319335938 0.029296875 0
vt 0.319335938 0.029296875 0
vt 0.319335938 0.029296875 0
vt 0.319335938 0.029296875 0
vt 0.319335938 0.029296875 0
vt 0.319335938 0.029296875 0
vt 0.319335938 0.029296875 0
vt 0.317382813 0.101318054 0
vt 0.317382813 0.0947265625 0
vt 0.520198107 0.0947265625 0
vt 0.520198107 0.101318054 0
vt 0.318359375 0.03125 0
vt 0.318359375 0.03125 0
vt 0.318359375 0.03125 0
vt 0.318359375 0.03125 0
vt 0.31640625 0.110107116 0
vt 0.519221544 0.110107116 0
vt 0.519221544 0.103515625 0
vt 0.31640625 0.103515625 0
vt 0.90388304 0.00659149559 0
vt 0.90388304 0 0
vt 0.888671875 0 0
vt 0.888671875 0.00659149559 0
vt 0.0368990116 0.424804688 0
vt 0.489001274 0.424804688 0
vt 0.489001274 0.447409779 0
vt 0.0368990116 0.447409779 0
vt 0.489001274 0.424804688 0
vt 0.941103518 0.424804688 0
vt 0.941103518 0.447409779 0
vt 0.489001274 0.447409779 0
vt 0.0368990116 0.396628529 0
vt 0.0368990116 0.374023438 0
vt 0.499110579 0.374023438 0
vt 0.499110579 0.396628529 0
vt 0.499110579 0.396628529 0
vt 0.499110579 0.374023438 0
vt 0.961322248 0.374023438 0
vt 0.961322248 0.396628529 0
vt 0.899601281 0.108268753 0
vt 0.909162164 0.127390355 0
vt 0.472029477 0.345956653 0
vt 0.472029477 0.322054625 0
vt 0.472029477 0.322054625 0
vt 0.472029477 0.345956653 0
vt 0.0348969176 0.127390355 0
vt 0.044457715 0.108268753 0
vt 0.899601936 0.0477219075 0
vt 0.90916276 0.0668435097 0
vt 0.472029805 0.285409927 0
vt 0.472029805 0.261507928 0
vt 0.472029805 0.261507928 0
vt 0.472029805 0.285409927 0
vt 0.0348969437 0.0668435097 0
vt 0.0444577485 0.0477219075 0
vt 0.804831684 0.029296875 0
vt 0.804831684 0.0495154895 0
vt 0.782226563 0.0495154895 0
vt 0.782226563 0.029296875 0
vt 0.189597294 0.056640625 0
vt 0.189597294 0.0768592432 0
vt 0.166992188 0.0768592432 0
vt 0.166992188 0.056640625 0
vt 0.941103518 0.424804688 0
vt 0.978002548 0.424804688 0
vt 0.978002548 0.447409779 0
vt 0.941103518 0.447409779 0
vt 0.899601936 0.0477219075 0
vt 0.934498787 0.0302734375 0
vt 0.94405961 0.0493950397 0
vt 0.90916276 0.0668435097 0
vt 0.961322248 0.374023438 0
vt 0.998221159 0.374023438 0
vt 0.998221159 0.396628529 0
vt 0.961322248 0.396628529 0
vt 0.0348969176 0.127390355 0
vt 0 0.109941907 0
vt 0.00956079643 0.0908203125 0
vt 0.044457715 0.108268753 0
vt 0.0368990116 0.447409779 0
vt 0 0.447409779 0
vt 0 0.424804688 0
vt 0.0368990116 0.424804688 0
vt 0.899601281 0.108268753 0
vt 0.934498131 0.0908203125 0
vt 0.944058955 0.109941907 0
vt 0.909162164 0.127390355 0
vt 0.0368990116 0.396628529 0
vt 0 0.396628529 0
vt 0 0.374023438 0
vt 0.0368990116 0.374023438 0
vt 0.0348969437 0.0668435097 0
vt 0 0.0493950397 0
vt 0.00956080295 0.0302734375 0
vt 0.0444577485 0.0477219075 0
vt 0.242125958 0.124702282 0
vt 0.242125958 0 0
vt 0.460265428 0 0
vt 0.460265428 0.124702282 0
vt 0.956667483 0.0119932191 0
vt 0.960265398 0.0191891603 0
vt 0.742125988 0.128258914 0
vt 0.742125988 0.119263984 0
vt 0.742125988 0.119263984 0
vt 0.742125988 0.128258914 0
vt 0.523986518 0.0191891603 0
vt 0.527584434 0.0119932191 0
vt 0.356675297 0.744846642 0
vt 0.356675297 0.752042592 0
vt 0.231973022 0.752042592 0
vt 0.231973022 0.744846642 0
vt 0.956667483 0.0119932191 0
vt 0.980654001 0 0
vt 0.984251916 0.00719594164 0
vt 0.960265398 0.0191891603 0
vt 0.460265428 0 0
vt 0.484251916 0 0
vt 0.484251916 0.124702267 0
vt 0.460265428 0.124702282 0
vt 0.0239864737 0.729098618 0
vt 0 0.729098618 0
vt 0 0.604396343 0
vt 0.0239864737 0.604396343 0
vt 0.523986518 0.0191891603 0
vt 0.5 0.00719594164 0
vt 0.503597915 0 0
vt 0.527584434 0.0119932191 0
vt 0.492187113 9.16769938e-10 0
vt 0.492187113 0.246093556 0
vt 0 0 0
vt 0.984374225 0 0
vt 0.492187113 0.246093556 0
vt 0.492187113 9.16769938e-10 0
vt 0.48903513 0.508789063 0
vt 0.764284432 0.508789063 0
vt 0.764284432 0.535512328 0
vt 0.4890351 0.535512328 0
vt 0.343608826 0 0
vt 0.343608856 0.026723247 0
vt 0.068359375 0.026723247 0
vt 0.068359375 0 0
vt 0.0239864737 0.604396343 0
vt 0.238527998 0.604396343 0
vt 0.238527998 0.729098618 0
vt 0.0239864737 0.729098618 0
vt 0.238527998 0.604396343 0
vt 0.453069538 0.604396343 0
vt 0.453069538 0.729098618 0
vt 0.238527998 0.729098618 0
vt 0.0239864737 0.124702267 0
vt 0.0239864737 0 0
vt 0.242125958 0 0
vt 0.242125958 0.124702282 0
vt 0.124702282 0.767790675 0
vt 0.124702267 0.774986565 0
vt 0 0.774986565 0
vt 0 0.767790675 0
vt 0.453069538 0.604396343 0
vt 0.477055997 0.604396343 0
vt 0.477055997 0.729098618 0
vt 0.453069538 0.729098618 0
vt 0.0239864737 0.124702267 0
vt 0 0.124702282 0
vt 0 0 0
vt 0.0239864737 0 0
vn 1 -0 -0
vn 1 0 0
vn 1 0 0
vn 1 -0 -0
vn -0 -0 1
vn 0 0 1
vn -0 -0 1
vn -0 -0 1
vn 0 -1 -0
vn -0 -1 -0
vn 0 -1 0
vn 0 -1 0
vn -0 -0 1
vn -0 0 1
vn 0 0 1
vn -0 -0 1
vn 1 -0 -0
vn 1 -0 -0
vn 1 -0 -0
vn 1 0 0
vn 0 0.99999994 0
vn 0 0.99999994 0
vn -0.447213829 0.894427061 -0
vn -0.447213829 0.894427061 -0
vn 0 0.99999994 0
vn 0 0.99999994 0
vn 0.447213829 0.894427061 -0
vn 0.447213829 0.894427061 -0
vn 0 0 1
vn 0 0 1
vn 0 0 1
vn 0.894427538 0.447212934 0
vn 0.894427538 0.447212934 -0
vn 0.894427538 0.447212934 -0
vn 0.894427538 0.447212934 0
vn 0.229752928 -0.973248959 -0
vn 0.229752928 -0.973248959 -0
vn 0.44721359 -0.89442718 -0
vn 0.44721359 -0.89442718 -0
vn -0.89442718 -0.44721359 2.46814675e-08
vn -0.89442718 -0.44721359 0
vn -0.89442718 -0.44721359 0
vn -0.89442718 -0.44721359 2.46814675e-08
vn 0 0 1
vn 0 0 1
vn 0 0 1
vn -0.229752928 -0.973248959 -0
vn -0.44721359 -0.89442718 0
vn -0.44721359 -0.89442718 0
vn -0.229752928 -0.973248959 -0
vn 0.89442718 -0.44721359 -2.46814622e-08
vn 0.89442718 -0.44721359 -2.46814622e-08
vn 0.89442718 -0.44721359 -0
vn 0.89442718 -0.44721359 -0
vn 1.86264459e-09 -1 -5.13991405e-17
vn -7.06789967e-17 -1 8.42559298e-24
vn -0.229752928 -0.973248959 -0
vn -0.229752928 -0.973248959 -0
vn -0 0 1
vn 0 0 1
vn 0 0 1
vn 0 0 1
vn -0 -0 1
vn 0 0 1
vn 0 0 1
vn -0 -0 1
vn 0 -0 1
vn -0 0 1
vn -0 -0 1
vn -0 -0 1
vn -1 -0 -0
vn -1 0 -0
vn -1 -0 -0
vn -1 -0 0
vn 0 -1 0
vn 0 -1 0
vn 1.86264626e-09 -1 -0
vn 1.86264626e-09 -1 -0
vn 0 -1 0
vn -1.86264626e-09 -1 -0
vn -1.86264626e-09 -1 -0
vn 0 -1 0
vn -0.44721359 0.89442718 -0
vn -0.44721359 0.89442718 -0
vn -0.44721359 0.89442718 -0
vn -0.44721359 0.89442718 -0
vn -1.86264459e-09 -1 5.13991537e-17
vn 0.229752928 -0.973248959 -0
vn 0.229752928 -0.973248959 -0
vn -7.06789967e-17 -1 8.42559298e-24
vn 0.44721359 0.89442718 -0
vn 0.44721359 0.89442718 0
vn 0.44721359 0.89442718 0
vn 0.44721359 0.89442718 -0
vn -0.894427538 0.447212934 -0
vn -0.894427538 0.447212934 -0
vn -0.894427538 0.447212934 -0
vn -0.894427538 0.447212934 -0
vn 0.44721356 -0.89442718 -0
vn 0 -1 0
vn 0 -1 0
vn 0.44721356 -0.89442718 -0
vn 0 -1 0
vn -0.44721356 -0.89442718 0
vn -0.44721356 -0.89442718 0
vn 0 -1 0
vn -0.44721356 0.89442718 -0
vn -0.44721356 0.89442718 -0
vn 0 1 0
vn 0 1 0
vn 0 1 0
vn 0 1 0
vn 0.44721356 0.89442718 0
vn 0.44721356 0.89442718 0
vn 0 0 -1
vn -0 -0 -1
vn -0 0 -1
vn -0 -0 -1
vn -0 -0 -1
vn -0 0 -1
vn -0 0 -1
vn 0 -0 -1
vn 0 -0 1
vn -0 0 1
vn -0 -0 1
vn -0 0 1
vn -0 0 1
vn -0 -0 1
vn -0 -0 1
vn 0 0 1
vn 0.89442718 -0.44721368 -0
vn 0.89442718 -0.44721368 -0
vn 0.89442718 -0.44721368 -0
vn 0.89442718 -0.44721368 -0
vn -0.89442718 -0.44721368 -0
vn -0.89442718 -0.44721368 0
vn -0.89442718 -0.44721368 0
vn -0.89442718 -0.44721368 -0
vn -0.44721356 -0.89442718 0
vn -0.447213531 -0.894427299 -0
vn -0.447213531 -0.894427299 -0
vn -0.44721356 -0.89442718 0
vn 0 -0 1
vn 0 -0 0.99999994
vn -0 0 1
vn -0 0 1
vn 0.44721356 0.89442718 0
vn 0.447213531 0.894427299 -0
vn 0.447213531 0.894427299 -0
vn 0.44721356 0.89442718 0
vn -0 0 -1
vn -0 0 -1
vn 0 -0 -0.99999994
vn 0 -0 -1
vn 0.44721356 -0.89442718 -0
vn 0.447213531 -0.894427299 -0
vn 0.447213531 -0.894427299 -0
vn 0.44721356 -0.89442718 -0
vn 0 0 -1
vn 0 -0 -0.99999994
vn -0 -0 -1
vn -0 -0 -1
vn -0.44721356 0.89442718 -0
vn -0.447213531 0.894427299 -0
vn -0.447213531 0.894427299 -0
vn -0.44721356 0.89442718 -0
vn -0 -0 1
vn -0 -0 1
vn 0 -0 0.99999994
vn 0 0 1
vn 0 1 0
vn 0 1 0
vn 0.447213352 0.894427359 0
vn 0.447213352 0.894427359 0
vn 0 -0 1
vn -0 0 1
vn -0 -0 1
vn -0 0 1
vn -0 0 1
vn -0 -0 1
vn -0 -0 1
vn 0 0 1
vn -0.894427538 -0.447213024 -0
vn -0.894427538 -0.447213024 0
vn -0.894427538 -0.447213024 0
vn -0.894427538 -0.447213024 0
vn 0 -0 1
vn 0 -0 1
vn -0 0 1
vn -0 0 1
vn 0.447213352 0.894427359 0
vn 0.447213084 0.894427538 -0
vn 0.447213084 0.894427538 0
vn 0.447213352 0.894427359 0
vn 0.447213352 -0.894427359 -0
vn 0.447213084 -0.894427538 -0
vn 0.447213084 -0.894427538 0
vn 0.447213352 -0.894427359 0
vn -0 -0 1
vn -0 -0 1
vn 0 -0 1
vn 0 0 1
vn 0 0 1
vn 0 0 1
vn 0 0 0.99999994
vn 0 0 0.99999994
vn 0 0 1
vn 0 0 1
vn -1 0 0
vn -1 -0 -0
vn -1 -0 0
vn -1 0 0
vn 0 1 0
vn 0 1 0
vn 0 1 0
vn -0 1 -0
vn 0.447213352 -0.894427359 0
vn 0 -1 0
vn 0 -1 0
vn 0.447213352 -0.894427359 -0
vn 0 -1 0
vn -0.447213352 -0.894427359 0
vn -0.447213352 -0.894427359 0
vn 0 -1 0
vn -0.447213352 0.894427359 0
vn -0.447213352 0.894427359 -0
vn 0 1 0
vn 0 1 0
vn 0.894427538 -0.447213024 0
vn 0.894427538 -0.447213024 0
vn 0.894427538 -0.447213024 -0
vn 0.894427538 -0.447213024 -0
vn -0.447213352 -0.894427359 0
vn -0.447213084 -0.894427538 0
vn -0.447213084 -0.894427538 -0
vn -0.447213352 -0.894427359 0
vn -0.447213352 0.894427359 0
vn -0.447213084 0.894427538 0
vn -0.447213084 0.894427538 -0
vn -0.447213352 0.894427359 -0
g woodBits
f 1/1/1 70/2/2 71/3/3 3/4/4
f 2/5/5 1/6/6 3/7/7 4/8/8
f 1/9/9 2/10/10 72/11/11 70/12/12
f 7/13/13 10/14/14 9/15/15 8/16/16
f 8/17/17 9/18/18 23/19/19 22/20/20
f 7/21/21 24/22/22 20/23/23 6/24/24
f 24/25/25 7/26/26 8/27/27 22/28/28
f 13/29/29 15/30/30 14/31/31
f 12/32/32 13/33/33 28/34/34 27/35/35
f 14/36/36 29/37/37 28/38/38 13/39/39
f 15/40/40 11/41/41 26/42/42 30/43/43
f 19/44/44 17/45/45 18/46/46
f 19/47/47 18/48/48 33/49/49 34/50/50
f 15/51/51 35/52/52 31/53/53 16/54/54
f 35/55/55 15/56/56 19/57/57 34/58/58
f 16/59/59 17/60/60 19/61/61 15/62/62
f 11/63/63 15/64/64 13/65/65 12/66/66
f 5/67/67 10/68/68 7/69/69 6/70/70
f 20/71/71 21/72/72 5/73/73 6/74/74
f 25/75/75 10/76/76 5/77/77 21/78/78
f 25/79/79 23/80/80 9/81/81 10/82/82
f 26/83/83 11/84/84 12/85/85 27/86/86
f 30/87/87 29/88/88 14/89/89 15/90/90
f 31/91/91 32/92/92 17/93/93 16/94/94
f 17/95/95 32/96/96 33/97/97 18/98/98
f 36/99/99 37/100/100 40/101/101 39/102/102
f 37/103/103 38/104/104 41/105/105 40/106/106
f 42/107/107 45/108/108 44/109/109 43/110/110
f 43/111/111 44/112/112 47/113/113 46/114/114
f 36/115/115 42/116/116 43/117/117 37/118/118
f 37/119/119 43/120/120 46/121/121 38/122/122
f 41/123/123 47/124/124 44/125/125 40/126/126
f 40/127/127 44/128/128 45/129/129 39/130/130
f 48/131/131 51/132/132 50/133/133 49/134/134
f 52/135/135 55/136/136 54/137/137 53/138/138
f 38/139/139 48/140/140 49/141/141 41/142/142
f 41/143/143 49/144/144 50/145/145 47/146/146
f 47/147/147 50/148/148 51/149/149 46/150/150
f 46/151/151 51/152/152 48/153/153 38/154/154
f 39/155/155 52/156/156 53/157/157 36/158/158
f 36/159/159 53/160/160 54/161/161 42/162/162
f 42/163/163 54/164/164 55/165/165 45/166/166
f 45/167/167 55/168/168 52/169/169 39/170/170
f 72/209/209 2/210/210 4/211/211 73/212/212
f 71/213/213 73/214/214 4/215/215 3/216/216
g roofBits
f 78/171/171 59/172/172 61/173/173 79/174/174
f 58/175/175 61/176/176 59/177/177 57/178/178
f 57/179/179 59/180/180 60/181/181 56/182/182
f 64/183/183 65/184/184 83/185/185 82/186/186
f 58/187/187 62/188/188 63/189/189 61/190/190
f 61/191/191 63/192/192 81/193/193 79/194/194
f 56/195/195 64/196/196 82/197/197 74/198/198
f 60/199/199 65/200/200 64/201/201 56/202/202
f 74/217/217 75/218/218 57/219/219 56/220/220
f 75/221/221 76/222/222 58/223/223 57/224/224
f 77/225/225 60/226/226 59/227/227 78/228/228
f 80/229/229 81/230/230 63/231/231 62/232/232
f 76/233/233 80/234/234 62/235/235 58/236/236
f 77/237/237 83/238/238 65/239/239 60/240/240
g wallBits
f 69/203/203 67/204/204 68/205/205
f 66/206/206 67/207/207 69/208/208
