# This file uses centimeters as units for non-parametric coordinates.

mtllib rope low.mtl
g default
v 0.077075 0.717232 -0.186076
v 0.079411 0.722871 -0.191716
v -0.077075 0.717232 -0.186076
v -0.079411 0.722871 -0.191716
v -0.186076 0.717232 -0.077075
v -0.191716 0.722871 -0.079411
v -0.186076 0.717232 0.077075
v -0.191716 0.722871 0.079411
v -0.077075 0.717232 0.186076
v -0.079411 0.722871 0.191716
v 0.077075 0.717232 0.186076
v 0.079411 0.722871 0.191716
v 0.186076 0.717232 0.077075
v 0.191716 0.722871 0.079411
v 0.186076 0.717232 -0.077075
v 0.191716 0.722871 -0.079411
v 0.186076 0.535840 -0.077075
v 0.191716 0.530201 -0.079411
v 0.186076 0.535840 0.077075
v 0.191716 0.530201 0.079411
v 0.077075 0.535840 0.186076
v 0.079411 0.530201 0.191716
v -0.077075 0.535840 0.186076
v -0.079411 0.530201 0.191716
v -0.186076 0.535840 0.077075
v -0.191716 0.530201 0.079411
v -0.186076 0.535840 -0.077075
v -0.191716 0.530201 -0.079411
v -0.077075 0.535840 -0.186076
v -0.079411 0.530201 -0.191716
v 0.077075 0.535840 -0.186076
v 0.079411 0.530201 -0.191716
v 0.208637 0.535840 -0.086420
v 0.202998 0.530201 -0.084084
v 0.202998 0.530201 0.084084
v 0.208637 0.535840 0.086420
v 0.202998 0.722871 -0.084084
v 0.208637 0.717232 -0.086420
v 0.208637 0.717232 0.086420
v 0.202998 0.722871 0.084084
v 0.084084 0.530201 0.202998
v 0.086420 0.535840 0.208637
v 0.086420 0.717232 0.208637
v 0.084084 0.722871 0.202998
v -0.084084 0.530201 0.202998
v -0.086420 0.535840 0.208637
v -0.086420 0.717232 0.208637
v -0.084084 0.722871 0.202998
v -0.202998 0.530201 0.084084
v -0.208637 0.535840 0.086420
v -0.208637 0.717232 0.086420
v -0.202998 0.722871 0.084084
v -0.202998 0.530201 -0.084084
v -0.208637 0.535840 -0.086420
v -0.208637 0.717232 -0.086420
v -0.202998 0.722871 -0.084084
v -0.084084 0.530201 -0.202998
v -0.086420 0.535840 -0.208637
v -0.086420 0.717232 -0.208637
v -0.084084 0.722871 -0.202998
v 0.084084 0.530201 -0.202998
v 0.086420 0.535840 -0.208637
v 0.086420 0.717232 -0.208637
v 0.084084 0.722871 -0.202998
vt 0.841880 0.412791
vt 0.841880 0.416007
vt 0.138621 0.416196
vt 0.226528 0.416172
vt 0.753973 0.416030
vt 0.666066 0.416054
vt 0.578158 0.416078
vt 0.490251 0.416102
vt 0.402343 0.416125
vt 0.314436 0.416149
vt 0.226499 0.306298
vt 0.138592 0.309538
vt 0.138591 0.306322
vt 0.314406 0.306274
vt 0.402313 0.306251
vt 0.490221 0.306227
vt 0.578128 0.306203
vt 0.666036 0.306180
vt 0.753943 0.306156
vt 0.841851 0.306132
vt 0.787246 0.164698
vt 0.883147 0.164663
vt 0.784581 0.164699
vt 0.688680 0.164734
vt 0.686015 0.164735
vt 0.590114 0.164770
vt 0.787286 0.274573
vt 0.884518 0.271321
vt 0.883187 0.274538
vt 0.784621 0.274574
vt 0.688720 0.274608
vt 0.686056 0.274609
vt 0.590154 0.274644
vt 0.587450 0.164771
vt 0.491548 0.164806
vt 0.587490 0.274645
vt 0.491588 0.274680
vt 0.488884 0.164807
vt 0.392982 0.164842
vt 0.488924 0.274681
vt 0.393022 0.274716
vt 0.390318 0.164843
vt 0.294416 0.164877
vt 0.390358 0.274717
vt 0.294456 0.274752
vt 0.291752 0.164878
vt 0.195850 0.164913
vt 0.291792 0.274753
vt 0.195890 0.274788
vt 0.193186 0.164914
vt 0.095953 0.168166
vt 0.097284 0.164949
vt 0.193226 0.274789
vt 0.097324 0.274824
vt 0.785915 0.167915
vt 0.687387 0.271393
vt 0.687349 0.167951
vt 0.588821 0.271428
vt 0.588783 0.167987
vt 0.490255 0.271464
vt 0.490217 0.168023
vt 0.391689 0.271500
vt 0.391651 0.168058
vt 0.293123 0.271536
vt 0.293085 0.168094
vt 0.194557 0.271572
vt 0.194519 0.168130
vt 0.095991 0.271608
vt 0.884481 0.167879
vt 0.785952 0.271357
vt 0.314407 0.309491
vt 0.226527 0.412956
vt 0.402314 0.309467
vt 0.314435 0.412933
vt 0.490222 0.309443
vt 0.402342 0.412909
vt 0.578129 0.309420
vt 0.490250 0.412885
vt 0.666037 0.309396
vt 0.578157 0.412862
vt 0.753944 0.309372
vt 0.666065 0.412838
vt 0.841852 0.309349
vt 0.753972 0.412814
vt 0.226500 0.309514
vt 0.138620 0.412980
vt 0.413766 0.518634
vt 0.420199 0.611871
vt 0.758325 0.523015
vt 0.764759 0.616251
vt 0.413766 0.609206
vt 0.352387 0.679683
vt 0.694281 0.458970
vt 0.764759 0.520350
vt 0.349722 0.673250
vt 0.256485 0.679683
vt 0.603710 0.458970
vt 0.696946 0.452537
vt 0.259150 0.673250
vt 0.188672 0.611871
vt 0.539666 0.523015
vt 0.601045 0.452537
vt 0.195106 0.609206
vt 0.188672 0.515969
vt 0.539666 0.613586
vt 0.533232 0.520350
vt 0.195106 0.518634
vt 0.256485 0.448156
vt 0.603710 0.677630
vt 0.533232 0.616251
vt 0.259150 0.454590
vt 0.352387 0.448156
vt 0.694281 0.677630
vt 0.601045 0.684064
vt 0.349722 0.454590
vt 0.420199 0.515969
vt 0.758325 0.613586
vt 0.696946 0.684064
vn -0.382394 0.038880 0.923181
vn -0.082374 0.976559 0.198867
vn 0.082374 0.976559 0.198867
vn 0.382394 0.038880 0.923181
vn -0.923181 0.038880 0.382394
vn -0.198871 0.976558 0.082374
vn 0.198868 0.976558 0.082373
vn 0.923181 0.038880 0.382394
vn 0.198869 0.976558 -0.082374
vn 0.923181 0.038880 -0.382394
vn 0.082375 0.976558 -0.198870
vn 0.382394 0.038880 -0.923181
vn -0.082375 0.976557 -0.198872
vn -0.382394 0.038880 -0.923181
vn -0.198871 0.976557 -0.082377
vn -0.923181 0.038880 -0.382394
vn -0.923181 -0.038880 0.382394
vn -0.198873 -0.976557 0.082375
vn -0.198872 -0.976557 -0.082377
vn -0.923181 -0.038880 -0.382394
vn -0.382394 -0.038880 0.923181
vn -0.082376 -0.976558 0.198871
vn -0.082375 -0.976557 -0.198872
vn -0.382394 -0.038880 -0.923181
vn 0.082375 -0.976557 -0.198872
vn 0.382394 -0.038880 -0.923181
vn 0.198871 -0.976557 -0.082376
vn 0.923181 -0.038880 -0.382394
vn 0.198871 -0.976558 0.082375
vn 0.923181 -0.038880 0.382394
vn 0.082375 -0.976557 0.198871
vn 0.382394 -0.038880 0.923181
vn 0.923555 -0.026502 -0.382549
vn 0.355280 -0.923103 -0.147162
vn 0.147162 -0.923103 -0.355280
vn 0.382549 -0.026502 -0.923555
vn 0.923555 -0.026502 0.382549
vn 0.355280 -0.923103 0.147163
vn 0.382549 -0.026502 0.923555
vn 0.147162 -0.923103 0.355280
vn 0.355280 0.923103 -0.147162
vn 0.923555 0.026502 -0.382549
vn 0.382549 0.026502 -0.923555
vn 0.147162 0.923103 -0.355281
vn 0.355280 0.923104 0.147160
vn 0.923555 0.026502 0.382549
vn 0.147162 0.923104 0.355278
vn 0.382549 0.026502 0.923555
vn -0.382549 -0.026502 0.923555
vn -0.147162 -0.923103 0.355280
vn -0.147162 0.923104 0.355279
vn -0.382549 0.026502 0.923555
vn -0.923555 -0.026502 0.382549
vn -0.355280 -0.923103 0.147163
vn -0.355282 0.923103 0.147161
vn -0.923555 0.026502 0.382549
vn -0.923555 -0.026502 -0.382549
vn -0.355280 -0.923103 -0.147162
vn -0.355282 0.923103 -0.147161
vn -0.923555 0.026502 -0.382549
vn -0.382549 -0.026502 -0.923555
vn -0.147162 -0.923104 -0.355280
vn -0.147163 0.923103 -0.355280
vn -0.382549 0.026502 -0.923555
s 1
g pCylinder4
usemtl initialShadingGroup
f 1/1/1 2/2/2 4/5/3 3/84/4
f 2/3/2 1/86/1 15/72/5 16/4/6
f 3/84/4 4/5/3 6/6/7 5/82/8
f 5/82/8 6/6/7 8/7/9 7/80/10
f 7/80/10 8/7/9 10/8/11 9/78/12
f 9/78/12 10/8/11 12/9/13 11/76/14
f 11/76/14 12/9/13 14/10/15 13/74/16
f 13/74/16 14/10/15 16/4/6 15/72/5
f 17/85/17 18/11/18 20/14/19 19/71/20
f 18/11/18 17/85/17 31/12/21 32/13/22
f 19/71/20 20/14/19 22/15/23 21/73/24
f 21/73/24 22/15/23 24/16/25 23/75/26
f 23/75/26 24/16/25 26/17/27 25/77/28
f 25/77/28 26/17/27 28/18/29 27/79/30
f 27/79/30 28/18/29 30/19/31 29/81/32
f 29/81/32 30/19/31 32/20/22 31/83/21
f 33/55/33 34/21/34 61/22/35 62/69/36
f 34/23/34 33/55/33 36/57/37 35/24/38
f 35/25/38 36/57/37 42/59/39 41/26/40
f 37/27/41 38/70/42 63/28/43 64/29/44
f 38/70/42 37/30/41 40/31/45 39/56/46
f 39/56/46 40/32/45 44/33/47 43/58/48
f 41/34/40 42/59/39 46/61/49 45/35/50
f 43/58/48 44/36/47 48/37/51 47/60/52
f 45/38/50 46/61/49 50/63/53 49/39/54
f 47/60/52 48/40/51 52/41/55 51/62/56
f 49/42/54 50/63/53 54/65/57 53/43/58
f 51/62/56 52/44/55 56/45/59 55/64/60
f 53/46/58 54/65/57 58/67/61 57/47/62
f 55/64/60 56/48/59 60/49/63 59/66/64
f 57/50/62 58/67/61 62/51/36 61/52/35
f 59/66/64 60/53/63 64/54/44 63/68/43
f 36/57/37 33/55/33 38/70/42 39/56/46
f 42/59/39 36/57/37 39/56/46 43/58/48
f 46/61/49 42/59/39 43/58/48 47/60/52
f 50/63/53 46/61/49 47/60/52 51/62/56
f 54/65/57 50/63/53 51/62/56 55/64/60
f 58/67/61 54/65/57 55/64/60 59/66/64
f 62/51/36 58/67/61 59/66/64 63/68/43
f 33/55/33 62/69/36 63/28/43 38/70/42
f 19/71/20 13/74/16 15/72/5 17/85/17
f 21/73/24 11/76/14 13/74/16 19/71/20
f 23/75/26 9/78/12 11/76/14 21/73/24
f 25/77/28 7/80/10 9/78/12 23/75/26
f 27/79/30 5/82/8 7/80/10 25/77/28
f 29/81/32 3/84/4 5/82/8 27/79/30
f 31/83/21 1/1/1 3/84/4 29/81/32
f 17/85/17 15/72/5 1/86/1 31/12/21
f 20/91/19 18/87/18 34/116/34 35/88/38
f 16/117/6 14/89/15 40/94/45 37/90/41
f 22/95/23 20/91/19 35/88/38 41/92/40
f 14/89/15 12/93/13 44/98/47 40/94/45
f 24/99/25 22/95/23 41/92/40 45/96/50
f 12/93/13 10/97/11 48/102/51 44/98/47
f 26/103/27 24/99/25 45/96/50 49/100/54
f 10/97/11 8/101/9 52/106/55 48/102/51
f 28/107/29 26/103/27 49/100/54 53/104/58
f 8/101/9 6/105/7 56/110/59 52/106/55
f 30/111/31 28/107/29 53/104/58 57/108/62
f 6/105/7 4/109/3 60/114/63 56/110/59
f 32/115/22 30/111/31 57/108/62 61/112/35
f 4/109/3 2/113/2 64/118/44 60/114/63
f 18/87/18 32/115/22 61/112/35 34/116/34
f 2/113/2 16/117/6 37/90/41 64/118/44
